<svg width="9" height="15" viewBox="0 0 9 15" fill="none" xmlns="http://www.w3.org/2000/svg">
<path d="M8.61645 0.370354C8.37276 0.133132 8.04326 0 7.69982 0C7.35638 0 7.02688 0.133132 6.78319 0.370354L0.378268 6.67016C0.143255 6.90098 0.00791769 7.21162 0.000336525 7.53765C-0.00724464 7.86367 0.113512 8.18005 0.337552 8.42112L6.64852 14.6268C6.76841 14.7448 6.91084 14.8385 7.06767 14.9025C7.2245 14.9665 7.39267 14.9997 7.56256 15C7.73246 15.0003 7.90075 14.9679 8.05784 14.9044C8.21494 14.841 8.35775 14.7479 8.47812 14.6304C8.59849 14.5128 8.69407 14.3732 8.7594 14.2195C8.82473 14.0658 8.85853 13.9009 8.85887 13.7344C8.85921 13.5678 8.82608 13.4029 8.76138 13.2489C8.69668 13.0949 8.60167 12.9549 8.48177 12.8369L3.12398 7.50624L8.62271 2.16737C8.74289 2.04909 8.83807 1.90873 8.90281 1.75433C8.96755 1.59993 9.00057 1.43452 8.99999 1.26759C8.99941 1.10066 8.96523 0.935477 8.89942 0.781514C8.8336 0.62755 8.73744 0.487829 8.61645 0.370354Z" fill="#909090"/>
</svg>
