<svg width="15" height="15" viewBox="0 0 15 15" fill="none" xmlns="http://www.w3.org/2000/svg">
<circle cx="7.5" cy="7.5" r="7.5" fill="#D9D9D9"/>
<path d="M7.69002 3.356C8.37252 3.356 8.92902 3.5345 9.34902 3.9125C9.76902 4.28 9.97902 4.784 9.97902 5.4245C9.97902 5.9495 9.84252 6.38 9.59052 6.716C9.49602 6.821 9.19152 7.1045 8.68752 7.5455C8.49852 7.6925 8.36202 7.871 8.26752 8.06C8.16252 8.27 8.11002 8.501 8.11002 8.753V8.9H6.90252V8.753C6.90252 8.354 6.96552 8.0075 7.11252 7.724C7.24902 7.4405 7.65852 6.9995 8.34102 6.3905L8.46702 6.2435C8.65602 6.0125 8.75052 5.7605 8.75052 5.498C8.75052 5.1515 8.64552 4.8785 8.45652 4.679C8.25702 4.4795 7.97352 4.385 7.61652 4.385C7.16502 4.385 6.83952 4.5215 6.62952 4.805C6.45102 5.0465 6.36702 5.393 6.36702 5.8445H5.17002C5.17002 5.0675 5.39052 4.4585 5.85252 4.0175C6.30402 3.5765 6.91302 3.356 7.69002 3.356ZM7.50102 9.4145C7.73202 9.4145 7.93152 9.488 8.08902 9.635C8.23602 9.782 8.32002 9.971 8.32002 10.202C8.32002 10.433 8.23602 10.6325 8.08902 10.7795C7.92102 10.9265 7.73202 11 7.50102 11C7.27002 11 7.08102 10.916 6.93402 10.769C6.76602 10.622 6.69252 10.433 6.69252 10.202C6.69252 9.971 6.76602 9.782 6.93402 9.635C7.08102 9.488 7.27002 9.4145 7.50102 9.4145Z" fill="white"/>
</svg>
