<svg width="16" height="23" viewBox="0 0 16 23" fill="none" xmlns="http://www.w3.org/2000/svg">
<path d="M8.88601 0.869995C9.38601 0.969995 9.88607 1.03401 10.3731 1.17001C11.8327 1.57867 13.1244 2.44129 14.0611 3.633C14.8053 4.54814 15.3101 5.63411 15.53 6.793C15.8754 8.49437 15.5967 10.2632 14.745 11.776C12.765 15.3653 10.7824 18.9533 8.79702 22.54C8.7615 22.6379 8.69782 22.7232 8.61403 22.7851C8.53024 22.847 8.43012 22.8828 8.32607 22.888C8.08107 22.888 7.961 22.729 7.855 22.539C5.873 18.9517 3.89065 15.3637 1.90798 11.775C1.20591 10.5564 0.891941 9.15264 1.00795 7.75101C1.08019 6.32784 1.57284 4.95802 2.42348 3.81476C3.27412 2.6715 4.44461 1.80612 5.78701 1.328C6.37372 1.09917 6.99049 0.95638 7.61806 0.904022C7.6667 0.895572 7.7147 0.884192 7.76198 0.869995H8.88601ZM8.33999 4.55002C7.37737 4.54621 6.45205 4.92201 5.76467 5.59592C5.07728 6.26982 4.68324 7.18752 4.66799 8.15002C4.66019 8.63408 4.74817 9.1149 4.9269 9.56482C5.10563 10.0147 5.37154 10.4249 5.70937 10.7716C6.04721 11.1184 6.45029 11.3949 6.89541 11.5853C7.34052 11.7757 7.8189 11.8762 8.303 11.881C9.26927 11.883 10.1975 11.5045 10.8869 10.8275C11.5763 10.1504 11.9715 9.22915 11.987 8.263C11.9948 7.7788 11.9063 7.29787 11.7266 6.84818C11.5469 6.39848 11.2797 5.98898 10.9403 5.64349C10.601 5.29801 10.1963 5.02345 9.7499 4.83572C9.3035 4.648 8.82425 4.55088 8.33999 4.55002Z" fill="#9A9C9A"/>
</svg>
