<svg width="23" height="18" viewBox="0 0 23 18" fill="none" xmlns="http://www.w3.org/2000/svg">
<path d="M0.296997 2.02902L0.46106 1.55603L7.73206 8.82602L0.466064 16.092L0.296997 15.612V2.02902Z" fill="#9A9C9A"/>
<path d="M11.389 10.498L1.41199 0.52104C1.70023 0.457153 1.99262 0.413707 2.28699 0.391035C4.49999 0.380035 6.71303 0.38603 8.92603 0.38603C12.762 0.38603 16.5977 0.387702 20.433 0.391035C20.7299 0.411232 21.025 0.452664 21.316 0.515028L21.333 0.601026L11.389 10.498Z" fill="#9A9C9A"/>
<path d="M13.984 9.76001L21.3361 17.111C21.0648 17.1788 20.7885 17.2253 20.51 17.25C19.198 17.264 17.8861 17.256 16.5741 17.256C11.8241 17.256 7.07366 17.256 2.323 17.256C2.02126 17.2666 1.72151 17.2042 1.4491 17.074L8.75806 9.76401C8.79406 9.79801 8.85101 9.84998 8.90601 9.90298L10.7581 11.752C10.8188 11.8457 10.9016 11.923 10.9993 11.9771C11.0969 12.0312 11.2064 12.0605 11.318 12.0624C11.4296 12.0643 11.54 12.0387 11.6394 11.9879C11.7388 11.937 11.8242 11.8626 11.8881 11.771C12.5027 11.183 13.116 10.5937 13.728 10.003C13.813 9.92099 13.902 9.83701 13.984 9.76001Z" fill="#9A9C9A"/>
<path d="M14.981 8.81503L22.261 1.53406C22.3911 1.78948 22.4547 2.07354 22.446 2.36005C22.446 4.84671 22.446 7.33371 22.446 9.82104C22.446 11.644 22.452 13.467 22.441 15.291C22.4181 15.5774 22.3732 15.8615 22.307 16.1411L14.981 8.81503Z" fill="#9A9C9A"/>
</svg>
