<svg width="31" height="31" viewBox="0 0 31 31" fill="none" xmlns="http://www.w3.org/2000/svg">
<path d="M22.8899 30.0539H2.87695C2.83373 30.0323 2.78851 30.0149 2.74194 30.0019C2.20359 29.9153 1.69595 29.6937 1.2666 29.3575C0.837253 29.0214 0.500271 28.5818 0.286987 28.0799C0.173181 27.786 0.0773508 27.4856 0 27.18V7.16699C0.0188096 7.14425 0.0330611 7.11808 0.0419922 7.08996C0.173873 6.28503 0.594749 5.55581 1.22583 5.03906C1.85691 4.5223 2.65484 4.25348 3.46997 4.28295C8.65197 4.30895 13.833 4.29101 19.016 4.29101H19.3949C19.2669 4.42601 19.1879 4.51194 19.1069 4.59094C16.5069 7.19094 13.907 9.78869 11.307 12.384C10.9201 12.7609 10.6308 13.2263 10.464 13.74C10.086 14.907 9.68293 16.064 9.30493 17.23C9.20237 17.5203 9.13885 17.823 9.11597 18.13C9.09667 18.568 9.18471 19.004 9.37256 19.4001C9.56041 19.7962 9.84239 20.1404 10.1937 20.4026C10.5451 20.6648 10.9551 20.8371 11.3883 20.9044C11.8215 20.9718 12.2646 20.9321 12.679 20.7889C13.879 20.4059 15.062 19.989 16.257 19.607C16.8083 19.4271 17.3073 19.1154 17.7109 18.699C20.2963 16.103 22.8866 13.511 25.4819 10.923C25.5589 10.846 25.64 10.7729 25.762 10.6589V21.64C25.762 23.348 25.771 25.0549 25.762 26.7629C25.7623 27.4618 25.5394 28.1426 25.1256 28.7058C24.7119 29.269 24.1289 29.6854 23.4619 29.894C23.2719 29.955 23.0789 30.0009 22.8899 30.0539Z" fill="#88A1D2"/>
<path d="M29.6729 2.25098C29.0839 1.62398 28.4729 1.01605 27.8499 0.425055C27.6057 0.173857 27.2764 0.0232372 26.9266 0.0030579C26.5769 -0.0171214 26.2324 0.0945968 25.9609 0.316046C25.3719 0.833046 24.8669 1.44494 24.3389 2.00294C24.2909 2.04694 24.2389 2.08894 24.1979 2.13294C20.5419 5.78827 16.8875 9.44565 13.2349 13.105C13.0842 13.2621 12.9696 13.4501 12.8989 13.656C12.4929 14.834 12.1139 16.02 11.7109 17.198C11.6274 17.3702 11.5994 17.5642 11.6311 17.7531C11.6628 17.9419 11.7525 18.1162 11.8877 18.2517C12.0229 18.3873 12.1969 18.4773 12.3856 18.5094C12.5744 18.5415 12.7685 18.5142 12.9409 18.431C14.1189 18.031 15.3069 17.653 16.4829 17.243C16.7149 17.1562 16.9251 17.0197 17.0989 16.843C20.7255 13.229 24.3472 9.60997 27.9639 5.98597C28.0279 5.92197 28.0859 5.856 28.1409 5.797H28.1459C28.2119 5.734 28.2869 5.66705 28.3569 5.59705C28.8139 5.13805 29.2899 4.69704 29.7189 4.21204C29.958 3.93872 30.086 3.58561 30.0775 3.22254C30.069 2.85947 29.9245 2.51279 29.6729 2.25098V2.25098Z" fill="#88A1D2"/>
</svg>
