<svg width="33" height="33" viewBox="0 0 33 33" fill="none" xmlns="http://www.w3.org/2000/svg">
<path d="M20.2781 27.5182V27.5022C20.0781 25.9592 18.4531 24.7572 16.4781 24.7572C14.5031 24.7572 12.8731 25.9652 12.6781 27.5092V27.5222C12.3038 29.0088 11.3986 30.3072 10.1332 31.1725C8.8677 32.0378 7.32938 32.4102 5.80826 32.2196C4.28714 32.029 2.8883 31.2884 1.8755 30.1376C0.862694 28.9868 0.305895 27.5052 0.310082 25.9722V25.6862C0.310082 19.6512 5.06808 14.5512 11.6271 12.8312C10.6441 11.8678 9.97031 10.6335 9.69162 9.28564C9.41292 7.93778 9.54195 6.53747 10.0623 5.26324C10.5826 3.98901 11.4706 2.8986 12.6131 2.13106C13.7555 1.36352 15.1007 0.953613 16.4771 0.953613C17.8534 0.953613 19.1986 1.36352 20.3411 2.13106C21.4836 2.8986 22.3716 3.98901 22.8919 5.26324C23.4122 6.53747 23.5412 7.93778 23.2625 9.28564C22.9839 10.6335 22.3101 11.8678 21.3271 12.8312C27.8881 14.5472 32.6471 19.6542 32.6471 25.6872V25.9732C32.6464 27.5033 32.0871 28.9806 31.0742 30.1275C30.0612 31.2744 28.6645 32.012 27.1461 32.2018C25.6278 32.3916 24.0924 32.0206 22.8283 31.1584C21.5643 30.2962 20.6585 29.0021 20.2811 27.5192L20.2781 27.5182Z" fill="#EAEAEA"/>
</svg>
