<svg width="21" height="21" viewBox="0 0 21 21" fill="none" xmlns="http://www.w3.org/2000/svg">
<path d="M20.764 10.3829C20.7637 13.1366 19.6697 15.7774 17.7226 17.7245C15.7755 19.6716 13.1346 20.7656 10.381 20.7659C9.0176 20.7658 7.6676 20.4971 6.40805 19.9752C5.1485 19.4534 4.00407 18.6885 3.0401 17.7244C2.07614 16.7602 1.31151 15.6157 0.789887 14.356C0.268264 13.0964 -0.00013128 11.7463 4.81718e-08 10.3829C0.000795485 7.63012 1.0948 4.99035 3.0415 3.04402C4.9882 1.0977 7.6282 0.00417128 10.381 0.00390625C11.7445 0.00390625 13.0947 0.272471 14.3544 0.794266C15.6141 1.31606 16.7587 2.08086 17.7229 3.04501C18.687 4.00916 19.4518 5.15377 19.9736 6.4135C20.4954 7.67322 20.764 9.02339 20.764 10.3869" fill="#F7F8F8"/>
</svg>
