<svg width="21" height="21" viewBox="0 0 21 21" fill="none" xmlns="http://www.w3.org/2000/svg">
<path d="M20.764 10.383C20.7637 13.1367 19.6697 15.7775 17.7226 17.7246C15.7755 19.6718 13.1346 20.7658 10.381 20.766C9.0176 20.7659 7.6676 20.4972 6.40805 19.9754C5.1485 19.4535 4.00407 18.6887 3.0401 17.7245C2.07614 16.7604 1.31151 15.6158 0.789887 14.3561C0.268264 13.0965 -0.00013128 11.7464 4.81718e-08 10.383C0.000795485 7.63024 1.0948 4.99047 3.0415 3.04414C4.9882 1.09782 7.6282 0.00429336 10.381 0.00402832C11.7445 0.00402832 13.0947 0.272593 14.3544 0.794388C15.6141 1.31618 16.7587 2.08098 17.7229 3.04514C18.687 4.00929 19.4518 5.1539 19.9736 6.41362C20.4954 7.67334 20.764 9.02351 20.764 10.387" fill="#F7F8F8"/>
</svg>
