<svg width="33" height="33" viewBox="0 0 33 33" fill="none" xmlns="http://www.w3.org/2000/svg">
<path d="M20.2786 27.5182V27.5022C20.0786 25.9592 18.4536 24.7572 16.4786 24.7572C14.5036 24.7572 12.8736 25.9652 12.6786 27.5092V27.5222C12.3043 29.0088 11.3991 30.3072 10.1337 31.1725C8.86819 32.0378 7.32987 32.4102 5.80875 32.2196C4.28762 32.029 2.88879 31.2884 1.87599 30.1376C0.863182 28.9868 0.306384 27.5052 0.31057 25.9722V25.6862C0.31057 19.6512 5.06857 14.5512 11.6276 12.8312C10.6446 11.8678 9.9708 10.6335 9.6921 9.28564C9.41341 7.93778 9.54244 6.53747 10.0628 5.26324C10.5831 3.98901 11.4711 2.8986 12.6135 2.13106C13.756 1.36352 15.1012 0.953613 16.4776 0.953613C17.8539 0.953613 19.1991 1.36352 20.3416 2.13106C21.4841 2.8986 22.3721 3.98901 22.8924 5.26324C23.4127 6.53747 23.5417 7.93778 23.263 9.28564C22.9843 10.6335 22.3105 11.8678 21.3276 12.8312C27.8886 14.5472 32.6476 19.6542 32.6476 25.6872V25.9732C32.6469 27.5033 32.0875 28.9806 31.0746 30.1275C30.0617 31.2744 28.665 32.012 27.1466 32.2018C25.6283 32.3916 24.0929 32.0206 22.8288 31.1584C21.5648 30.2962 20.659 29.0021 20.2816 27.5192L20.2786 27.5182Z" fill="#EAEAEA"/>
</svg>
