<svg width="33" height="31" viewBox="0 0 33 31" fill="none" xmlns="http://www.w3.org/2000/svg">
<path d="M21.6265 6.12335C21.6263 7.16384 21.3176 8.18089 20.7394 9.04593C20.1612 9.91096 19.3394 10.5851 18.3781 10.9832C17.4168 11.3812 16.359 11.4852 15.3385 11.2821C14.318 11.079 13.3807 10.5779 12.6451 9.84207C11.9094 9.10627 11.4084 8.16885 11.2055 7.14835C11.0026 6.12784 11.1068 5.07006 11.5051 4.1088C11.9033 3.14753 12.5776 2.32594 13.4427 1.74789C14.3079 1.16985 15.325 0.861328 16.3655 0.861328C17.0565 0.861197 17.7408 0.997221 18.3792 1.26163C19.0176 1.52603 19.5977 1.91365 20.0862 2.40231C20.5748 2.89097 20.9623 3.47112 21.2266 4.10959C21.4909 4.74806 21.6267 5.43235 21.6265 6.12335" fill="#88A1D2"/>
<path d="M12.5667 15.4602C12.7667 17.0022 14.3917 18.2052 16.3667 18.2052C18.3417 18.2052 19.9717 16.9972 20.1667 15.4512V15.4382C20.5458 13.9567 21.4524 12.6644 22.7164 11.8038C23.9805 10.9432 25.5151 10.5734 27.0324 10.7637C28.5497 10.9541 29.9454 11.6915 30.9577 12.8377C31.97 13.9838 32.5293 15.46 32.5307 16.9892V17.2752C32.5307 24.7152 25.2927 30.7472 16.3627 30.7472C7.43273 30.7472 0.19873 24.7152 0.19873 17.2752V16.9892C0.199156 15.4592 0.75819 13.982 1.77083 12.8351C2.78347 11.6882 4.18002 10.9505 5.69817 10.7605C7.21631 10.5706 8.75159 10.9414 10.0156 11.8035C11.2796 12.6656 12.1854 13.9595 12.5627 15.4422L12.5667 15.4602Z" fill="#88A1D2"/>
</svg>
