<svg width="35" height="35" viewBox="0 0 35 35" fill="none" xmlns="http://www.w3.org/2000/svg">
<g filter="url(#filter0_d_109_20800)">
<path d="M20.2781 27.5177V27.5017C20.0781 25.9587 18.4531 24.7567 16.4781 24.7567C14.5031 24.7567 12.8731 25.9647 12.6781 27.5087V27.5217C12.3038 29.0084 11.3986 30.3067 10.1332 31.172C8.8677 32.0373 7.32938 32.4098 5.80826 32.2191C4.28714 32.0285 2.8883 31.288 1.8755 30.1371C0.862694 28.9863 0.305895 27.5047 0.310082 25.9717V25.6857C0.310082 19.6507 5.06808 14.5507 11.6271 12.8307C10.6441 11.8673 9.97031 10.633 9.69162 9.28515C9.41292 7.93729 9.54195 6.53698 10.0623 5.26275C10.5826 3.98852 11.4706 2.89812 12.6131 2.13057C13.7555 1.36303 15.1007 0.953125 16.4771 0.953125C17.8534 0.953125 19.1986 1.36303 20.3411 2.13057C21.4836 2.89812 22.3716 3.98852 22.8919 5.26275C23.4122 6.53698 23.5412 7.93729 23.2625 9.28515C22.9839 10.633 22.3101 11.8673 21.3271 12.8307C27.8881 14.5467 32.6471 19.6537 32.6471 25.6867V25.9727C32.6464 27.5029 32.0871 28.9801 31.0742 30.127C30.0612 31.2739 28.6645 32.0115 27.1461 32.2013C25.6278 32.3912 24.0924 32.0201 22.8283 31.1579C21.5643 30.2957 20.6585 29.0016 20.2811 27.5187L20.2781 27.5177Z" fill="#88A1D2"/>
</g>
<defs>
<filter id="filter0_d_109_20800" x="0.310059" y="0.953125" width="34.3369" height="33.3145" filterUnits="userSpaceOnUse" color-interpolation-filters="sRGB">
<feFlood flood-opacity="0" result="BackgroundImageFix"/>
<feColorMatrix in="SourceAlpha" type="matrix" values="0 0 0 0 0 0 0 0 0 0 0 0 0 0 0 0 0 0 127 0" result="hardAlpha"/>
<feOffset dx="1" dy="1"/>
<feGaussianBlur stdDeviation="0.5"/>
<feColorMatrix type="matrix" values="0 0 0 0 0 0 0 0 0 0 0 0 0 0 0 0 0 0 0.161 0"/>
<feBlend mode="normal" in2="BackgroundImageFix" result="effect1_dropShadow_109_20800"/>
<feBlend mode="normal" in="SourceGraphic" in2="effect1_dropShadow_109_20800" result="shape"/>
</filter>
</defs>
</svg>
