<svg width="31" height="31" viewBox="0 0 31 31" fill="none" xmlns="http://www.w3.org/2000/svg">
<g filter="url(#filter0_d_2_293)">
<path d="M16.76 28.7971H13.066C12.8984 28.7199 12.7524 28.6027 12.6406 28.4559C12.5289 28.3091 12.4548 28.1372 12.425 27.9551C12.216 27.0501 11.983 26.1501 11.77 25.2451C11.759 25.1667 11.7259 25.0931 11.6745 25.0329C11.6231 24.9726 11.5556 24.9283 11.48 24.9051C11.033 24.7371 10.594 24.5471 10.159 24.3501C10.0936 24.3133 10.0191 24.2957 9.94408 24.2992C9.8691 24.3028 9.79665 24.3273 9.73497 24.3701C9.06597 24.7831 8.389 25.1831 7.713 25.5861C7.62153 25.6622 7.51554 25.7188 7.40148 25.7526C7.28741 25.7864 7.16763 25.7967 7.04949 25.7828C6.93134 25.7688 6.81728 25.731 6.71422 25.6716C6.61116 25.6121 6.52126 25.5324 6.45 25.4371C5.75733 24.7471 5.06596 24.0558 4.37596 23.3631C4.28088 23.2918 4.20117 23.2021 4.14159 23.0993C4.08201 22.9965 4.04379 22.8827 4.02922 22.7648C4.01466 22.6469 4.02404 22.5272 4.05681 22.413C4.08958 22.2988 4.14508 22.1924 4.21996 22.1001C4.62796 21.4181 5.03597 20.7351 5.45097 20.0561C5.4888 20.0021 5.51053 19.9385 5.51372 19.8727C5.5169 19.8069 5.50141 19.7415 5.46898 19.6841C5.26898 19.2331 5.06899 18.7771 4.89299 18.3131C4.87074 18.2418 4.82894 18.1782 4.77239 18.1294C4.71583 18.0806 4.64677 18.0486 4.57298 18.0371C3.62632 17.8078 2.68031 17.5744 1.73497 17.3371C1.62628 17.3246 1.52115 17.2907 1.42558 17.2375C1.33002 17.1842 1.24591 17.1126 1.17809 17.0267C1.11026 16.9409 1.06002 16.8425 1.03032 16.7372C1.00062 16.6319 0.992027 16.5217 1.00499 16.4131C1.00499 15.3998 1.00499 14.3858 1.00499 13.3711C0.991573 13.2625 0.999733 13.1523 1.02898 13.0468C1.05822 12.9413 1.10796 12.8427 1.1754 12.7565C1.24284 12.6703 1.32665 12.5982 1.42198 12.5444C1.51732 12.4907 1.62234 12.4562 1.731 12.4431C2.667 12.2061 3.60298 11.9701 4.54198 11.7431C4.62855 11.7293 4.70932 11.6908 4.77458 11.6323C4.83985 11.5738 4.88683 11.4977 4.90996 11.4131C5.04296 11.0401 5.19399 10.6721 5.35899 10.3131C5.39338 10.2511 5.40945 10.1806 5.40538 10.1098C5.40131 10.039 5.37725 9.97079 5.33598 9.91311C4.86998 9.14911 4.41199 8.38011 3.95299 7.61311C3.87561 7.5199 3.81803 7.4119 3.7838 7.29569C3.74957 7.17949 3.73939 7.05752 3.75389 6.93725C3.7684 6.81698 3.80727 6.70093 3.86815 6.5962C3.92903 6.49147 4.01063 6.40023 4.10796 6.3281C4.79196 5.6421 5.47695 4.95711 6.16295 4.27311C6.23404 4.17501 6.32469 4.09266 6.42912 4.03124C6.53355 3.96981 6.64953 3.93064 6.76982 3.91618C6.89011 3.90172 7.01209 3.91228 7.1281 3.9472C7.24411 3.98212 7.35164 4.04064 7.44396 4.1191C8.18896 4.5641 8.92996 5.01911 9.68096 5.45011C9.79494 5.50439 9.92573 5.51156 10.045 5.4701C10.531 5.2801 11.004 5.05411 11.491 4.87011C11.5622 4.84762 11.6258 4.80563 11.6744 4.7489C11.723 4.69216 11.7547 4.62296 11.766 4.54911C11.9946 3.60245 12.228 2.65644 12.466 1.71111C12.4788 1.60237 12.5128 1.49722 12.5663 1.40169C12.6198 1.30616 12.6916 1.22211 12.7776 1.15439C12.8637 1.08667 12.9623 1.03658 13.0677 1.00702C13.1731 0.977457 13.2833 0.968994 13.392 0.982111C14.406 0.982111 15.42 0.982111 16.434 0.982111C16.6535 0.955571 16.8744 1.01723 17.0484 1.15355C17.2225 1.28987 17.3352 1.48969 17.362 1.70911C17.6 2.65377 17.8333 3.59978 18.062 4.54711C18.073 4.62102 18.1045 4.69035 18.1529 4.74726C18.2014 4.80417 18.2648 4.84638 18.336 4.8691C18.784 5.0351 19.222 5.2261 19.657 5.4231C19.7191 5.45734 19.7897 5.47327 19.8605 5.46902C19.9313 5.46477 19.9994 5.44052 20.057 5.3991C20.765 4.9641 21.481 4.54111 22.196 4.11511C22.287 4.03861 22.3928 3.98162 22.5068 3.94769C22.6207 3.91376 22.7404 3.90361 22.8584 3.91786C22.9765 3.93212 23.0904 3.97047 23.193 4.03055C23.2956 4.09063 23.3848 4.17115 23.455 4.26711C24.141 4.95111 24.826 5.63578 25.51 6.32112C25.6114 6.39166 25.6969 6.48275 25.7609 6.58848C25.8248 6.69421 25.8658 6.81219 25.8812 6.93479C25.8965 7.05739 25.8859 7.18185 25.85 7.30009C25.8142 7.41833 25.7538 7.5277 25.673 7.6211C25.251 8.3271 24.8309 9.0341 24.4 9.7351C24.3585 9.79268 24.3343 9.86083 24.3301 9.93163C24.3258 10.0024 24.3417 10.073 24.376 10.1351C24.576 10.5781 24.751 11.0351 24.956 11.4751C25.0092 11.5897 25.105 11.679 25.223 11.7241C26.113 11.9571 27.005 12.1831 27.903 12.3841C28.0997 12.4071 28.2874 12.4794 28.4487 12.5942C28.6101 12.7091 28.7398 12.8628 28.826 13.0411V16.7411C28.7488 16.9087 28.6316 17.0547 28.4848 17.1665C28.338 17.2782 28.1661 17.3523 27.984 17.3821C27.084 17.5921 26.184 17.8241 25.276 18.0381C25.1975 18.0484 25.1237 18.081 25.0632 18.1321C25.0028 18.1831 24.9583 18.2505 24.935 18.3261C24.772 18.7651 24.585 19.1961 24.391 19.6261C24.3593 19.6836 24.3447 19.7489 24.3487 19.8144C24.3528 19.88 24.3755 19.943 24.414 19.9961C24.843 20.6961 25.264 21.4041 25.684 22.1101C25.7609 22.2007 25.8183 22.3062 25.8526 22.4201C25.887 22.5339 25.8975 22.6535 25.8835 22.7716C25.8695 22.8896 25.8313 23.0035 25.7713 23.1061C25.7114 23.2088 25.6309 23.298 25.535 23.3681C24.8456 24.0614 24.1546 24.7528 23.462 25.4421C23.3914 25.5378 23.3021 25.6182 23.1994 25.6782C23.0968 25.7383 22.983 25.7768 22.865 25.7914C22.747 25.806 22.6273 25.7964 22.5131 25.7631C22.3989 25.7299 22.2927 25.6738 22.201 25.5981C21.501 25.1821 20.801 24.7661 20.11 24.3421C20.0568 24.304 19.9939 24.2817 19.9285 24.278C19.8632 24.2743 19.7981 24.2893 19.741 24.3211C19.274 24.5351 18.794 24.7211 18.328 24.9361C18.2136 24.9898 18.1247 25.0859 18.08 25.2041C17.848 26.0941 17.621 26.9861 17.421 27.8841C17.396 28.0794 17.3224 28.2654 17.2069 28.4249C17.0914 28.5844 16.9378 28.7124 16.76 28.7971ZM20.605 15.1181C20.6514 13.9913 20.3625 12.8761 19.7749 11.9136C19.1873 10.951 18.3274 10.1844 17.3039 9.71076C16.2805 9.23709 15.1396 9.07764 14.0255 9.25259C12.9114 9.42754 11.8743 9.92903 11.0453 10.6936C10.2164 11.4582 9.6328 12.4515 9.36852 13.5478C9.10423 14.6441 9.17111 15.7942 9.56066 16.8525C9.9502 17.9108 10.6449 18.8298 11.5569 19.4931C12.4689 20.1565 13.5572 20.5344 14.684 20.5791C16.193 20.6389 17.6641 20.0975 18.7743 19.0736C19.8844 18.0497 20.5428 16.6271 20.605 15.1181Z" fill="#F7F8F8"/>
</g>
<defs>
<filter id="filter0_d_2_293" x="0.998718" y="0.976074" width="29.8273" height="29.821" filterUnits="userSpaceOnUse" color-interpolation-filters="sRGB">
<feFlood flood-opacity="0" result="BackgroundImageFix"/>
<feColorMatrix in="SourceAlpha" type="matrix" values="0 0 0 0 0 0 0 0 0 0 0 0 0 0 0 0 0 0 127 0" result="hardAlpha"/>
<feOffset dx="1" dy="1"/>
<feGaussianBlur stdDeviation="0.5"/>
<feColorMatrix type="matrix" values="0 0 0 0 0 0 0 0 0 0 0 0 0 0 0 0 0 0 0.161 0"/>
<feBlend mode="normal" in2="BackgroundImageFix" result="effect1_dropShadow_2_293"/>
<feBlend mode="normal" in="SourceGraphic" in2="effect1_dropShadow_2_293" result="shape"/>
</filter>
</defs>
</svg>
