<svg width="31" height="31" viewBox="0 0 31 31" fill="none" xmlns="http://www.w3.org/2000/svg">
<g filter="url(#filter0_d_2_191)">
<path d="M16.76 28.797H13.066C12.8984 28.7198 12.7524 28.6026 12.6406 28.4558C12.5289 28.309 12.4548 28.137 12.425 27.955C12.216 27.05 11.983 26.15 11.77 25.245C11.759 25.1666 11.7259 25.093 11.6745 25.0327C11.6231 24.9725 11.5556 24.9282 11.48 24.905C11.033 24.737 10.594 24.547 10.159 24.35C10.0936 24.3132 10.0191 24.2956 9.94408 24.2991C9.8691 24.3026 9.79665 24.3272 9.73497 24.37C9.06597 24.783 8.389 25.183 7.713 25.586C7.62153 25.6621 7.51554 25.7187 7.40148 25.7525C7.28741 25.7863 7.16763 25.7966 7.04949 25.7826C6.93134 25.7687 6.81728 25.7309 6.71422 25.6714C6.61115 25.612 6.52126 25.5323 6.45 25.437C5.75733 24.747 5.06596 24.0557 4.37596 23.363C4.28088 23.2917 4.20117 23.202 4.14159 23.0992C4.08201 22.9964 4.04379 22.8826 4.02922 22.7647C4.01466 22.6467 4.02404 22.5271 4.05681 22.4129C4.08958 22.2987 4.14508 22.1922 4.21996 22.1C4.62796 21.418 5.03597 20.735 5.45097 20.056C5.4888 20.002 5.51053 19.9384 5.51372 19.8726C5.5169 19.8067 5.50141 19.7414 5.46898 19.684C5.26898 19.233 5.06899 18.777 4.89299 18.313C4.87074 18.2417 4.82894 18.1781 4.77239 18.1293C4.71583 18.0805 4.64677 18.0485 4.57298 18.037C3.62632 17.8076 2.68031 17.5743 1.73497 17.337C1.62628 17.3245 1.52115 17.2906 1.42558 17.2373C1.33002 17.1841 1.24591 17.1125 1.17809 17.0266C1.11026 16.9408 1.06002 16.8424 1.03032 16.7371C1.00062 16.6318 0.992027 16.5216 1.00499 16.413C1.00499 15.3997 1.00499 14.3856 1.00499 13.371C0.991573 13.2624 0.999733 13.1522 1.02898 13.0467C1.05822 12.9412 1.10796 12.8425 1.1754 12.7563C1.24284 12.6701 1.32665 12.5981 1.42198 12.5443C1.51732 12.4905 1.62234 12.4561 1.731 12.443C2.667 12.206 3.60298 11.97 4.54198 11.743C4.62855 11.7292 4.70932 11.6907 4.77458 11.6322C4.83985 11.5737 4.88683 11.4975 4.90996 11.413C5.04296 11.04 5.19399 10.672 5.35899 10.313C5.39338 10.251 5.40945 10.1805 5.40538 10.1097C5.40131 10.0389 5.37725 9.97066 5.33598 9.91299C4.86998 9.14899 4.41199 8.37999 3.95299 7.61299C3.87561 7.51978 3.81803 7.41178 3.7838 7.29557C3.74957 7.17937 3.73939 7.0574 3.75389 6.93713C3.7684 6.81686 3.80727 6.70081 3.86815 6.59608C3.92903 6.49134 4.01063 6.40011 4.10796 6.32798C4.79196 5.64198 5.47695 4.95699 6.16295 4.27299C6.23404 4.17488 6.32469 4.09254 6.42912 4.03111C6.53355 3.96969 6.64953 3.93052 6.76982 3.91606C6.89011 3.90159 7.01209 3.91215 7.1281 3.94708C7.24411 3.982 7.35164 4.04052 7.44396 4.11898C8.18896 4.56398 8.92996 5.01899 9.68096 5.44999C9.79494 5.50427 9.92573 5.51144 10.045 5.46998C10.531 5.27998 11.004 5.05399 11.491 4.86999C11.5622 4.8475 11.6258 4.80551 11.6744 4.74877C11.723 4.69204 11.7547 4.62284 11.766 4.54899C11.9946 3.60232 12.228 2.65632 12.466 1.71098C12.4788 1.60225 12.5128 1.4971 12.5663 1.40157C12.6198 1.30603 12.6916 1.22199 12.7776 1.15427C12.8637 1.08654 12.9623 1.03646 13.0677 1.0069C13.1731 0.977335 13.2833 0.968872 13.392 0.981988C14.406 0.981988 15.42 0.981988 16.434 0.981988C16.6535 0.955449 16.8744 1.01711 17.0484 1.15343C17.2225 1.28975 17.3352 1.48957 17.362 1.70899C17.6 2.65365 17.8333 3.59966 18.062 4.54699C18.073 4.6209 18.1045 4.69023 18.1529 4.74714C18.2014 4.80405 18.2648 4.84626 18.336 4.86898C18.784 5.03498 19.222 5.22598 19.657 5.42298C19.7191 5.45722 19.7897 5.47314 19.8605 5.4689C19.9313 5.46465 19.9994 5.4404 20.057 5.39898C20.765 4.96398 21.481 4.54098 22.196 4.11498C22.287 4.03848 22.3928 3.9815 22.5068 3.94757C22.6207 3.91364 22.7404 3.90349 22.8584 3.91774C22.9765 3.93199 23.0904 3.97035 23.193 4.03043C23.2956 4.0905 23.3848 4.17103 23.455 4.26699C24.141 4.95099 24.826 5.63566 25.51 6.32099C25.6114 6.39154 25.6969 6.48263 25.7609 6.58836C25.8248 6.69408 25.8658 6.81207 25.8812 6.93467C25.8965 7.05727 25.8859 7.18173 25.85 7.29997C25.8142 7.41821 25.7538 7.52758 25.673 7.62098C25.251 8.32698 24.831 9.03398 24.4 9.73498C24.3585 9.79256 24.3343 9.86071 24.3301 9.93151C24.3258 10.0023 24.3417 10.0729 24.376 10.135C24.576 10.578 24.751 11.035 24.956 11.475C25.0092 11.5895 25.105 11.6788 25.223 11.724C26.113 11.957 27.005 12.183 27.903 12.384C28.0997 12.407 28.2874 12.4793 28.4487 12.5941C28.6101 12.709 28.7398 12.8627 28.826 13.041V16.741C28.7488 16.9085 28.6316 17.0546 28.4848 17.1663C28.338 17.2781 28.1661 17.3521 27.984 17.382C27.084 17.592 26.184 17.824 25.276 18.038C25.1975 18.0483 25.1237 18.0809 25.0632 18.132C25.0028 18.183 24.9583 18.2504 24.935 18.326C24.772 18.765 24.585 19.196 24.391 19.626C24.3593 19.6835 24.3447 19.7488 24.3487 19.8143C24.3528 19.8798 24.3755 19.9428 24.414 19.996C24.843 20.696 25.264 21.404 25.684 22.11C25.7609 22.2006 25.8183 22.3061 25.8526 22.4199C25.887 22.5337 25.8975 22.6534 25.8835 22.7714C25.8695 22.8895 25.8313 23.0034 25.7713 23.106C25.7114 23.2087 25.6309 23.2978 25.535 23.368C24.8456 24.0613 24.1546 24.7526 23.462 25.442C23.3914 25.5377 23.3021 25.618 23.1994 25.6781C23.0968 25.7381 22.983 25.7766 22.865 25.7912C22.747 25.8058 22.6273 25.7962 22.5131 25.763C22.3989 25.7298 22.2927 25.6736 22.201 25.598C21.501 25.182 20.801 24.766 20.11 24.342C20.0568 24.3039 19.9939 24.2816 19.9285 24.2779C19.8632 24.2742 19.7981 24.2891 19.741 24.321C19.274 24.535 18.794 24.721 18.328 24.936C18.2136 24.9897 18.1247 25.0858 18.08 25.204C17.848 26.094 17.621 26.986 17.421 27.884C17.396 28.0793 17.3224 28.2652 17.2069 28.4248C17.0914 28.5843 16.9378 28.7123 16.76 28.797V28.797ZM20.605 15.118C20.6514 13.9912 20.3625 12.876 19.7749 11.9135C19.1873 10.9509 18.3274 10.1843 17.3039 9.71064C16.2805 9.23697 15.1396 9.07751 14.0255 9.25247C12.9114 9.42742 11.8743 9.92891 11.0453 10.6935C10.2164 11.458 9.6328 12.4513 9.36852 13.5477C9.10423 14.644 9.17112 15.7941 9.56066 16.8524C9.9502 17.9107 10.6449 18.8297 11.5569 19.493C12.4689 20.1564 13.5572 20.5343 14.684 20.579C16.193 20.6388 17.6641 20.0973 18.7743 19.0734C19.8844 18.0495 20.5428 16.6269 20.605 15.118V15.118Z" fill="#88A1D2"/>
</g>
<defs>
<filter id="filter0_d_2_191" x="0.998718" y="0.975952" width="29.8273" height="29.821" filterUnits="userSpaceOnUse" color-interpolation-filters="sRGB">
<feFlood flood-opacity="0" result="BackgroundImageFix"/>
<feColorMatrix in="SourceAlpha" type="matrix" values="0 0 0 0 0 0 0 0 0 0 0 0 0 0 0 0 0 0 127 0" result="hardAlpha"/>
<feOffset dx="1" dy="1"/>
<feGaussianBlur stdDeviation="0.5"/>
<feColorMatrix type="matrix" values="0 0 0 0 0 0 0 0 0 0 0 0 0 0 0 0 0 0 0.161 0"/>
<feBlend mode="normal" in2="BackgroundImageFix" result="effect1_dropShadow_2_191"/>
<feBlend mode="normal" in="SourceGraphic" in2="effect1_dropShadow_2_191" result="shape"/>
</filter>
</defs>
</svg>
