<svg width="18" height="12" viewBox="0 0 18 12" fill="none" xmlns="http://www.w3.org/2000/svg">
<path d="M6.68185 3.02477C6.82838 3.44518 7.10209 3.80958 7.46503 4.06743C7.82796 4.32529 8.26213 4.46382 8.70734 4.46382C9.15255 4.46382 9.58674 4.32529 9.94968 4.06743C10.3126 3.80958 10.5863 3.44518 10.7328 3.02477V3.01877C10.945 2.24096 11.4303 1.5656 12.0998 1.11637C12.7692 0.667134 13.5782 0.474089 14.3784 0.57258C15.1786 0.671072 15.9165 1.05451 16.4571 1.65268C16.9976 2.25085 17.3046 3.02372 17.3218 3.82977V3.97877C17.3218 7.87177 13.4648 11.0278 8.70584 11.0278C3.94684 11.0278 0.0898438 7.87177 0.0898438 3.97877V3.82977C0.106712 3.02326 0.413708 2.24985 0.954529 1.65131C1.49535 1.05276 2.23378 0.669189 3.03445 0.570897C3.83513 0.472605 4.6444 0.66618 5.31393 1.11614C5.98347 1.5661 6.4684 2.24229 6.67984 3.02077L6.68185 3.02477Z" fill="#99AFDA"/>
</svg>
