<svg width="29" height="21" viewBox="0 0 29 21" fill="none" xmlns="http://www.w3.org/2000/svg">
<path d="M3.46096 20.2011C10.811 20.1638 18.1613 20.1638 25.512 20.2011C25.9013 20.2132 26.289 20.145 26.6509 20.0009C27.0128 19.8568 27.3412 19.6399 27.6157 19.3635C27.8902 19.0871 28.1049 18.7572 28.2466 18.3943C28.3882 18.0315 28.4537 17.6433 28.439 17.2541C28.4157 12.6641 28.4157 8.07375 28.439 3.48309C28.4555 3.09355 28.3913 2.70481 28.2505 2.34123C28.1097 1.97765 27.8953 1.64705 27.6208 1.37019C27.3463 1.09333 27.0176 0.876155 26.6552 0.732279C26.2928 0.588404 25.9046 0.520927 25.515 0.534083C21.855 0.585083 18.193 0.551081 14.532 0.551081C10.843 0.551081 7.15298 0.586083 3.46398 0.534083C3.07445 0.52098 2.6864 0.588372 2.32409 0.732035C1.96178 0.875699 1.63297 1.09254 1.35827 1.36903C1.08356 1.64552 0.868845 1.97571 0.727529 2.33894C0.586212 2.70217 0.521353 3.09064 0.536977 3.48008C0.560977 8.07008 0.560977 12.6608 0.536977 17.2521C0.522441 17.6411 0.587947 18.029 0.729421 18.3917C0.870894 18.7544 1.08531 19.0842 1.35943 19.3607C1.63354 19.6372 1.9615 19.8544 2.32299 19.999C2.68448 20.1435 3.0718 20.2123 3.46096 20.2011ZM23.961 2.78608C23.833 2.90808 23.745 3.00408 23.644 3.08608C20.6906 5.43009 17.7383 7.77509 14.787 10.1211C14.576 10.2891 14.445 10.3211 14.217 10.1401C11.2476 7.77009 8.27364 5.40609 5.29497 3.04809C5.21197 2.98309 5.13898 2.90609 5.01198 2.78909L23.961 2.78608ZM2.76497 4.30108C2.76497 4.19308 2.77698 4.08609 2.78798 3.90109C3.40398 4.38809 3.96297 4.82808 4.51897 5.27108C7.5723 7.69575 10.6253 10.1201 13.678 12.5441C13.7889 12.6542 13.9209 12.7408 14.0661 12.7986C14.2113 12.8564 14.3667 12.8843 14.523 12.8806C14.6793 12.8768 14.8331 12.8416 14.9754 12.7769C15.1177 12.7122 15.2454 12.6194 15.351 12.5041C18.813 9.75608 22.274 7.00776 25.734 4.25909C25.864 4.15909 25.995 4.05909 26.188 3.90509C26.199 4.10509 26.211 4.24208 26.211 4.37408C26.211 8.64075 26.211 12.9074 26.211 17.1741C26.211 17.8401 26.078 17.9741 25.435 17.9741H3.51198C2.91198 17.9741 2.76497 17.8291 2.76497 17.2291C2.76297 12.9164 2.76297 8.60708 2.76497 4.30108Z" fill="#C7C7C7"/>
</svg>
