<svg width="69" height="24" viewBox="0 0 69 24" fill="none" xmlns="http://www.w3.org/2000/svg">
<path d="M0 0H59C64.5228 0 69 4.47715 69 10V24H10C4.47715 24 0 19.5228 0 14V0Z" fill="#C04B30"/>
<path d="M33.9587 16.2998H31.5602C30.7174 16.2998 30.2961 15.8784 30.2961 15.0573V8.942H31.3225V14.8412C31.3225 15.1437 31.5062 15.295 31.8735 15.295H33.7643C33.9803 15.295 34.1316 15.1869 34.2288 14.9816C34.3369 14.7439 34.4233 14.0308 34.4665 12.8208L35.4389 13.1449C35.3525 14.6791 35.1904 15.5867 34.9527 15.8892C34.7367 16.1593 34.4017 16.2998 33.9587 16.2998ZM28.6646 10.0116L29.6478 10.2169C29.3561 12.1401 28.9347 13.804 28.3945 15.1977L27.5085 14.6467C28.0488 13.1989 28.4269 11.6539 28.6646 10.0116ZM35.9251 9.71991C36.5518 11.1677 37.1136 12.7019 37.589 14.3442L36.649 14.7655C36.1304 12.9936 35.5578 11.4162 34.9311 10.0548L35.9251 9.71991ZM32.0788 6.66228C33.0296 7.75352 33.7643 8.7043 34.2829 9.52543L33.4185 10.1089C32.8783 9.22291 32.1544 8.25052 31.236 7.1917L32.0788 6.66228ZM39.0368 7.62387H40.3441V6.77033H41.3165V7.62387H42.4077V8.53143H41.3165V9.41739H41.7703C42.3321 8.72591 42.8183 7.9588 43.2289 7.13767L44.0284 7.54824C43.6718 8.21811 43.2937 8.84476 42.8939 9.41739H43.5206V10.3682H42.1592C41.9323 10.6275 41.7055 10.8868 41.4678 11.1245H43.1748V11.8592C42.8291 12.2805 42.4077 12.7019 41.9107 13.1233V13.4582C42.613 13.3502 43.2289 13.2205 43.7583 13.0801V14.0417C43.2721 14.1713 42.6562 14.2902 41.9107 14.3982V15.4462C41.9107 16.1809 41.5434 16.5483 40.8303 16.5483H39.8255L39.5662 15.6299C39.9335 15.6731 40.2253 15.7055 40.4413 15.7055C40.7655 15.7055 40.9275 15.5218 40.9275 15.1761V14.5278C40.2361 14.6035 39.4798 14.6791 38.6478 14.7547L38.5074 13.7715C39.3933 13.7283 40.2037 13.6635 40.9275 13.5879V12.9288C41.2949 12.6695 41.6406 12.367 41.9648 12.032H40.4522C39.966 12.421 39.4582 12.7559 38.9287 13.0477L38.2913 12.3238C39.2853 11.7835 40.1604 11.1245 40.9167 10.3682H38.529V9.41739H40.3441V8.53143H39.0368V7.62387ZM45.1412 9.23372C44.7955 10.2277 44.3525 11.0488 43.8123 11.7187L43.1965 10.9624C43.942 9.89278 44.4498 8.46661 44.7199 6.67309L45.7247 6.84596C45.6382 7.34296 45.541 7.80754 45.433 8.25052H48.0908V9.23372H47.4966C47.421 10.9408 47.0644 12.4102 46.427 13.6203C46.9672 14.4306 47.6262 15.1545 48.3825 15.7812L47.6803 16.6131C46.9672 15.9972 46.3621 15.3058 45.8435 14.5495C45.2277 15.3814 44.4606 16.0729 43.553 16.6347L42.9696 15.6947C43.9203 15.1653 44.6875 14.4738 45.2709 13.6203C44.8603 12.8748 44.5362 12.0753 44.2877 11.2325L45.0764 10.7787C45.2709 11.427 45.5194 12.0428 45.8219 12.6155C46.2541 11.6431 46.4918 10.5086 46.5566 9.23372H45.1412ZM49.5926 13.7607L50.4246 13.8688C50.3597 14.8844 50.2085 15.7812 49.9816 16.5591L49.1064 16.289C49.3657 15.5543 49.5278 14.7115 49.5926 13.7607ZM51.5158 13.6743C51.6671 14.3442 51.8183 15.0789 51.948 15.8676L51.0836 16.0729C50.9864 15.2301 50.8783 14.4738 50.7487 13.8256L51.5158 13.6743ZM52.391 10.8652C52.6178 11.481 52.8231 12.1833 53.0068 12.972L52.2613 13.1665C52.2289 13.0152 52.1965 12.864 52.1641 12.7343C51.2241 13.0477 50.3381 13.2529 49.5062 13.361L49.2577 12.4858C49.4306 12.421 49.571 12.3238 49.6899 12.2157C49.9924 11.8916 50.3597 11.3514 50.8027 10.5735C50.3489 10.6491 49.8843 10.7247 49.409 10.8112L49.1605 9.936C49.3117 9.87117 49.4522 9.75233 49.5602 9.57946C50.014 8.71511 50.4138 7.76433 50.7487 6.7055L51.6671 7.07285C51.2133 8.21811 50.7379 9.14728 50.2625 9.87117C50.5974 9.81715 50.9324 9.76313 51.2781 9.6983C51.4942 9.28774 51.7103 8.84476 51.948 8.36937L52.8447 8.7043C51.9588 10.3898 51.2133 11.5999 50.619 12.3454C51.0728 12.2589 51.5266 12.1509 51.9804 12.0212C51.894 11.6971 51.7967 11.3838 51.6887 11.0921L52.391 10.8652ZM52.5422 13.3826C52.7799 13.7932 52.9852 14.2361 53.1581 14.7115L52.4018 15.0573C52.2289 14.517 52.0452 14.0417 51.8399 13.6311L52.5422 13.3826ZM52.8015 7.52663H55.3297V6.75952H56.3345V7.52663H58.9276V8.4558H56.3345V9.16889H58.5278V13.1773H57.1773C57.5878 13.966 58.2577 14.6791 59.1761 15.3058L58.5062 16.1377C57.5014 15.2517 56.7883 14.2577 56.367 13.1773H56.3345V16.5807H55.3513V13.1773H55.3189C54.8435 14.4198 54.0872 15.4462 53.0284 16.2457L52.499 15.3598C53.4066 14.7763 54.0764 14.0417 54.5194 13.1773H53.1905V9.16889H55.3297V8.4558H52.8015V7.52663ZM57.6635 12.3346V10.0116H56.2481V12.3346H57.6635ZM55.427 12.3346V10.0116H54.0656V12.3346H55.427ZM56.7991 10.379L57.4258 10.541C57.3177 11.1245 57.1773 11.6323 57.026 12.0753L56.4534 11.87C56.583 11.4702 56.6911 10.9732 56.7991 10.379ZM54.8435 10.4546C54.9948 10.8652 55.1245 11.3514 55.2433 11.9024L54.6599 12.0537C54.5518 11.5567 54.4114 11.0921 54.2601 10.6383L54.8435 10.4546Z" fill="#FFF4F2"/>
<path d="M14.8926 17.9214C17.5531 17.9214 19.7099 15.7645 19.7099 13.104C19.7099 10.4434 17.5531 8.28662 14.8926 8.28662C12.232 8.28662 10.0752 10.4434 10.0752 13.104C10.0752 15.7645 12.232 17.9214 14.8926 17.9214Z" stroke="#FFF4F2" stroke-width="0.963474"/>
<path d="M15.2136 14.0674H16.4983" stroke="#FFF4F2" stroke-width="0.963474" stroke-linecap="round"/>
<path d="M17.7829 11.8194C17.7829 12.3513 17.4952 12.7829 17.1406 12.7829C16.786 12.7829 16.4983 12.3513 16.4983 11.8194C16.4983 11.2876 16.786 10.856 17.1406 10.856C17.4952 10.856 17.7829 11.2876 17.7829 11.8194Z" fill="#FFF4F2"/>
<path d="M14.5715 12.7829C14.9263 12.7829 15.2138 12.3515 15.2138 11.8194C15.2138 11.2873 14.9263 10.856 14.5715 10.856C14.2168 10.856 13.9292 11.2873 13.9292 11.8194C13.9292 12.3515 14.2168 12.7829 14.5715 12.7829Z" fill="#FFF4F2"/>
<path d="M19.7099 8.28662L18.4253 9.57125" stroke="#FFF4F2" stroke-width="0.963474" stroke-linecap="round"/>
<path d="M20.3399 5.30197C20.3664 5.23509 20.4123 5.1777 20.4717 5.13726C20.5312 5.09682 20.6014 5.0752 20.6733 5.0752C20.7452 5.0752 20.8155 5.09682 20.8749 5.13726C20.9344 5.1777 20.9803 5.23509 21.0067 5.30197L21.4267 6.36821C21.4634 6.46006 21.5359 6.53329 21.6291 6.5699L22.6947 6.98997C22.9966 7.10944 22.9966 7.53723 22.6947 7.6567L21.6284 8.07677C21.5828 8.09493 21.5413 8.12226 21.5066 8.15705C21.472 8.19185 21.4448 8.23339 21.4267 8.2791L21.0067 9.3447C20.9803 9.41158 20.9344 9.46897 20.8749 9.50941C20.8155 9.54985 20.7452 9.57147 20.6733 9.57147C20.6014 9.57147 20.5312 9.54985 20.4717 9.50941C20.4123 9.46897 20.3664 9.41158 20.3399 9.3447L19.9199 8.27846C19.9017 8.2328 19.8744 8.19135 19.8396 8.15667C19.8048 8.12198 19.7633 8.09479 19.7175 8.07677L18.6519 7.6567C18.5851 7.63029 18.5277 7.58438 18.4872 7.52493C18.4468 7.46548 18.4252 7.39524 18.4252 7.32334C18.4252 7.25143 18.4468 7.18119 18.4872 7.12174C18.5277 7.06229 18.5851 7.01638 18.6519 6.98997L19.7182 6.5699C19.7638 6.55174 19.8053 6.52441 19.84 6.48962C19.8747 6.45482 19.9019 6.41328 19.9199 6.36757L20.3399 5.30197Z" stroke="#FFF4F2" stroke-width="0.963474"/>
</svg>
