<svg width="35" height="35" viewBox="0 0 35 35" fill="none" xmlns="http://www.w3.org/2000/svg">
<path d="M18.1199 5.5542V5.55518C18.3662 5.60189 18.5564 5.63829 18.7419 5.68115C19.6645 5.93266 20.5067 6.41213 21.1931 7.07178L21.4792 7.36768C22.1228 8.08234 22.5736 8.94643 22.7927 9.87842L22.8728 10.2817L22.8738 10.2876C23.1019 11.6346 22.8123 13.0181 22.0632 14.1606L22.5642 14.4897L22.0623 14.1606L22.0554 14.1724C21.6445 14.8318 21.0997 15.3962 20.4578 15.8296L20.1775 16.0073C19.4132 16.459 18.5512 16.7201 17.6648 16.7681H17.6541L17.6433 16.769C17.531 16.7791 17.4135 16.7788 17.2673 16.7788C16.3193 16.7766 15.3892 16.5364 14.5623 16.0815L14.2146 15.8735C13.4187 15.358 12.7678 14.6512 12.3191 13.8208L12.1394 13.4575C11.7662 12.6035 11.6076 11.6732 11.6755 10.7476L11.7185 10.3501C11.8517 9.4257 12.2092 8.55017 12.7566 7.79834L13.0027 7.48389C13.8054 6.52725 14.9077 5.86904 16.1306 5.61572L16.1296 5.61475L16.5125 5.54541L16.7361 5.50537L17.7888 5.49951L18.1199 5.5542ZM17.2683 6.67432C16.7539 6.67589 16.2439 6.76654 15.7615 6.94189L15.5564 7.02197C15.0825 7.22129 14.647 7.50087 14.2693 7.84814L14.1111 8.00146C13.6987 8.42012 13.3736 8.91634 13.1541 9.46143C12.9352 10.0049 12.8255 10.5864 12.8318 11.1724V11.1733C12.837 12.2845 13.2557 13.3512 14.0017 14.1675L14.155 14.3276C14.9445 15.1098 15.9953 15.5681 17.1003 15.6177L17.322 15.6216C18.4332 15.6163 19.4999 15.1978 20.3162 14.4517L20.4753 14.2983C21.2575 13.5088 21.7158 12.458 21.7654 11.353L21.7703 11.1313C21.7726 10.6195 21.6858 10.1118 21.5154 9.63037L21.4373 9.42529C21.214 8.88191 20.8849 8.38841 20.4695 7.97314C20.1059 7.60977 19.6828 7.3122 19.2185 7.09424L19.0173 7.00635C18.475 6.78382 17.8936 6.67097 17.3074 6.67432H17.2683Z" fill="#C7C7C7" stroke="#C7C7C7" stroke-width="1.2"/>
<path d="M22.3828 18.0503H22.3926C22.5358 18.0511 22.6792 18.062 22.8213 18.0835V18.0845L22.8311 18.0854C23.4414 18.1682 24.0259 18.3804 24.5459 18.7065L24.7656 18.853C25.2666 19.2116 25.684 19.6729 25.9912 20.2046L26.1162 20.437L26.1211 20.4468C26.7401 21.6342 27.1064 22.9371 27.1982 24.2729L27.1992 24.2817L27.2002 24.2915C27.253 24.8168 27.2841 25.3439 27.2939 25.8716L27.2969 26.3989V26.4097C27.3041 27.2913 26.9961 28.1446 26.4316 28.8169L26.3154 28.9487C25.6772 29.6394 24.7994 30.0611 23.8613 30.1274H23.8545L23.8467 30.1284C23.5621 30.1558 23.281 30.1694 22.999 30.1694H11.7637L11.752 30.1704C10.9468 30.2012 10.1515 30.0062 9.4541 29.6118L9.16113 29.4302C8.78668 29.1772 8.46632 28.8531 8.21777 28.4771L8.11523 28.313C7.88769 27.9227 7.73953 27.4918 7.67871 27.0454L7.6582 26.853L7.65723 26.8423L7.62793 26.479C7.50606 24.6596 7.78787 22.8341 8.45605 21.1343L8.45996 21.1235L8.46387 21.1138C8.84091 20.0385 9.59325 19.1342 10.583 18.5698C11.1331 18.2702 11.7421 18.0975 12.3652 18.0601L12.6338 18.0522H12.6904C12.8644 18.0669 13.0344 18.1106 13.1924 18.1831L13.3496 18.2671L13.3623 18.2749L13.375 18.2817C13.4776 18.3379 13.579 18.3986 13.6826 18.4634L14.0039 18.6704L14.415 18.936C15.3118 19.543 16.3698 19.8676 17.4531 19.8677C18.5359 19.8677 19.5937 19.5433 20.4902 18.937L20.5859 18.8765L20.5869 18.8774C20.7102 18.8022 20.8367 18.7252 20.9629 18.644L21.3389 18.3872L21.3428 18.3843C21.6051 18.1878 21.9182 18.0733 22.2432 18.0532L22.3828 18.0503ZM22.1455 19.3013C21.9091 19.4236 21.6792 19.5586 21.458 19.7065L21.0205 19.9868L21.0166 19.9888C20.2046 20.5016 19.2945 20.8359 18.3467 20.9702L17.9385 21.0151H17.9365C17.7726 21.0289 17.6056 21.0336 17.4365 21.0337C16.2141 21.0214 15.0195 20.68 13.9775 20.0464L13.7705 19.9165L13.7637 19.9116L13.4199 19.6919C13.2302 19.5694 13.0346 19.444 12.833 19.3218L12.6855 19.2319L12.5137 19.2349C12.0743 19.2414 11.6429 19.3467 11.251 19.5415L11.0732 19.6372L11.0615 19.645C10.4092 20.0652 9.90212 20.6722 9.60449 21.3833L9.49902 21.6685C8.96458 23.1095 8.71763 24.6403 8.77148 26.1743L8.78613 26.481C8.78535 26.8512 8.86871 27.216 9.03125 27.5474L9.10938 27.6938C9.3037 28.0295 9.5755 28.3127 9.90137 28.52L10.0439 28.604L10.0488 28.606C10.5704 28.8833 11.1561 29.0155 11.7461 28.9917V28.9927H21.0303L21.0312 28.9937V28.9927C21.8061 28.9938 22.5811 28.9914 23.3564 28.9829C23.6775 29.0054 23.9997 28.9695 24.3066 28.8745L24.4434 28.8276C24.8059 28.6929 25.1348 28.4794 25.4043 28.2017C25.64 27.9588 25.8255 27.6721 25.9512 27.3589L26.001 27.2222C26.1196 26.8706 26.1604 26.4981 26.123 26.1294C26.1208 25.5118 26.0884 24.8942 26.0244 24.2798H26.0234C25.936 23.1688 25.6335 22.0859 25.1328 21.0903H25.1338C24.9 20.5661 24.5264 20.1157 24.0547 19.7886C23.5831 19.4616 23.0308 19.2702 22.458 19.2349L22.292 19.2251L22.1455 19.3013Z" fill="#C7C7C7" stroke="#C7C7C7" stroke-width="1.2"/>
</svg>
