<svg width="35" height="35" viewBox="0 0 35 35" fill="none" xmlns="http://www.w3.org/2000/svg">
<path d="M30.2004 17.2305C30.1933 18.6244 29.7084 19.9708 28.8323 21.0479L28.6526 21.2598C27.6629 22.3692 26.3016 23.0792 24.8254 23.2559C23.4413 23.4214 22.0448 23.1072 20.8674 22.3711L20.635 22.2188C19.488 21.4268 18.6495 20.2673 18.2542 18.9365L18.1809 18.668L18.1799 18.666C18.1674 18.6165 18.1239 18.4017 17.9797 18.2285C17.8356 18.0556 17.6515 17.9764 17.4758 17.9482L17.304 17.9355H17.303C15.6222 17.9448 13.9407 17.9414 12.2561 17.9414H12.2473L12.2375 17.9424C12.1775 17.9443 12.1243 17.9509 12.093 17.9551C12.0581 17.9598 12.0339 17.9634 12.0002 17.9668L11.4612 18.0215V18.5635C11.4612 19.4702 11.4721 20.3237 11.4612 21.1865V21.2021C11.4626 21.3226 11.4349 21.4415 11.3801 21.5488C11.339 21.6293 11.2836 21.7014 11.217 21.7617L11.1467 21.8184C11.0482 21.8878 10.9342 21.9326 10.8147 21.9482C10.725 21.96 10.6337 21.9554 10.5461 21.9346L10.4602 21.9082L10.4524 21.9053C10.3122 21.8555 10.1911 21.7634 10.1057 21.6416C10.0417 21.5501 9.99986 21.4454 9.98364 21.3359L9.97583 21.2256V17.9648H6.10571V19.8252C6.10571 20.2266 6.11302 20.5945 6.10181 20.9561L6.08325 21.3164C6.07103 21.479 6.00122 21.6317 5.88599 21.7471C5.77059 21.8625 5.61709 21.9331 5.45435 21.9453L5.4397 21.9463L5.42407 21.9482C5.30136 21.9639 5.17752 21.9466 5.0647 21.8994L4.95532 21.8428C4.81792 21.7544 4.71682 21.6204 4.66724 21.4648C4.62955 21.3245 4.61145 21.1795 4.6145 21.0342V21.0186C4.60776 19.8188 4.60944 18.6184 4.6145 17.417V17.3711L4.60767 17.3252C4.59429 17.2357 4.59662 17.1448 4.6145 17.0566L4.63794 16.9697C4.66608 16.8838 4.70841 16.8032 4.76392 16.7324L4.82446 16.665C4.88812 16.6009 4.96192 16.5481 5.04321 16.5098L5.1272 16.4766C5.24151 16.4382 5.36327 16.4264 5.48267 16.4434L5.52466 16.4492H17.175C17.3135 16.4492 17.5701 16.4427 17.802 16.2842C18.0514 16.1137 18.1489 15.8586 18.1975 15.667V15.666C18.5476 14.3182 19.3473 13.1335 20.4602 12.3057L20.6868 12.1445C21.8419 11.3644 23.2272 11.005 24.6106 11.1211L24.887 11.1514C26.2692 11.3311 27.5459 11.9777 28.5061 12.9805L28.6936 13.1855C29.6107 14.2351 30.1384 15.5651 30.1946 16.9521L30.2004 17.2305ZM28.6145 18.084C28.7703 17.3026 28.72 16.4962 28.4719 15.7432L28.3538 15.4238C28.0058 14.5824 27.4162 13.8628 26.6594 13.3564C25.9971 12.9134 25.2325 12.6509 24.4417 12.5918L24.1018 12.5791H24.0999C22.9565 12.5825 21.8577 13.0098 21.0139 13.7734L20.8479 13.9307C20.0393 14.7387 19.5608 15.816 19.5002 16.9521L19.4944 17.1807V17.1826C19.4942 17.9795 19.7005 18.7609 20.0911 19.4512L20.2698 19.7412C20.7122 20.4036 21.3178 20.938 22.0256 21.2949L22.3352 21.4375C23.0713 21.7427 23.8723 21.8505 24.6594 21.7539L24.9954 21.7002C25.8883 21.5229 26.7087 21.0848 27.3528 20.4414C27.9165 19.8781 28.3233 19.1792 28.5354 18.415L28.6145 18.084Z" fill="#C7C7C7" stroke="#C7C7C7" stroke-width="1.2"/>
</svg>
