<svg width="35" height="35" viewBox="0 0 35 35" fill="none" xmlns="http://www.w3.org/2000/svg">
<path d="M28.21 7C28.8634 6.99979 29.4928 7.24991 29.9719 7.70021C30.4511 8.15052 30.7445 8.76773 30.7936 9.42813L30.8 9.625V25.375C30.8002 26.0373 30.5534 26.6751 30.1091 27.1607C29.6648 27.6463 29.0559 27.9438 28.4043 27.9934L28.21 28H7.49002C6.8366 28.0002 6.20724 27.7501 5.72811 27.2998C5.24899 26.8495 4.95551 26.2323 4.9065 25.5719L4.90002 25.375V9.625C4.89982 8.96274 5.1466 8.32488 5.5909 7.83928C6.03521 7.35368 6.64419 7.05623 7.29577 7.00656L7.49002 7H28.21ZM28.21 11.4809L19.2227 20.5896C18.8585 20.9583 18.3648 21.1654 17.85 21.1654C17.3353 21.1654 16.8415 20.9583 16.4773 20.5896L7.49002 11.4809V25.375H28.21V11.4809ZM26.3789 9.625H9.32115L17.85 18.2691L26.3789 9.625Z" fill="#C7C7C7"/>
</svg>
