<svg width="69" height="24" viewBox="0 0 69 24" fill="none" xmlns="http://www.w3.org/2000/svg">
<path d="M0 0H59C64.5228 0 69 4.47715 69 10V24H10C4.47715 24 0 19.5228 0 14V0Z" fill="#506EA8"/>
<path d="M33.9587 16.2998H31.5602C30.7174 16.2998 30.2961 15.8784 30.2961 15.0573V8.942H31.3225V14.8412C31.3225 15.1437 31.5062 15.295 31.8735 15.295H33.7643C33.9803 15.295 34.1316 15.1869 34.2288 14.9816C34.3369 14.7439 34.4233 14.0308 34.4665 12.8208L35.4389 13.1449C35.3525 14.6791 35.1904 15.5867 34.9527 15.8892C34.7367 16.1593 34.4017 16.2998 33.9587 16.2998ZM28.6646 10.0116L29.6478 10.2169C29.3561 12.1401 28.9347 13.804 28.3945 15.1977L27.5085 14.6467C28.0488 13.1989 28.4269 11.6539 28.6646 10.0116ZM35.9251 9.71991C36.5518 11.1677 37.1136 12.7019 37.589 14.3442L36.649 14.7655C36.1304 12.9936 35.5578 11.4162 34.9311 10.0548L35.9251 9.71991ZM32.0788 6.66228C33.0296 7.75352 33.7643 8.7043 34.2829 9.52543L33.4185 10.1089C32.8783 9.22291 32.1544 8.25052 31.236 7.1917L32.0788 6.66228ZM42.3321 7.05124H47.7991V12.2157H45.5842V13.2962H47.9396V14.2469H45.5842V15.3706H48.3177V16.3538H41.7811V15.3706H44.5686V14.2469H42.2025V13.2962H44.5686V12.2157H42.3321V7.05124ZM46.8159 11.3082V10.0765H45.5842V11.3082H46.8159ZM44.5686 11.3082V10.0765H43.3153V11.3082H44.5686ZM43.3153 9.1905H44.5686V7.9588H43.3153V9.1905ZM45.5842 7.9588V9.1905H46.8159V7.9588H45.5842ZM38.6046 10.6059H39.6742V8.29374H38.4425V7.32135H41.9323V8.29374H40.7115V10.6059H41.8027V11.5891H40.7115V13.7499C41.0788 13.6203 41.4353 13.4906 41.7811 13.3394V14.3334C40.7871 14.7223 39.7283 15.0573 38.5938 15.3274L38.3453 14.3442C38.7991 14.2685 39.2421 14.1713 39.6742 14.0633V11.5891H38.6046V10.6059ZM53.2877 7.99122V11.373H50.5326V12.2913H53.4282V16.3214H52.4342V15.9H50.5326V16.4942H49.5386V7.99122H50.619C50.7703 7.58065 50.8892 7.15928 50.9648 6.72711L52.0344 6.86757C51.948 7.26733 51.8399 7.64548 51.6995 7.99122H53.2877ZM50.5326 15.0032H52.4342V13.1881H50.5326V15.0032ZM50.5326 10.4654H52.2829V8.89878H50.5326V10.4654ZM55.8375 8.02363H53.7415V7.05124H58.9276V8.02363H56.864V9.02843H58.6899V14.3982C58.6899 15.0465 58.3658 15.3814 57.7391 15.3814H56.864V16.6563H55.8375V9.95761H54.9624V15.457H53.9792V9.02843H55.8375V8.02363ZM56.864 14.4306L57.415 14.4522C57.6095 14.4522 57.7067 14.355 57.7067 14.1821V9.95761H56.864V14.4306Z" fill="#EDF2FD"/>
<path d="M14.8912 17.6476C17.5513 17.6476 19.7077 15.4912 19.7077 12.8311C19.7077 10.1711 17.5513 8.01465 14.8912 8.01465C12.2311 8.01465 10.0747 10.1711 10.0747 12.8311C10.0747 15.4912 12.2311 17.6476 14.8912 17.6476Z" stroke="#EDF2FD" stroke-width="0.959062"/>
<path d="M15.2124 13.7944H16.4968" stroke="#EDF2FD" stroke-width="0.959062" stroke-linecap="round"/>
<path d="M17.7811 11.5463C17.7811 12.078 17.4934 12.5096 17.1389 12.5096C16.7844 12.5096 16.4967 12.078 16.4967 11.5463C16.4967 11.0146 16.7844 10.583 17.1389 10.583C17.4934 10.583 17.7811 11.0146 17.7811 11.5463Z" fill="#EDF2FD"/>
<path d="M14.5701 12.5096C14.9247 12.5096 15.2123 12.0783 15.2123 11.5463C15.2123 11.0143 14.9247 10.583 14.5701 10.583C14.2154 10.583 13.9279 11.0143 13.9279 11.5463C13.9279 12.0783 14.2154 12.5096 14.5701 12.5096Z" fill="#EDF2FD"/>
<path d="M19.7076 8.01465L18.4232 9.29905" stroke="#EDF2FD" stroke-width="0.959062" stroke-linecap="round"/>
<path d="M21.1521 5.47949C21.5286 5.25365 21.9483 5.22693 22.3191 5.39746C22.7777 5.60859 23.0769 6.0869 23.0769 6.61816C23.0769 7.1204 22.8656 7.49989 22.614 7.78516C22.3787 8.05187 22.0738 8.26979 21.8894 8.41602C21.8187 8.47227 21.7192 8.55078 21.613 8.61328C21.5067 8.67585 21.3476 8.75088 21.1531 8.75098C20.9582 8.75098 20.7984 8.67581 20.6921 8.61328C20.6389 8.58198 20.5877 8.54632 20.5408 8.51172L20.4158 8.41602C20.2317 8.26989 19.9273 8.05164 19.6921 7.78516C19.4405 7.49992 19.2283 7.12045 19.2283 6.61816C19.2283 6.08684 19.5274 5.60854 19.9861 5.39746C20.3567 5.22697 20.7758 5.25408 21.1521 5.47949Z" stroke="#EDF2FD" stroke-width="0.959062"/>
</svg>
