<svg width="672" height="1024" viewBox="0 0 672 1024" fill="none" xmlns="http://www.w3.org/2000/svg">
<rect y="83.9998" width="672" height="940" fill="#F3F4F8"/>
<path d="M335.958 322.125C475.876 322.125 599.204 380.191 671.918 468.469V35.0687C671.89 25.5923 668.114 16.512 661.413 9.81095C654.712 3.10995 645.632 -0.667212 636.156 -0.695557H35.761C26.2849 -0.666776 17.2051 3.11058 10.5048 9.81153C3.80442 16.5125 0.0279044 25.5926 0 35.0687V468.484C72.7103 380.189 196.04 322.125 335.958 322.125Z" fill="#F3F4F8"/>
<path d="M335.751 328.515C475.582 328.515 598.834 388.906 671.503 480.713V614.324C671.641 614.491 671.78 614.657 671.918 614.824V988.236C671.89 997.712 668.114 1006.79 661.413 1013.49C654.712 1020.19 645.632 1023.97 636.155 1024H35.7607C26.2847 1023.97 17.2052 1020.19 10.5049 1013.49C3.80459 1006.79 0.0279525 997.712 0 988.236V480.721C72.6637 388.909 195.92 328.515 335.751 328.515Z" fill="#88A1D2"/>
<path d="M336.088 185.72C360.942 185.72 381.089 169.238 381.089 148.905V148.126C381.046 143.533 379.181 139.145 375.904 135.927C372.626 132.71 368.204 130.926 363.612 130.968C360.862 130.966 358.15 131.603 355.689 132.828C353.176 134.085 351.003 135.929 349.353 138.203C347.535 140.729 347.24 143.519 345.882 146.209C344.081 149.764 339.909 151.444 336.089 151.444H335.823C332.003 151.444 327.831 149.763 326.031 146.209C324.669 143.519 324.378 140.729 322.559 138.203C320.909 135.929 318.736 134.085 316.223 132.828C313.762 131.603 311.05 130.966 308.301 130.968C303.708 130.926 299.287 132.71 296.01 135.928C292.732 139.146 290.868 143.534 290.825 148.126V148.905C290.825 169.237 310.974 185.72 335.826 185.72H336.088Z" fill="#88A1D2"/>
<path d="M190.376 238.543C190.403 238.702 190.419 238.863 190.423 239.024C190.501 241.768 188.361 244.128 186.172 245.489C183.831 246.869 181.182 247.643 178.466 247.74C174.044 247.93 168.82 246.816 165.633 243.525C164.253 242.149 163.171 240.503 162.455 238.69C161.739 236.877 161.405 234.935 161.473 232.987C161.285 229.288 162.373 225.637 164.554 222.644C166.093 220.834 168.027 219.401 170.207 218.455C172.387 217.51 174.755 217.077 177.128 217.189C178.976 217.181 180.812 217.481 182.56 218.077C184.068 218.581 185.48 219.332 186.741 220.3C187.78 221.093 188.664 222.072 189.347 223.187C189.896 224.037 190.204 225.021 190.237 226.033C190.237 226.54 190.097 227.038 189.833 227.471C189.569 227.904 189.19 228.255 188.738 228.487C188.287 228.718 187.78 228.821 187.274 228.783C186.768 228.745 186.283 228.568 185.871 228.271C184.688 227.244 183.423 226.315 182.087 225.496C180.818 224.86 179.4 224.579 177.984 224.681C176.568 224.783 175.206 225.265 174.041 226.076C172.897 226.918 172.001 228.052 171.447 229.359C170.893 230.666 170.701 232.099 170.892 233.506C171.072 234.832 171.648 236.072 172.545 237.065C174.781 239.454 178.912 239.778 181.874 238.784C183.416 238.265 184.757 237.296 186.281 236.731C186.75 236.51 187.262 236.398 187.781 236.404C188.299 236.409 188.809 236.532 189.273 236.763C189.57 236.967 189.821 237.231 190.01 237.537C190.2 237.844 190.324 238.186 190.376 238.543Z" fill="#595757"/>
<path d="M299.29 238.543C299.317 238.702 299.333 238.863 299.338 239.024C299.415 241.768 297.275 244.128 295.086 245.489C292.745 246.869 290.096 247.643 287.38 247.74C282.958 247.93 277.735 246.816 274.548 243.525C273.167 242.149 272.085 240.503 271.369 238.69C270.653 236.877 270.319 234.935 270.387 232.987C270.2 229.288 271.287 225.637 273.468 222.644C275.008 220.834 276.942 219.401 279.122 218.455C281.301 217.51 283.669 217.077 286.043 217.189C287.89 217.181 289.726 217.481 291.474 218.077C292.982 218.581 294.395 219.332 295.655 220.3C296.695 221.093 297.579 222.072 298.262 223.187C298.811 224.037 299.118 225.021 299.151 226.033C299.151 226.54 299.012 227.038 298.747 227.471C298.483 227.904 298.104 228.255 297.653 228.487C297.201 228.718 296.695 228.821 296.189 228.783C295.683 228.745 295.197 228.568 294.785 228.271C293.603 227.244 292.337 226.315 291.002 225.496C289.732 224.86 288.315 224.579 286.899 224.681C285.483 224.783 284.12 225.265 282.955 226.076C281.811 226.918 280.915 228.052 280.361 229.359C279.807 230.666 279.615 232.099 279.806 233.506C279.986 234.832 280.562 236.072 281.459 237.065C283.695 239.454 287.826 239.778 290.789 238.784C292.331 238.265 293.671 237.296 295.195 236.731C295.664 236.51 296.177 236.398 296.695 236.404C297.213 236.409 297.723 236.532 298.187 236.763C298.484 236.967 298.735 237.231 298.925 237.537C299.114 237.844 299.239 238.186 299.29 238.543Z" fill="#595757"/>
<path d="M475.607 238.543C475.635 238.702 475.651 238.863 475.655 239.024C475.734 241.768 473.592 244.129 471.403 245.489C469.061 246.871 466.41 247.645 463.692 247.742C459.272 247.932 454.047 246.818 450.861 243.527C449.48 242.151 448.398 240.505 447.682 238.692C446.966 236.879 446.632 234.937 446.701 232.989C446.513 229.29 447.6 225.639 449.782 222.646C451.321 220.836 453.255 219.403 455.434 218.458C457.614 217.512 459.981 217.079 462.355 217.191C464.203 217.183 466.039 217.483 467.788 218.079C469.295 218.583 470.708 219.334 471.968 220.302C473.008 221.095 473.892 222.073 474.575 223.188C475.123 224.04 475.43 225.023 475.465 226.035C475.464 226.542 475.324 227.039 475.06 227.472C474.795 227.904 474.417 228.256 473.965 228.487C473.514 228.718 473.008 228.821 472.502 228.783C471.996 228.745 471.511 228.569 471.099 228.273C469.917 227.246 468.652 226.317 467.317 225.498C466.047 224.862 464.629 224.581 463.213 224.683C461.797 224.785 460.434 225.267 459.269 226.078C458.126 226.92 457.232 228.055 456.679 229.362C456.127 230.67 455.936 232.102 456.128 233.508C456.309 234.833 456.885 236.074 457.781 237.067C460.019 239.455 464.15 239.779 467.112 238.786C468.654 238.267 469.993 237.298 471.517 236.733C471.986 236.512 472.499 236.4 473.018 236.405C473.536 236.411 474.047 236.534 474.511 236.764C474.806 236.969 475.056 237.233 475.244 237.539C475.433 237.845 475.556 238.187 475.607 238.543Z" fill="#595757"/>
<path d="M225.894 232.465C225.916 234.571 225.556 236.663 224.833 238.64C224.165 240.461 223.116 242.117 221.756 243.499C220.394 244.868 218.754 245.93 216.948 246.615C214.94 247.364 212.81 247.732 210.666 247.7C208.537 247.732 206.42 247.359 204.43 246.601C202.631 245.899 200.998 244.829 199.636 243.461C198.277 242.087 197.227 240.439 196.555 238.627C195.837 236.653 195.482 234.565 195.508 232.465C195.483 230.341 195.843 228.23 196.57 226.235C197.229 224.426 198.267 222.779 199.614 221.405C200.978 220.043 202.618 218.989 204.423 218.315C206.418 217.573 208.532 217.206 210.66 217.232C212.804 217.204 214.934 217.576 216.941 218.328C218.759 219.017 220.409 220.083 221.783 221.458C223.137 222.83 224.181 224.477 224.844 226.288C225.563 228.267 225.918 230.359 225.894 232.465ZM217.378 232.465C217.515 230.209 216.873 227.975 215.559 226.137C214.979 225.402 214.233 224.813 213.383 224.42C212.532 224.027 211.601 223.841 210.665 223.876C209.425 223.852 208.207 224.204 207.17 224.886C206.114 225.623 205.302 226.659 204.84 227.861C204.267 229.326 203.99 230.889 204.023 232.462C203.987 234.016 204.258 235.562 204.82 237.012C205.279 238.209 206.081 239.243 207.124 239.988C208.165 240.69 209.399 241.051 210.655 241.022C211.592 241.056 212.524 240.867 213.375 240.472C214.225 240.077 214.971 239.486 215.549 238.748C216.862 236.925 217.509 234.706 217.383 232.463L217.378 232.465Z" fill="#595757"/>
<path d="M314.223 210.801C314.223 213.398 314.122 216.717 314.19 219.309C314.561 219.037 314.977 218.835 315.42 218.712C320.734 217.256 328.75 218.527 331.841 224.066C332.391 224.99 332.761 226.011 332.932 227.073C333.131 228.34 333.226 229.621 333.214 230.903V243.145C333.305 244.371 332.93 245.586 332.165 246.549C331.813 246.932 331.382 247.234 330.901 247.434C330.421 247.633 329.903 247.726 329.383 247.706C326.865 247.706 325.607 246.187 325.611 243.15V231.589C325.611 227.939 323.958 225.775 319.78 225.784C315.554 225.792 314.223 229.21 314.223 232.951V243.304C314.307 244.52 313.944 245.726 313.202 246.694C312.231 247.449 311.011 247.81 309.786 247.704C307.272 247.704 306.013 246.185 306.011 243.148V210.644C305.919 209.422 306.271 208.208 307.003 207.225C307.353 206.841 307.785 206.539 308.266 206.342C308.748 206.145 309.267 206.058 309.786 206.086C311.048 206.084 312.265 206.55 313.202 207.394C313.948 208.366 314.312 209.578 314.223 210.801Z" fill="#595757"/>
<path d="M367.726 238.022C367.803 240.175 367.077 242.279 365.689 243.925C362.879 247.296 358.166 248.043 354.011 248.043C351.549 248.104 349.101 247.675 346.807 246.78C345.076 246.137 343.547 245.047 342.374 243.621C341.515 242.688 341.022 241.477 340.987 240.209C341.017 239.737 341.142 239.275 341.354 238.851C341.567 238.428 341.863 238.052 342.225 237.746C342.587 237.441 343.007 237.211 343.46 237.071C343.912 236.932 344.389 236.886 344.86 236.935C346.065 237.315 347.155 237.991 348.032 238.9C349.111 239.814 350.326 240.556 351.632 241.097C353.109 241.714 354.761 241.766 356.274 241.244C356.785 241.073 357.248 240.782 357.623 240.396C357.999 240.009 358.276 239.538 358.433 239.023C358.525 238.508 358.483 237.978 358.312 237.484C358.141 236.99 357.846 236.548 357.456 236.201C355.165 234.052 351.454 235.153 348.647 234.672C346.387 234.356 344.34 233.17 342.942 231.366C341.891 229.925 341.303 228.197 341.258 226.414C341.212 224.63 341.711 222.875 342.688 221.382C343.733 219.928 345.165 218.795 346.82 218.112C348.907 217.247 351.153 216.832 353.411 216.892C355.244 216.87 357.073 217.077 358.856 217.507C360.278 217.84 361.638 218.398 362.884 219.16C363.854 219.749 364.691 220.532 365.342 221.461C365.865 222.182 366.159 223.043 366.187 223.932C366.2 224.336 366.126 224.738 365.97 225.111C365.815 225.484 365.582 225.819 365.286 226.094C364.574 226.694 363.658 226.996 362.729 226.936C360.292 226.936 358.72 224.881 356.692 223.865C355.475 223.258 354.106 223.022 352.756 223.187C351.986 223.218 351.244 223.49 350.636 223.965C350.028 224.439 349.584 225.092 349.366 225.832C349.312 226.411 349.421 226.994 349.679 227.515C349.937 228.036 350.335 228.476 350.829 228.784C351.828 229.388 352.968 229.719 354.135 229.744C359.19 230.106 366.56 230.981 367.628 237.112C367.68 237.413 367.712 237.717 367.726 238.022Z" fill="#595757"/>
<path d="M440.59 232.465C440.59 232.415 440.58 232.372 440.58 232.324V232.047C440.58 231.908 440.533 231.81 440.525 231.678C440.484 229.84 440.149 228.021 439.533 226.289C438.874 224.479 437.833 222.831 436.482 221.458C435.11 220.084 433.461 219.017 431.645 218.328C429.638 217.576 427.508 217.204 425.364 217.232C423.237 217.206 421.123 217.574 419.129 218.315C417.323 218.989 415.683 220.043 414.319 221.405C412.971 222.779 411.933 224.426 411.274 226.235C410.547 228.23 410.187 230.341 410.213 232.465C410.186 234.565 410.54 236.653 411.259 238.627C411.929 240.438 412.978 242.084 414.335 243.457C415.697 244.826 417.33 245.896 419.129 246.598C421.119 247.356 423.235 247.729 425.364 247.697C427.507 247.729 429.637 247.36 431.645 246.611C432.296 246.34 432.925 246.02 433.528 245.656C433.611 246.265 433.794 246.856 434.069 247.406C434.376 247.865 434.806 248.228 435.31 248.453C435.813 248.679 436.37 248.759 436.917 248.684C439.362 248.684 440.583 247.037 440.58 243.743V232.6C440.59 232.554 440.59 232.513 440.59 232.465ZM430.877 238.426C430.173 239.177 429.316 239.768 428.362 240.156C427.409 240.544 426.382 240.72 425.354 240.674C423.957 240.708 422.578 240.354 421.37 239.65C420.228 238.953 419.322 237.927 418.772 236.706C418.138 235.295 417.828 233.759 417.863 232.212C417.828 230.648 418.142 229.095 418.783 227.668C419.338 226.44 420.256 225.413 421.413 224.724C422.614 224.044 423.976 223.702 425.356 223.732C426.383 223.685 427.408 223.86 428.361 224.246C429.315 224.632 430.173 225.219 430.878 225.967C432.336 227.712 433.071 229.948 432.931 232.217C433.063 234.473 432.33 236.694 430.88 238.427L430.877 238.426Z" fill="#595757"/>
<path d="M402.99 226.291C402.328 224.481 401.284 222.833 399.931 221.461C398.558 220.087 396.91 219.02 395.094 218.332C393.083 217.578 390.95 217.206 388.803 217.236C386.675 217.21 384.562 217.577 382.568 218.319C382.073 218.534 381.59 218.776 381.123 219.046C380.972 218.585 380.728 218.162 380.404 217.801C380.065 217.443 379.654 217.161 379.198 216.974C378.742 216.787 378.252 216.699 377.759 216.717C377.275 216.692 376.792 216.773 376.343 216.956C375.894 217.139 375.491 217.418 375.162 217.773C374.46 218.684 374.12 219.823 374.208 220.97V230.708C374.17 231.911 374.167 233.196 374.208 234.389V253.304C374.137 254.583 374.377 255.859 374.909 257.024C375.217 257.482 375.647 257.845 376.15 258.071C376.654 258.297 377.211 258.376 377.757 258.301C380.203 258.301 381.424 256.654 381.42 253.36V246.011C381.806 246.205 382.156 246.441 382.566 246.603C384.556 247.361 386.672 247.734 388.801 247.702C390.948 247.735 393.081 247.367 395.092 246.616C396.899 245.932 398.538 244.869 399.901 243.5C401.261 242.119 402.31 240.462 402.977 238.642C403.701 236.665 404.061 234.572 404.038 232.467C404.064 230.362 403.709 228.27 402.99 226.291ZM394.327 238.429C393.624 239.181 392.766 239.771 391.812 240.159C390.859 240.547 389.833 240.724 388.804 240.677C387.407 240.711 386.028 240.357 384.821 239.654C383.679 238.956 382.773 237.93 382.222 236.71C381.766 235.658 381.497 234.535 381.425 233.391V231.04C381.497 229.878 381.77 228.738 382.234 227.67C382.789 226.443 383.707 225.415 384.864 224.726C386.065 224.046 387.427 223.704 388.806 223.734C389.833 223.686 390.859 223.862 391.812 224.247C392.765 224.633 393.624 225.22 394.329 225.969C395.787 227.713 396.523 229.949 396.383 232.219C396.514 234.475 395.779 236.695 394.327 238.427V238.429Z" fill="#595757"/>
<path d="M504.151 234.305H491.092C490.684 234.305 490.275 234.305 489.867 234.305C489.675 234.305 489.672 234.27 489.606 234.445C489.537 234.826 489.549 235.217 489.641 235.592C489.699 235.989 489.805 236.378 489.956 236.749C490.518 237.894 491.333 238.896 492.339 239.679C493.344 240.463 494.515 241.008 495.762 241.274C497.087 241.566 498.464 241.519 499.766 241.137C501.068 240.755 502.253 240.05 503.21 239.088C503.752 238.574 504.227 237.989 504.777 237.485C505.333 236.874 506.105 236.505 506.929 236.457C507.754 236.408 508.564 236.684 509.187 237.226C509.652 237.926 509.89 238.753 509.867 239.594C509.845 240.435 509.564 241.248 509.062 241.923C507.395 244.328 504.983 246.117 502.197 247.011C498.101 248.435 493.612 248.214 489.675 246.395C487.831 245.571 486.192 244.35 484.876 242.817C483.559 241.285 482.599 239.481 482.063 237.533C481.623 235.861 481.408 234.138 481.425 232.409C481.405 230.311 481.746 228.226 482.432 226.245C483.054 224.431 484.055 222.77 485.369 221.373C486.697 219.99 488.321 218.925 490.118 218.257C492.122 217.513 494.246 217.146 496.383 217.173C499.061 217.098 501.71 217.737 504.058 219.026C506.075 220.142 507.736 221.803 508.852 223.82C509.879 225.648 510.428 227.706 510.447 229.803C510.552 230.508 510.452 231.229 510.159 231.879C509.865 232.528 509.392 233.08 508.794 233.468C507.33 234.097 505.742 234.383 504.151 234.305ZM490.13 229.623H494.714H502.114C502.238 229.635 502.363 229.619 502.479 229.577C502.54 229.544 502.588 229.492 502.616 229.43C502.643 229.367 502.65 229.297 502.633 229.23C502.567 227.38 501.878 225.608 500.676 224.2C500.086 223.598 499.377 223.127 498.594 222.817C497.81 222.507 496.97 222.364 496.129 222.4C495.306 222.372 494.486 222.52 493.725 222.833C492.963 223.147 492.277 223.619 491.712 224.218C490.608 225.493 489.917 227.073 489.728 228.749C489.68 228.929 489.649 229.113 489.636 229.299C489.642 229.547 489.816 229.625 490.13 229.623ZM489.866 229.613C489.953 229.629 490.042 229.632 490.13 229.623L489.866 229.613Z" fill="#595757"/>
<path d="M248.135 247.73C244.43 247.73 238.329 246.422 235.572 242.718C233.774 240.008 232.769 236.848 232.672 233.597C232.464 231.038 232.409 228.468 232.507 225.902C232.562 223.828 232.274 221.158 233.791 219.494C234.146 219.109 234.58 218.807 235.063 218.607C235.545 218.407 236.066 218.315 236.588 218.336C239.123 218.336 240.39 219.864 240.39 222.92C240.39 225.246 240.184 227.575 240.111 229.904C239.979 231.75 240.228 233.603 240.843 235.347C241.462 236.749 242.489 237.931 243.789 238.741C245.09 239.551 246.604 239.95 248.135 239.887H248.353C249.885 239.952 251.402 239.553 252.704 238.743C254.007 237.933 255.035 236.749 255.654 235.346C256.269 233.601 256.518 231.748 256.386 229.902C256.314 227.573 256.107 225.244 256.107 222.919C256.107 219.861 257.368 218.335 259.909 218.335C260.431 218.313 260.952 218.406 261.435 218.606C261.919 218.805 262.353 219.108 262.707 219.492C264.225 221.156 263.935 223.826 263.992 225.901C264.09 228.467 264.035 231.036 263.826 233.595C263.729 236.847 262.725 240.006 260.927 242.717C258.167 246.421 252.065 247.728 248.364 247.728L248.135 247.73Z" fill="#595757"/>
</svg>
