<svg width="333" height="41" viewBox="0 0 333 41" fill="none" xmlns="http://www.w3.org/2000/svg">
<path d="M33.8799 40.9641C52.4671 40.9641 67.5484 28.6334 67.5484 13.4191V12.836C67.5155 9.40022 66.1197 6.11814 63.6677 3.71125C61.2157 1.30435 57.9083 -0.0303746 54.4725 0.000524788C52.4156 -0.000686114 50.3865 0.475663 48.545 1.39203C46.6652 2.33281 45.0394 3.71192 43.8045 5.41301C42.4403 7.30413 42.2237 9.38964 41.2039 11.4018C40.4509 12.6578 39.3712 13.686 38.0798 14.3767C36.7885 15.0674 35.3341 15.3947 33.8714 15.3239H33.6769C32.2142 15.3947 30.7598 15.0674 29.4685 14.3767C28.1771 13.686 27.0974 12.6578 26.3444 11.4018C25.3212 9.38964 25.1114 7.30925 23.7438 5.41301C22.5086 3.7122 20.8828 2.33314 19.0033 1.39203C17.1618 0.475604 15.1327 -0.000748259 13.0758 0.000524788C9.64005 -0.0303746 6.33262 1.30435 3.88063 3.71125C1.42865 6.11814 0.0328638 9.40022 0 12.836V13.4191C0 28.6317 15.0743 40.9641 33.6684 40.9641H33.8799Z" fill="#89A2D0"/>
<path d="M103.642 24.9431C103.662 25.0557 103.673 25.1698 103.676 25.2841C103.6 26.248 103.282 27.177 102.751 27.9847C102.219 28.7924 101.492 29.4526 100.637 29.9037C98.9641 30.8896 97.0714 31.4424 95.1308 31.5117C93.4785 31.6561 91.8141 31.4637 90.2383 30.946C88.6625 30.4284 87.2082 29.5963 85.9634 28.5002C84.9766 27.5169 84.2031 26.3407 83.6914 25.0451C83.1797 23.7494 82.9407 22.3621 82.9894 20.9698C82.855 18.3269 83.6322 15.7179 85.1909 13.5793C86.2901 12.2846 87.6717 11.2595 89.2294 10.5827C90.7871 9.90603 92.4794 9.59579 94.1758 9.67594C95.4957 9.66996 96.8074 9.88377 98.057 10.3086C99.1342 10.6689 100.144 11.206 101.045 11.8979C101.787 12.4646 102.418 13.1636 102.907 13.9596C103.298 14.568 103.518 15.2709 103.543 15.9939C103.543 16.3563 103.443 16.7116 103.254 17.0208C103.065 17.3301 102.794 17.5812 102.472 17.7465C102.15 17.9119 101.788 17.9851 101.426 17.9581C101.065 17.9311 100.718 17.8049 100.424 17.5934C99.5794 16.8587 98.6753 16.1953 97.721 15.6102C96.8173 15.1437 95.8024 14.9356 94.7879 15.009C93.7735 15.0824 92.799 15.4344 91.9718 16.0261C91.1447 16.6179 90.4969 17.4265 90.0999 18.3629C89.7028 19.2993 89.572 20.3271 89.7217 21.3331C89.8509 22.281 90.2635 23.1678 90.9052 23.8773C91.8048 24.6596 92.8978 25.1863 94.0703 25.4022C95.2428 25.6182 96.4517 25.5155 97.571 25.1051C98.6726 24.735 99.6293 24.041 100.719 23.6386C101.054 23.4807 101.42 23.4006 101.791 23.4044C102.161 23.4083 102.526 23.4959 102.857 23.6607C103.069 23.8088 103.249 23.9992 103.384 24.2199C103.519 24.4406 103.606 24.6868 103.642 24.9431Z" fill="#595757"/>
<path d="M181.462 24.9431C181.482 25.0557 181.493 25.1698 181.496 25.2841C181.421 26.248 181.102 27.177 180.571 27.9847C180.04 28.7924 179.313 29.4526 178.458 29.9037C176.785 30.8897 174.892 31.4424 172.951 31.5117C171.299 31.6561 169.635 31.4637 168.059 30.946C166.483 30.4284 165.029 29.5963 163.784 28.5002C162.797 27.5168 162.024 26.3406 161.512 25.0449C161.001 23.7492 160.762 22.362 160.81 20.9698C160.676 18.327 161.453 15.7182 163.011 13.5793C164.111 12.2846 165.492 11.2595 167.05 10.5827C168.608 9.90603 170.3 9.59579 171.997 9.67594C173.316 9.66996 174.628 9.88377 175.878 10.3086C176.955 10.6689 177.964 11.206 178.865 11.8979C179.608 12.4646 180.239 13.1636 180.727 13.9596C181.119 14.568 181.339 15.2709 181.363 15.9939C181.363 16.3563 181.264 16.7116 181.075 17.0208C180.886 17.3301 180.615 17.5812 180.293 17.7465C179.97 17.9119 179.608 17.9851 179.247 17.9581C178.886 17.9311 178.539 17.8049 178.245 17.5934C177.4 16.8587 176.496 16.1954 175.542 15.6102C174.638 15.143 173.623 14.9345 172.608 15.0076C171.593 15.0806 170.619 15.4325 169.791 16.0245C168.964 16.6164 168.316 17.4253 167.919 18.3621C167.522 19.2988 167.392 20.3269 167.542 21.3331C167.67 22.281 168.082 23.168 168.724 23.8773C169.624 24.6596 170.717 25.1863 171.889 25.4022C173.062 25.6182 174.271 25.5155 175.39 25.1051C176.492 24.735 177.448 24.041 178.538 23.6386C178.873 23.4807 179.239 23.4006 179.61 23.4044C179.98 23.4083 180.345 23.4959 180.676 23.6607C180.889 23.8087 181.068 23.999 181.203 24.2196C181.339 24.4403 181.427 24.6866 181.462 24.9431Z" fill="#595757"/>
<path d="M307.445 24.9434C307.464 25.0561 307.476 25.1701 307.479 25.2845C307.403 26.2483 307.085 27.1773 306.554 27.9851C306.022 28.7928 305.295 29.4529 304.44 29.904C302.767 30.89 300.874 31.4427 298.934 31.5121C297.281 31.6565 295.617 31.464 294.041 30.9464C292.465 30.4288 291.011 29.5967 289.766 28.5006C288.78 27.5173 288.006 26.3411 287.494 25.0454C286.983 23.7497 286.744 22.3624 286.792 20.9702C286.658 18.3272 287.435 15.7182 288.994 13.5796C290.093 12.2872 291.475 11.2641 293.031 10.5889C294.588 9.91373 296.279 9.60444 297.974 9.68483C299.294 9.67884 300.605 9.89265 301.855 10.3175C302.932 10.6777 303.942 11.2149 304.843 11.9068C305.585 12.4735 306.216 13.1725 306.705 13.9685C307.096 14.5768 307.316 15.2797 307.341 16.0028C307.341 16.3652 307.241 16.7205 307.052 17.0297C306.863 17.3389 306.592 17.5901 306.27 17.7554C305.947 17.9208 305.586 17.994 305.224 17.967C304.863 17.94 304.516 17.8138 304.222 17.6023C303.377 16.8675 302.473 16.2042 301.519 15.6191C300.615 15.1526 299.6 14.9445 298.586 15.0179C297.571 15.0913 296.597 15.4432 295.77 16.035C294.943 16.6267 294.295 17.4354 293.898 18.3718C293.501 19.3082 293.37 20.3359 293.52 21.3419C293.649 22.2898 294.061 23.1766 294.703 23.8862C295.603 24.6685 296.696 25.1951 297.868 25.4111C299.041 25.6271 300.25 25.5244 301.369 25.1139C302.471 24.7439 303.427 24.0499 304.517 23.6475C304.852 23.4895 305.218 23.4095 305.589 23.4133C305.959 23.4172 306.324 23.5048 306.655 23.6696C306.867 23.8163 307.047 24.0051 307.183 24.2243C307.318 24.4434 307.408 24.6882 307.445 24.9434Z" fill="#595757"/>
<path d="M129.021 20.6034C129.036 22.1082 128.779 23.6034 128.262 25.0166C127.791 26.3161 127.044 27.4982 126.072 28.4817C125.101 29.4651 123.928 30.2266 122.635 30.7139C121.198 31.2504 119.673 31.5135 118.14 31.4897C116.618 31.5122 115.106 31.2454 113.684 30.7036C112.398 30.2023 111.231 29.438 110.258 28.4595C109.289 27.4781 108.539 26.3015 108.06 25.0081C107.547 23.5975 107.294 22.1058 107.313 20.6051C107.295 19.0881 107.552 17.5803 108.07 16.1545C108.534 14.8579 109.277 13.6792 110.247 12.7015C111.217 11.7238 112.389 10.9711 113.682 10.4964C116.576 9.45988 119.74 9.46285 122.631 10.5049C123.929 10.9961 125.106 11.7582 126.086 12.7405C127.054 13.7209 127.8 14.898 128.274 16.192C128.786 17.6055 129.039 19.1 129.021 20.6034ZM122.935 20.6034C123.033 18.9927 122.574 17.3972 121.635 16.0845C121.22 15.5594 120.687 15.1394 120.08 14.8585C119.472 14.5777 118.807 14.4439 118.138 14.4679C117.252 14.4506 116.382 14.7021 115.641 15.1893C114.885 15.7165 114.305 16.4584 113.975 17.3191C113.567 18.3655 113.369 19.4821 113.392 20.6051C113.368 21.7165 113.564 22.8216 113.969 23.8571C114.296 24.7132 114.868 25.4539 115.614 25.9869C116.359 26.4882 117.24 26.7462 118.138 26.7253C118.808 26.7492 119.474 26.6144 120.081 26.3319C120.689 26.0495 121.222 25.6275 121.635 25.1002C122.571 23.7938 123.03 22.2058 122.935 20.6018V20.6034Z" fill="#595757"/>
<path d="M192.134 5.12303C192.134 6.97834 192.06 9.35036 192.11 11.204C192.375 11.0095 192.673 10.8651 192.99 10.7777C196.787 9.73745 202.512 10.6446 204.722 14.6025C205.115 15.2631 205.379 15.9922 205.501 16.7511C205.643 17.6535 205.71 18.5661 205.702 19.4795V28.2258C205.766 29.1018 205.499 29.9699 204.952 30.6575C204.7 30.931 204.392 31.1463 204.049 31.2885C203.705 31.4308 203.335 31.4965 202.964 31.4811C201.164 31.4811 200.266 30.396 200.269 28.2258V19.9724C200.354 19.4064 200.305 18.8284 200.126 18.285C199.946 17.7416 199.641 17.2481 199.236 16.8442C198.83 16.4404 198.335 16.1376 197.791 15.9603C197.247 15.783 196.669 15.7361 196.103 15.8235C193.083 15.8235 192.134 18.2722 192.134 20.9392V28.3366C192.193 29.2057 191.933 30.0665 191.404 30.7581C190.711 31.2985 189.839 31.5568 188.963 31.4811C187.166 31.4811 186.267 30.396 186.267 28.2258V5.01218C186.201 4.13952 186.453 3.27232 186.975 2.57025C187.225 2.29531 187.533 2.07967 187.877 1.93895C188.221 1.79824 188.592 1.73601 188.963 1.75686C189.865 1.75436 190.735 2.0875 191.404 2.69135C191.937 3.38491 192.197 4.25037 192.134 5.12303Z" fill="#595757"/>
<path d="M230.362 24.5736C230.417 26.1115 229.898 27.6148 228.908 28.7924C226.894 31.2002 223.531 31.7339 220.562 31.7339C218.803 31.7777 217.053 31.4705 215.414 30.8301C214.177 30.3711 213.084 29.5927 212.246 28.5741C211.632 27.908 211.28 27.0425 211.255 26.1373C211.276 25.7995 211.366 25.4695 211.518 25.1671C211.67 24.8647 211.882 24.5962 212.14 24.3777C212.399 24.1592 212.699 23.9951 213.022 23.8955C213.346 23.7958 213.686 23.7625 214.022 23.7977C214.884 24.0682 215.663 24.5508 216.289 25.2011C217.06 25.8542 217.928 26.384 218.862 26.7717C219.917 27.2117 221.097 27.2493 222.179 26.8774C222.543 26.7537 222.872 26.545 223.138 26.2686C223.405 25.9921 223.602 25.656 223.713 25.2881C223.779 24.9205 223.749 24.5423 223.627 24.1894C223.505 23.8366 223.295 23.5209 223.016 23.2725C221.377 21.7378 218.726 22.5239 216.72 22.1794C215.685 22.0449 214.701 21.6474 213.863 21.0247C213.025 20.4019 212.36 19.5748 211.933 18.6222C211.505 17.6697 211.329 16.6235 211.421 15.5834C211.513 14.5433 211.869 13.5442 212.457 12.6812C213.204 11.6421 214.227 10.8329 215.411 10.3449C216.902 9.72626 218.507 9.42877 220.12 9.47187C221.43 9.45695 222.737 9.60532 224.01 9.91353C225.027 10.1513 225.999 10.5509 226.889 11.097C227.581 11.5175 228.18 12.0772 228.645 12.7408C229.019 13.2552 229.23 13.8701 229.25 14.5058C229.26 14.7944 229.207 15.0818 229.096 15.3483C228.985 15.6148 228.818 15.8544 228.606 16.0507C228.098 16.4797 227.443 16.6954 226.779 16.6527C225.038 16.6527 223.915 15.1862 222.465 14.4598C221.596 14.0259 220.619 13.8575 219.655 13.9755C219.105 13.9976 218.575 14.1913 218.141 14.5295C217.706 14.8678 217.388 15.3335 217.232 15.8615C217.194 16.2754 217.271 16.6917 217.456 17.0641C217.64 17.4365 217.925 17.7504 218.277 17.9709C218.991 18.4002 219.804 18.6353 220.637 18.6529C224.249 18.9104 229.515 19.5363 230.277 23.9153C230.32 24.1327 230.348 24.3526 230.362 24.5736Z" fill="#595757"/>
<path d="M282.427 20.6034C282.427 20.5692 282.427 20.5386 282.427 20.5028V20.305C282.427 20.2043 282.394 20.1344 282.389 20.0406C282.361 18.7279 282.123 17.428 281.685 16.1902C281.21 14.8968 280.464 13.7199 279.497 12.7387C278.517 11.7567 277.338 10.9946 276.041 10.5032C273.149 9.46086 269.984 9.45784 267.09 10.4947C265.797 10.9696 264.625 11.7225 263.656 12.7001C262.686 13.6778 261.944 14.8564 261.48 16.1527C260.96 17.5782 260.703 19.0861 260.721 20.6034C260.702 22.1042 260.956 23.596 261.469 25.0063C261.948 26.3 262.698 27.4767 263.667 28.4578C264.64 29.4362 265.806 30.2005 267.092 30.7019C268.514 31.2438 270.027 31.5106 271.549 31.488C273.082 31.5116 274.606 31.2484 276.042 30.7121C276.507 30.5189 276.957 30.2909 277.388 30.03C277.447 30.4654 277.578 30.8881 277.773 31.2817C277.993 31.609 278.301 31.8681 278.661 32.0293C279.021 32.1906 279.418 32.2477 279.809 32.194C281.557 32.194 282.429 31.0168 282.427 28.6624V20.7006C282.418 20.6699 282.427 20.6375 282.427 20.6034ZM275.486 24.8665C274.984 25.4036 274.371 25.8254 273.69 26.1027C273.008 26.38 272.275 26.5063 271.54 26.4729C270.542 26.4972 269.556 26.2439 268.693 25.7413C267.876 25.2426 267.228 24.5094 266.834 23.637C266.405 22.6145 266.184 21.5163 266.186 20.4073C266.187 19.2982 266.411 18.2007 266.843 17.1792C267.238 16.303 267.893 15.5692 268.718 15.0766C269.576 14.5893 270.549 14.3431 271.535 14.3638C272.269 14.3301 273.002 14.4555 273.683 14.7312C274.364 15.007 274.978 15.4268 275.481 15.9617C276.434 17.2508 276.949 18.8118 276.949 20.415C276.949 22.0182 276.434 23.579 275.481 24.8682L275.486 24.8665Z" fill="#595757"/>
<path d="M255.559 16.1903C255.085 14.8966 254.339 13.7196 253.371 12.7389C252.391 11.7568 251.213 10.9948 249.916 10.5033C247.025 9.46139 243.861 9.45837 240.967 10.4948C240.613 10.6454 240.268 10.8162 239.934 11.0063C239.774 10.5022 239.451 10.0655 239.016 9.76456C238.582 9.46364 238.059 9.31559 237.531 9.34371C237.185 9.3262 236.84 9.38481 236.519 9.51534C236.199 9.64587 235.911 9.84512 235.676 10.0991C235.173 10.7501 234.93 11.5643 234.994 12.3842V19.3399C234.966 20.201 234.966 21.1185 234.994 21.9711V35.4869C234.943 36.4002 235.116 37.3122 235.497 38.1437C235.716 38.4711 236.023 38.7301 236.383 38.8914C236.743 39.0527 237.14 39.1098 237.531 39.056C239.278 39.056 240.151 37.8794 240.148 35.5261V30.274C240.423 30.4121 240.675 30.5809 240.967 30.6969C242.389 31.2388 243.901 31.5056 245.423 31.483C246.956 31.5066 248.481 31.2435 249.918 30.7071C251.211 30.2198 252.384 29.4582 253.356 28.4748C254.327 27.4913 255.074 26.3093 255.545 25.0099C256.55 22.1535 256.55 19.0399 255.545 16.1835L255.559 16.1903ZM249.372 24.8649C248.87 25.4021 248.257 25.8239 247.576 26.1013C246.894 26.3786 246.161 26.5048 245.426 26.4713C244.428 26.4954 243.442 26.2422 242.579 25.7397C241.762 25.241 241.115 24.5076 240.721 23.6354C240.396 22.8837 240.203 22.0811 240.152 21.2635V19.5787C240.203 18.748 240.399 17.9326 240.73 17.1691C241.126 16.2932 241.781 15.5594 242.606 15.0666C243.463 14.5793 244.437 14.3331 245.423 14.3538C246.157 14.3199 246.89 14.4452 247.571 14.721C248.252 14.9968 248.865 15.4165 249.369 15.9516C250.323 17.2404 250.837 18.8014 250.837 20.4048C250.837 22.0082 250.323 23.5693 249.369 24.8581L249.372 24.8649Z" fill="#595757"/>
<path d="M327.841 21.9197H318.508C318.215 21.9197 317.925 21.9197 317.634 21.9197C317.495 21.9197 317.494 21.8941 317.446 22.0202C317.397 22.2923 317.405 22.5718 317.47 22.8405C317.511 23.1237 317.587 23.4008 317.695 23.6658C318.096 24.4847 318.677 25.2019 319.395 25.7632C320.114 26.3245 320.951 26.7152 321.842 26.9058C322.789 27.1149 323.774 27.0815 324.704 26.8088C325.635 26.536 326.481 26.0327 327.166 25.3455C327.551 24.9772 327.891 24.5594 328.284 24.1996C328.681 23.7631 329.233 23.4993 329.821 23.4645C330.41 23.4298 330.989 23.6269 331.434 24.0137C331.766 24.5143 331.936 25.1053 331.92 25.706C331.904 26.3067 331.702 26.8876 331.344 27.3696C330.154 29.0888 328.43 30.3673 326.439 31.007C323.513 32.0234 320.306 31.8651 317.494 30.5653C316.176 29.9767 315.005 29.1035 314.064 28.0085C313.124 26.9134 312.438 25.6237 312.056 24.232C311.741 23.0385 311.587 21.8084 311.599 20.5742C311.585 19.0762 311.828 17.5869 312.318 16.1713C312.763 14.8745 313.478 13.6875 314.417 12.6891C315.366 11.7007 316.526 10.9395 317.811 10.4621C319.243 9.93086 320.76 9.66838 322.287 9.68788C324.2 9.63388 326.093 10.0906 327.771 11.0112C329.21 11.808 330.396 12.9934 331.194 14.4319C331.928 15.738 332.32 17.2087 332.333 18.707C332.408 19.2105 332.337 19.7251 332.128 20.1894C331.919 20.6537 331.581 21.0483 331.154 21.3262C330.11 21.7738 328.976 21.9768 327.841 21.9197ZM317.823 18.5757H321.099H326.385C326.474 18.5846 326.563 18.5736 326.647 18.5432C326.691 18.5195 326.725 18.4823 326.744 18.4373C326.764 18.3923 326.768 18.342 326.757 18.2943C326.71 16.9726 326.217 15.7056 325.358 14.6996C324.937 14.2696 324.43 13.9329 323.871 13.7114C323.311 13.4899 322.711 13.3885 322.11 13.4139C321.521 13.3949 320.935 13.5015 320.391 13.7264C319.847 13.9513 319.357 14.2895 318.953 14.7184C318.165 15.6304 317.671 16.76 317.536 17.9584C317.502 18.0872 317.479 18.2191 317.47 18.3523C317.475 18.5194 317.598 18.5757 317.821 18.5757H317.823ZM317.634 18.5757C317.696 18.5848 317.76 18.5848 317.823 18.5757H317.634Z" fill="#595757"/>
<path d="M144.915 31.5138C142.269 31.5138 137.909 30.5793 135.936 27.9328C134.651 25.996 133.933 23.7385 133.864 21.4153C133.715 19.5867 133.675 17.7509 133.744 15.9176C133.784 14.434 133.574 12.5275 134.663 11.3373C134.916 11.0623 135.226 10.8458 135.571 10.7026C135.917 10.5595 136.289 10.4933 136.662 10.5085C138.472 10.5085 139.376 11.6005 139.373 13.7843C139.373 15.4469 139.227 17.1112 139.174 18.7739C139.079 20.0926 139.257 21.4168 139.697 22.6636C140.14 23.6656 140.875 24.5107 141.805 25.0887C142.736 25.6667 143.819 25.9507 144.914 25.9035H145.069C146.163 25.9507 147.247 25.6667 148.177 25.0887C149.108 24.5107 149.842 23.6656 150.285 22.6636C150.725 21.4168 150.904 20.0926 150.809 18.7739C150.756 17.1112 150.609 15.4452 150.609 13.7843C150.609 11.6005 151.513 10.5085 153.321 10.5085C153.694 10.4933 154.067 10.5596 154.412 10.7028C154.757 10.8459 155.068 11.0624 155.321 11.3373C156.405 12.531 156.199 14.434 156.238 15.9176C156.309 17.7509 156.269 19.5868 156.119 21.4153C156.05 23.7385 155.332 25.996 154.047 27.9328C152.076 30.5793 147.715 31.5138 145.067 31.5138H144.915Z" fill="#595757"/>
</svg>
