<svg width="79" height="79" viewBox="0 0 79 79" fill="none" xmlns="http://www.w3.org/2000/svg">
<circle cx="39.5" cy="39.5" r="39.5" fill="#89A2D0"/>
<path d="M47.3335 47.3333V30.6667C47.3335 30.1141 47.114 29.5842 46.7233 29.1935C46.3326 28.8028 45.8027 28.5833 45.2502 28.5833H24.4168C23.8643 28.5833 23.3344 28.8028 22.9437 29.1935C22.553 29.5842 22.3335 30.1141 22.3335 30.6667V47.3333C22.3335 47.8859 22.553 48.4158 22.9437 48.8065C23.3344 49.1972 23.8643 49.4167 24.4168 49.4167H45.2502C45.8027 49.4167 46.3326 49.1972 46.7233 48.8065C47.114 48.4158 47.3335 47.8859 47.3335 47.3333Z" stroke="white" stroke-width="4.16667"/>
<path d="M55.6668 28.5833L47.3335 34.8333V43.1667L55.6668 49.4167V28.5833Z" stroke="white" stroke-width="4.16667" stroke-linejoin="round"/>
</svg>
