<svg width="79" height="79" viewBox="0 0 79 79" fill="none" xmlns="http://www.w3.org/2000/svg">
<circle cx="39.5" cy="39.5" r="39.5" fill="#89A2D0"/>
<path d="M38.9998 45.25C41.21 45.25 43.3296 44.372 44.8924 42.8092C46.4552 41.2464 47.3332 39.1268 47.3332 36.9167V26.5C47.3332 24.2899 46.4552 22.1702 44.8924 20.6074C43.3296 19.0446 41.21 18.1667 38.9998 18.1667C36.7897 18.1667 34.6701 19.0446 33.1073 20.6074C31.5445 22.1702 30.6665 24.2899 30.6665 26.5V36.9167C30.6665 39.1268 31.5445 41.2464 33.1073 42.8092C34.6701 44.372 36.7897 45.25 38.9998 45.25ZM34.8332 26.5C34.8332 25.3949 35.2722 24.3351 36.0536 23.5537C36.835 22.7723 37.8948 22.3333 38.9998 22.3333C40.1049 22.3333 41.1647 22.7723 41.9461 23.5537C42.7275 24.3351 43.1665 25.3949 43.1665 26.5V36.9167C43.1665 38.0217 42.7275 39.0815 41.9461 39.8629C41.1647 40.6443 40.1049 41.0833 38.9998 41.0833C37.8948 41.0833 36.835 40.6443 36.0536 39.8629C35.2722 39.0815 34.8332 38.0217 34.8332 36.9167V26.5Z" fill="white"/>
<path d="M53.5832 36.9167C53.5832 36.3641 53.3637 35.8342 52.973 35.4435C52.5823 35.0528 52.0524 34.8333 51.4998 34.8333C50.9473 34.8333 50.4174 35.0528 50.0267 35.4435C49.636 35.8342 49.4165 36.3641 49.4165 36.9167C49.4165 39.6793 48.319 42.3289 46.3655 44.2824C44.412 46.2359 41.7625 47.3333 38.9998 47.3333C36.2372 47.3333 33.5876 46.2359 31.6341 44.2824C29.6806 42.3289 28.5832 39.6793 28.5832 36.9167C28.5832 36.3641 28.3637 35.8342 27.973 35.4435C27.5823 35.0528 27.0524 34.8333 26.4998 34.8333C25.9473 34.8333 25.4174 35.0528 25.0267 35.4435C24.636 35.8342 24.4165 36.3641 24.4165 36.9167C24.4206 40.4205 25.6861 43.8058 27.9815 46.4531C30.2768 49.1004 33.4486 50.8328 36.9165 51.3333V55.6667H32.5207C32.0289 55.6667 31.5573 55.862 31.2096 56.2097C30.8619 56.5575 30.6665 57.0291 30.6665 57.5208V57.9792C30.6665 58.4709 30.8619 58.9425 31.2096 59.2903C31.5573 59.638 32.0289 59.8333 32.5207 59.8333H45.479C45.9708 59.8333 46.4424 59.638 46.7901 59.2903C47.1378 58.9425 47.3332 58.4709 47.3332 57.9792V57.5208C47.3332 57.0291 47.1378 56.5575 46.7901 56.2097C46.4424 55.862 45.9708 55.6667 45.479 55.6667H41.0832V51.3333C44.5511 50.8328 47.7229 49.1004 50.0182 46.4531C52.3136 43.8058 53.5791 40.4205 53.5832 36.9167Z" fill="white"/>
</svg>
