<svg width="79" height="79" viewBox="0 0 79 79" fill="none" xmlns="http://www.w3.org/2000/svg">
<circle cx="39.5" cy="39.5" r="39.5" fill="#DE5C3E"/>
<path fill-rule="evenodd" clip-rule="evenodd" d="M49.7263 31.3556C50.2044 30.9574 50.821 30.7654 51.4407 30.8217C52.0603 30.878 52.6323 31.1781 53.0307 31.656L57.9194 37.5233C58.3002 38.0032 58.4782 38.6131 58.4154 39.2226C58.3526 39.832 58.054 40.3928 57.5833 40.785C57.1126 41.1772 56.5072 41.3698 55.8964 41.3217C55.2857 41.2736 54.7179 40.9885 54.3145 40.5273L49.4259 34.66C49.0277 34.1819 48.8356 33.5653 48.892 32.9456C48.9483 32.326 49.2484 31.754 49.7263 31.3556Z" fill="white"/>
<path fill-rule="evenodd" clip-rule="evenodd" d="M49.7262 46.695C49.248 46.2969 48.9474 45.7251 48.8907 45.1055C48.8339 44.4858 49.0255 43.869 49.4234 43.3906L54.3144 37.5233C54.5089 37.2781 54.7505 37.0743 55.0249 36.9239C55.2994 36.7735 55.6011 36.6795 55.9124 36.6475C56.2237 36.6154 56.5383 36.6459 56.8376 36.7372C57.1369 36.8285 57.415 36.9787 57.6554 37.1791C57.8958 37.3794 58.0937 37.6258 58.2375 37.9038C58.3812 38.1817 58.468 38.4856 58.4926 38.7976C58.5172 39.1096 58.4791 39.4233 58.3806 39.7204C58.2822 40.0174 58.1253 40.2918 57.9193 40.5273L53.0306 46.3946C52.6322 46.8725 52.0603 47.1726 51.4406 47.2289C50.821 47.2852 50.2043 47.0932 49.7262 46.695Z" fill="white"/>
<path fill-rule="evenodd" clip-rule="evenodd" d="M55.5303 39.0253C55.5303 39.6478 55.283 40.2447 54.8429 40.6849C54.4028 41.125 53.8058 41.3723 53.1834 41.3723H37.9284C37.306 41.3723 36.709 41.125 36.2689 40.6849C35.8288 40.2447 35.5815 39.6478 35.5815 39.0253C35.5815 38.4029 35.8288 37.8059 36.2689 37.3658C36.709 36.9257 37.306 36.6784 37.9284 36.6784H53.1834C53.8058 36.6784 54.4028 36.9257 54.8429 37.3658C55.283 37.8059 55.5303 38.4029 55.5303 39.0253ZM21.5 22.5969C21.5 21.9745 21.7473 21.3775 22.1874 20.9374C22.6275 20.4973 23.2245 20.25 23.8469 20.25H44.9692C45.5916 20.25 46.1886 20.4973 46.6287 20.9374C47.0688 21.3775 47.3161 21.9745 47.3161 22.5969C47.3161 23.2194 47.0688 23.8163 46.6287 24.2564C46.1886 24.6966 45.5916 24.9438 44.9692 24.9438H23.8469C23.2245 24.9438 22.6275 24.6966 22.1874 24.2564C21.7473 23.8163 21.5 23.2194 21.5 22.5969ZM21.5 55.4538C21.5 54.8313 21.7473 54.2344 22.1874 53.7942C22.6275 53.3541 23.2245 53.1068 23.8469 53.1068H44.9692C45.5916 53.1068 46.1886 53.3541 46.6287 53.7942C47.0688 54.2344 47.3161 54.8313 47.3161 55.4538C47.3161 56.0762 47.0688 56.6731 46.6287 57.1133C46.1886 57.5534 45.5916 57.8007 44.9692 57.8007H23.8469C23.2245 57.8007 22.6275 57.5534 22.1874 57.1133C21.7473 56.6731 21.5 56.0762 21.5 55.4538Z" fill="white"/>
<path fill-rule="evenodd" clip-rule="evenodd" d="M44.9692 20.25C45.5916 20.25 46.1886 20.4973 46.6287 20.9374C47.0688 21.3775 47.3161 21.9745 47.3161 22.5969V31.9846C47.3161 32.607 47.0688 33.204 46.6287 33.6441C46.1886 34.0842 45.5916 34.3315 44.9692 34.3315C44.3467 34.3315 43.7498 34.0842 43.3097 33.6441C42.8695 33.204 42.6223 32.607 42.6223 31.9846V22.5969C42.6223 21.9745 42.8695 21.3775 43.3097 20.9374C43.7498 20.4973 44.3467 20.25 44.9692 20.25ZM44.9692 43.7192C45.5916 43.7192 46.1886 43.9664 46.6287 44.4066C47.0688 44.8467 47.3161 45.4436 47.3161 46.0661V55.4538C47.3161 56.0762 47.0688 56.6731 46.6287 57.1133C46.1886 57.5534 45.5916 57.8007 44.9692 57.8007C44.3467 57.8007 43.7498 57.5534 43.3097 57.1133C42.8695 56.6731 42.6223 56.0762 42.6223 55.4538V46.0661C42.6223 45.4436 42.8695 44.8467 43.3097 44.4066C43.7498 43.9664 44.3467 43.7192 44.9692 43.7192ZM23.8469 20.25C24.4694 20.25 25.0663 20.4973 25.5064 20.9374C25.9466 21.3775 26.1938 21.9745 26.1938 22.5969V55.4538C26.1938 56.0762 25.9466 56.6731 25.5064 57.1133C25.0663 57.5534 24.4694 57.8007 23.8469 57.8007C23.2245 57.8007 22.6275 57.5534 22.1874 57.1133C21.7473 56.6731 21.5 56.0762 21.5 55.4538V22.5969C21.5 21.9745 21.7473 21.3775 22.1874 20.9374C22.6275 20.4973 23.2245 20.25 23.8469 20.25Z" fill="white"/>
</svg>
