<svg width="60" height="60" viewBox="0 0 60 60" fill="none" xmlns="http://www.w3.org/2000/svg">
<circle cx="30" cy="30" r="30" fill="#636363"/>
<path d="M15.3798 25.9018V22.5394L22.5396 15.3796H25.9019L15.3798 25.9018ZM15.3798 18.1486V15.3796H18.1487L15.3798 18.1486ZM36.2263 20.7989C35.9626 20.5089 35.6793 20.2256 35.3766 19.9493C35.0739 19.6729 34.7637 19.4287 34.4462 19.2167L38.2832 15.3796H41.6456L36.2263 20.7989ZM19.3355 34.3274L22.3813 31.2815C22.5659 31.5716 22.7574 31.8353 22.9557 32.0727C23.154 32.31 23.3713 32.5342 23.6076 32.7451C22.8692 32.9297 22.1245 33.1608 21.3734 33.4382C20.6224 33.7156 19.9431 34.012 19.3355 34.3274ZM38.3228 26.5347V26.4556C38.3228 25.9545 38.2832 25.4667 38.2041 24.992C38.125 24.5173 38.0063 24.0558 37.8481 23.6075L43.8608 17.5948V20.9967L38.3228 26.5347ZM27.8798 17.9113L30.451 15.3796H33.8133L31.2817 17.9113C30.9916 17.8585 30.7147 17.819 30.451 17.7926C30.1873 17.7662 29.9104 17.7531 29.6203 17.7531C29.3302 17.7531 29.0401 17.7662 28.75 17.7926C28.4599 17.819 28.1698 17.8585 27.8798 17.9113ZM15.3798 33.7736V30.4113L21.076 24.7151C21.0232 25.0052 20.9837 25.2952 20.9573 25.5853C20.9309 25.8754 20.9177 26.1655 20.9177 26.4556C20.9177 26.7457 20.9309 27.0226 20.9573 27.2863C20.9837 27.55 21.0232 27.8137 21.076 28.0774L15.3798 33.7736ZM43.4256 37.0569C43.2147 36.7404 42.971 36.4371 42.6946 36.147C42.4183 35.857 42.1213 35.5932 41.8038 35.3559L43.8608 33.2989V36.6613L43.4256 37.0569ZM38.837 33.8132C38.6524 33.7341 38.4678 33.6613 38.2832 33.5948C38.0986 33.5284 37.914 33.4693 37.7294 33.4176C37.4921 33.3385 37.2616 33.2594 37.038 33.1803C36.8144 33.1012 36.5833 33.0352 36.345 32.9825L43.8608 25.4271V28.829L38.837 33.8132ZM29.6203 32.7847C27.8798 32.7847 26.3898 32.165 25.1503 30.9255C23.9109 29.6861 23.2912 28.1961 23.2912 26.4556C23.2912 24.7151 23.9109 23.2251 25.1503 21.9857C26.3898 20.7462 27.8798 20.1265 29.6203 20.1265C31.3608 20.1265 32.8508 20.7462 34.0902 21.9857C35.3297 23.2251 35.9494 24.7151 35.9494 26.4556C35.9494 28.1961 35.3297 29.6861 34.0902 30.9255C32.8508 32.165 31.3608 32.7847 29.6203 32.7847ZM29.6203 29.6201C30.4905 29.6201 31.2358 29.31 31.856 28.6898C32.4763 28.0695 32.7859 27.3248 32.7848 26.4556C32.7838 25.5864 32.4742 24.8417 31.856 24.2214C31.2379 23.6012 30.4926 23.291 29.6203 23.291C28.7479 23.291 28.0032 23.6012 27.3861 24.2214C26.769 24.8417 26.4589 25.5864 26.4557 26.4556C26.4525 27.3248 26.7627 28.07 27.3861 28.6913C28.0095 29.3127 28.7542 29.6223 29.6203 29.6201ZM16.962 43.8607V41.0521C16.962 40.1555 17.1862 39.3248 17.6345 38.56C18.0828 37.7952 18.7025 37.2151 19.4937 36.8195C20.8386 36.1339 22.3618 35.5537 24.0633 35.079C25.7648 34.6043 27.6171 34.367 29.6203 34.367C31.6234 34.367 33.4763 34.6043 35.1788 35.079C36.8813 35.5537 38.404 36.1339 39.7468 36.8195C40.538 37.2151 41.1577 37.7952 41.606 38.56C42.0543 39.3248 42.2785 40.1555 42.2785 41.0521V43.8607H16.962ZM20.1662 40.6961H39.0744C39.0216 40.4588 38.9293 40.2546 38.7975 40.0838C38.6656 39.9129 38.4942 39.7742 38.2832 39.6676C37.3339 39.1929 36.1277 38.7182 34.6646 38.2436C33.2015 37.7689 31.5201 37.5315 29.6203 37.5315C27.7205 37.5315 26.0396 37.7689 24.5775 38.2436C23.1155 38.7182 21.9088 39.1929 20.9573 39.6676C20.7463 39.7731 20.5749 39.9181 20.4431 40.1027C20.3112 40.2873 20.2189 40.4851 20.1662 40.6961Z" fill="white"/>
</svg>
