<svg width="60" height="60" viewBox="0 0 60 60" fill="none" xmlns="http://www.w3.org/2000/svg">
<circle cx="30" cy="30" r="30" fill="#89A2D0"/>
<path d="M15.3797 25.9018V22.5394L22.5395 15.3796H25.9019L15.3797 25.9018ZM15.3797 18.1486V15.3796H18.1487L15.3797 18.1486ZM36.2262 20.7989C35.9625 20.5089 35.6793 20.2256 35.3765 19.9493C35.0738 19.6729 34.7637 19.4287 34.4462 19.2167L38.2832 15.3796H41.6455L36.2262 20.7989ZM19.3354 34.3274L22.3813 31.2815C22.5659 31.5716 22.7573 31.8353 22.9556 32.0727C23.154 32.31 23.3713 32.5342 23.6075 32.7451C22.8692 32.9297 22.1244 33.1608 21.3734 33.4382C20.6223 33.7156 19.943 34.012 19.3354 34.3274ZM38.3227 26.5347V26.4556C38.3227 25.9545 38.2832 25.4667 38.2041 24.992C38.125 24.5173 38.0063 24.0558 37.8481 23.6075L43.8607 17.5948V20.9967L38.3227 26.5347ZM27.8797 17.9113L30.4509 15.3796H33.8132L31.2816 17.9113C30.9915 17.8585 30.7146 17.819 30.4509 17.7926C30.1872 17.7662 29.9103 17.7531 29.6202 17.7531C29.3301 17.7531 29.04 17.7662 28.75 17.7926C28.4599 17.819 28.1698 17.8585 27.8797 17.9113ZM15.3797 33.7736V30.4113L21.0759 24.7151C21.0232 25.0052 20.9836 25.2952 20.9572 25.5853C20.9309 25.8754 20.9177 26.1655 20.9177 26.4556C20.9177 26.7457 20.9309 27.0226 20.9572 27.2863C20.9836 27.55 21.0232 27.8137 21.0759 28.0774L15.3797 33.7736ZM43.4256 37.0569C43.2146 36.7404 42.9709 36.4371 42.6946 36.147C42.4182 35.857 42.1213 35.5932 41.8038 35.3559L43.8607 33.2989V36.6613L43.4256 37.0569ZM38.837 33.8132C38.6524 33.7341 38.4678 33.6613 38.2832 33.5948C38.0986 33.5284 37.914 33.4693 37.7294 33.4176C37.492 33.3385 37.2616 33.2594 37.0379 33.1803C36.8143 33.1012 36.5833 33.0352 36.3449 32.9825L43.8607 25.4271V28.829L38.837 33.8132ZM29.6202 32.7847C27.8797 32.7847 26.3897 32.165 25.1503 30.9255C23.9108 29.6861 23.2911 28.1961 23.2911 26.4556C23.2911 24.7151 23.9108 23.2251 25.1503 21.9857C26.3897 20.7462 27.8797 20.1265 29.6202 20.1265C31.3607 20.1265 32.8507 20.7462 34.0901 21.9857C35.3296 23.2251 35.9493 24.7151 35.9493 26.4556C35.9493 28.1961 35.3296 29.6861 34.0901 30.9255C32.8507 32.165 31.3607 32.7847 29.6202 32.7847ZM29.6202 29.6201C30.4905 29.6201 31.2357 29.31 31.856 28.6898C32.4762 28.0695 32.7858 27.3248 32.7848 26.4556C32.7837 25.5864 32.4741 24.8417 31.856 24.2214C31.2378 23.6012 30.4926 23.291 29.6202 23.291C28.7478 23.291 28.0031 23.6012 27.386 24.2214C26.7689 24.8417 26.4588 25.5864 26.4556 26.4556C26.4525 27.3248 26.7626 28.07 27.386 28.6913C28.0094 29.3127 28.7542 29.6223 29.6202 29.6201ZM16.962 43.8607V41.0521C16.962 40.1555 17.1861 39.3248 17.6344 38.56C18.0828 37.7952 18.7025 37.2151 19.4936 36.8195C20.8386 36.1339 22.3618 35.5537 24.0632 35.079C25.7647 34.6043 27.617 34.367 29.6202 34.367C31.6234 34.367 33.4762 34.6043 35.1787 35.079C36.8813 35.5537 38.404 36.1339 39.7468 36.8195C40.5379 37.2151 41.1577 37.7952 41.606 38.56C42.0543 39.3248 42.2784 40.1555 42.2784 41.0521V43.8607H16.962ZM20.1661 40.6961H39.0743C39.0216 40.4588 38.9293 40.2546 38.7974 40.0838C38.6656 39.9129 38.4942 39.7742 38.2832 39.6676C37.3338 39.1929 36.1276 38.7182 34.6645 38.2436C33.2014 37.7689 31.52 37.5315 29.6202 37.5315C27.7204 37.5315 26.0395 37.7689 24.5775 38.2436C23.1155 38.7182 21.9087 39.1929 20.9572 39.6676C20.7463 39.7731 20.5748 39.9181 20.443 40.1027C20.3111 40.2873 20.2188 40.4851 20.1661 40.6961Z" fill="white"/>
</svg>
