<svg width="79" height="79" viewBox="0 0 79 79" fill="none" xmlns="http://www.w3.org/2000/svg">
<circle cx="39.5" cy="39.5" r="39.5" fill="#636363"/>
<path d="M34.8336 26.5C34.8336 25.3949 35.2725 24.3351 36.0539 23.5537C36.8353 22.7723 37.8952 22.3333 39.0002 22.3333C40.1053 22.3333 41.1651 22.7723 41.9465 23.5537C42.7279 24.3351 43.1669 25.3949 43.1669 26.5V36.9167C43.1758 37.0276 43.1758 37.1391 43.1669 37.25L46.5002 40.5625C47.0506 39.4261 47.3356 38.1794 47.3336 36.9167V26.5C47.3105 24.4421 46.5268 22.4655 45.1333 20.9509C43.7399 19.4364 41.8353 18.491 39.7864 18.297C37.7375 18.103 35.6893 18.674 34.0363 19.9001C32.3833 21.1261 31.2425 22.9205 30.8336 24.9375L34.8336 28.9375V26.5ZM53.5836 36.9167C53.5836 36.3641 53.3641 35.8342 52.9734 35.4435C52.5827 35.0528 52.0528 34.8333 51.5002 34.8333C50.9477 34.8333 50.4178 35.0528 50.0271 35.4435C49.6364 35.8342 49.4169 36.3641 49.4169 36.9167C49.4108 38.7368 48.9142 40.5216 47.9794 42.0833L51.0419 45.25C52.7184 42.7961 53.6053 39.8885 53.5836 36.9167ZM39.0002 45.25H39.3336L30.6669 36.5625V36.9167C30.6669 39.1268 31.5449 41.2464 33.1077 42.8092C34.6705 44.372 36.7901 45.25 39.0002 45.25ZM57.1461 54.1875L23.8127 20.8542C23.6185 20.6599 23.3879 20.5058 23.1341 20.4007C22.8803 20.2956 22.6083 20.2415 22.3336 20.2415C22.0589 20.2415 21.7868 20.2956 21.533 20.4007C21.2792 20.5058 21.0486 20.6599 20.8544 20.8542C20.4621 21.2465 20.2417 21.7785 20.2417 22.3333C20.2417 22.8881 20.4621 23.4202 20.8544 23.8125L54.1877 57.1458C54.3814 57.3411 54.6118 57.4961 54.8657 57.6019C55.1196 57.7076 55.3919 57.7621 55.6669 57.7621C55.9419 57.7621 56.2142 57.7076 56.4681 57.6019C56.722 57.4961 56.9524 57.3411 57.1461 57.1458C57.3413 56.9522 57.4963 56.7217 57.6021 56.4679C57.7078 56.214 57.7623 55.9417 57.7623 55.6667C57.7623 55.3916 57.7078 55.1193 57.6021 54.8655C57.4963 54.6116 57.3413 54.3812 57.1461 54.1875Z" fill="white"/>
<path d="M45.2498 55.6667H41.0832V51.3334C42.2621 51.1693 43.4165 50.8614 44.5207 50.4167L41.1873 47.0834C40.4702 47.2505 39.7362 47.3344 38.9998 47.3334C36.2372 47.3334 33.5876 46.2359 31.6341 44.2824C29.6806 42.3289 28.5832 39.6794 28.5832 36.9167C28.5832 36.3642 28.3637 35.8343 27.973 35.4436C27.5823 35.0529 27.0524 34.8334 26.4998 34.8334C25.9473 34.8334 25.4174 35.0529 25.0267 35.4436C24.636 35.8343 24.4165 36.3642 24.4165 36.9167C24.4206 40.4206 25.6861 43.8058 27.9815 46.4531C30.2768 49.1004 33.4486 50.8328 36.9165 51.3334V55.6667H32.7498C32.1973 55.6667 31.6674 55.8862 31.2767 56.2769C30.886 56.6676 30.6665 57.1975 30.6665 57.75C30.6665 58.3026 30.886 58.8325 31.2767 59.2232C31.6674 59.6139 32.1973 59.8334 32.7498 59.8334H45.2498C45.8024 59.8334 46.3323 59.6139 46.723 59.2232C47.1137 58.8325 47.3332 58.3026 47.3332 57.75C47.3332 57.1975 47.1137 56.6676 46.723 56.2769C46.3323 55.8862 45.8024 55.6667 45.2498 55.6667Z" fill="white"/>
</svg>
