<svg width="79" height="79" viewBox="0 0 79 79" fill="none" xmlns="http://www.w3.org/2000/svg">
<circle cx="39.5" cy="39.5" r="39.5" fill="#89A2D0"/>
<path d="M54.625 20.25H23.375C22.5462 20.25 21.7513 20.5792 21.1653 21.1653C20.5792 21.7513 20.25 22.5462 20.25 23.375V54.625C20.25 55.4538 20.5792 56.2487 21.1653 56.8347C21.7513 57.4208 22.5462 57.75 23.375 57.75H54.625C55.4538 57.75 56.2487 57.4208 56.8347 56.8347C57.4208 56.2487 57.75 55.4538 57.75 54.625V23.375C57.75 22.5462 57.4208 21.7513 56.8347 21.1653C56.2487 20.5792 55.4538 20.25 54.625 20.25Z" stroke="white" stroke-width="4.16667" stroke-linecap="round" stroke-linejoin="round"/>
<path d="M57.75 51.5L46.2917 41.0833L35.875 50.4583L28.5833 44.2083L20.25 50.4583M32.75 37.9583C34.1313 37.9583 35.4561 37.4096 36.4328 36.4328C37.4096 35.4561 37.9583 34.1313 37.9583 32.75C37.9583 31.3687 37.4096 30.0439 36.4328 29.0671C35.4561 28.0904 34.1313 27.5417 32.75 27.5417C31.3687 27.5417 30.0439 28.0904 29.0672 29.0671C28.0904 30.0439 27.5417 31.3687 27.5417 32.75C27.5417 34.1313 28.0904 35.4561 29.0672 36.4328C30.0439 37.4096 31.3687 37.9583 32.75 37.9583Z" stroke="white" stroke-width="4.16667" stroke-linecap="round" stroke-linejoin="round"/>
</svg>
