<svg width="79" height="79" viewBox="0 0 79 79" fill="none" xmlns="http://www.w3.org/2000/svg">
<circle cx="39.5" cy="39.5" r="39.5" fill="#636363"/>
<path d="M20.25 24.4166L49.4167 53.5833M32.75 28.5833H45.25C45.8025 28.5833 46.3324 28.8028 46.7231 29.1935C47.1138 29.5842 47.3333 30.1141 47.3333 30.6666V42.125C47.3333 42.4484 47.4086 42.7674 47.5533 43.0567C47.6979 43.3459 47.9079 43.5976 48.1667 43.7916L55.6667 49.4166V28.5833L47.3333 34.8333M45.25 49.4166H24.4167C23.8641 49.4166 23.3342 49.1971 22.9435 48.8064C22.5528 48.4157 22.3333 47.8858 22.3333 47.3333V30.6666C22.3333 30.1141 22.5528 29.5842 22.9435 29.1935C23.3342 28.8028 23.8641 28.5833 24.4167 28.5833" stroke="white" stroke-width="4.16667" stroke-linecap="round" stroke-linejoin="round"/>
</svg>
