<svg width="60" height="60" viewBox="0 0 60 60" fill="none" xmlns="http://www.w3.org/2000/svg">
<circle cx="30" cy="30" r="30" fill="#636363"/>
<path d="M41.4873 15.3796H17.7531C17.1236 15.3796 16.52 15.6297 16.0749 16.0748C15.6298 16.5199 15.3797 17.1236 15.3797 17.7531V41.4872C15.3797 42.1167 15.6298 42.7204 16.0749 43.1655C16.52 43.6106 17.1236 43.8607 17.7531 43.8607H41.4873C42.1168 43.8607 42.7205 43.6106 43.1656 43.1655C43.6107 42.7204 43.8607 42.1167 43.8607 41.4872V17.7531C43.8607 17.1236 43.6107 16.5199 43.1656 16.0748C42.7205 15.6297 42.1168 15.3796 41.4873 15.3796Z" stroke="white" stroke-width="3.16456" stroke-linecap="round" stroke-linejoin="round"/>
<path d="M43.8607 39.1139L35.1582 31.2025L27.2468 38.3228L21.7088 33.576L15.3797 38.3228M24.8734 28.8291C25.9225 28.8291 26.9286 28.4124 27.6705 27.6705C28.4123 26.9287 28.8291 25.9225 28.8291 24.8734C28.8291 23.8243 28.4123 22.8182 27.6705 22.0763C26.9286 21.3345 25.9225 20.9177 24.8734 20.9177C23.8243 20.9177 22.8181 21.3345 22.0763 22.0763C21.3344 22.8182 20.9177 23.8243 20.9177 24.8734C20.9177 25.9225 21.3344 26.9287 22.0763 27.6705C22.8181 28.4124 23.8243 28.8291 24.8734 28.8291Z" stroke="white" stroke-width="3.16456" stroke-linecap="round" stroke-linejoin="round"/>
</svg>
