<svg width="70" height="70" viewBox="0 0 70 70" fill="none" xmlns="http://www.w3.org/2000/svg">
<path d="M8.75 14.5834L49.5833 55.4167M26.25 20.4167H43.75C44.5236 20.4167 45.2654 20.724 45.8124 21.271C46.3594 21.818 46.6667 22.5598 46.6667 23.3334V39.375C46.6667 39.8278 46.7721 40.2744 46.9746 40.6794C47.1771 41.0844 47.4711 41.4367 47.8333 41.7084L58.3333 49.5834V20.4167L46.6667 29.1667M43.75 49.5834H14.5833C13.8098 49.5834 13.0679 49.2761 12.5209 48.7291C11.974 48.1821 11.6667 47.4403 11.6667 46.6667V23.3334C11.6667 22.5598 11.974 21.818 12.5209 21.271C13.0679 20.724 13.8098 20.4167 14.5833 20.4167" stroke="#D8D8D8" stroke-width="6.66667" stroke-linecap="round" stroke-linejoin="round"/>
</svg>
