<?xml version="1.0" encoding="utf-8"?>
<!-- Generator: Adobe Illustrator 27.0.0, SVG Export Plug-In . SVG Version: 6.00 Build 0)  -->
<svg version="1.1" id="圖層_1" xmlns="http://www.w3.org/2000/svg" xmlns:xlink="http://www.w3.org/1999/xlink" x="0px" y="0px"
	 viewBox="0 0 400 400" style="enable-background:new 0 0 400 400;" xml:space="preserve">
<style type="text/css">
	.st0{fill:#8A9CC5;stroke:#2A2724;stroke-width:5.7287;stroke-miterlimit:10;}
	.st1{fill:#2A2724;}
	.st2{fill:#6D89BB;}
	.st3{fill:none;stroke:#2A2724;stroke-width:5.7287;stroke-miterlimit:10;}
	.st4{fill:#F9C700;stroke:#2A2724;stroke-width:5.7287;stroke-linecap:round;stroke-linejoin:round;stroke-miterlimit:10;}
	.st5{fill:#929397;stroke:#2A2724;stroke-width:5.7287;stroke-miterlimit:10;}
	.st6{opacity:0.5;}
	.st7{clip-path:url(#SVGID_00000055675838817718504540000008814162138535375259_);fill:#E1E3E2;}
	.st8{fill:#8A9CC5;stroke:#2A2724;stroke-width:5.7287;stroke-linecap:round;stroke-miterlimit:10;}
</style>
<g>
	<path class="st0" d="M111.6,317.2c-79-68.7-97.5-176.8-41.3-241.4l2.2-2.5c26.2-30.1,72.3-32.9,103-6.2c8.7,7.6,15.6,17.1,20,27.8
		c4.5,10.9,6.3,22.9,5.3,34.6c-1.2,13.1-8,22.7-11.1,35.1c-4.1,16.3,4.5,33.1,16.7,43.7l0.8,0.7c12.1,10.6,30.1,16.7,45.6,10.4
		c11.8-4.8,20.4-12.9,33.2-15.8c11.5-2.7,23.6-2.5,35,0.4c11.2,2.9,21.6,8.4,30.3,16c30.7,26.7,34.3,72.7,8.1,102.8l-2.2,2.5
		c-56.2,64.6-165.8,61.4-244.8-7.3L111.6,317.2z"/>
	<g>
		<circle class="st1" cx="168.5" cy="93" r="5.9"/>
		<circle class="st1" cx="134.5" cy="94.3" r="5.9"/>
		<g>
			<g>
				<path class="st1" d="M157.6,106.5c-0.3,0.2,0.6-0.5,0.4-0.3C157.9,106.2,157.7,106.3,157.6,106.5c-0.3,0.2-0.7,0.4-1.1,0.7
					c-0.6,0.4-1.2,0.7-1.8,0.9c-0.6,0.3,0.6-0.2,0,0c-0.2,0.1-0.4,0.1-0.5,0.2c-0.4,0.1-0.8,0.3-1.3,0.4c-0.5,0.1-0.9,0.2-1.4,0.3
					c-0.6,0.1,0.5,0-0.2,0c-0.2,0-0.5,0-0.7,0.1c-0.5,0-0.9,0-1.4,0c-0.2,0-0.5,0-0.7-0.1c0.6,0.1-0.3-0.1-0.4-0.1
					c-0.6-0.1-1.1-0.3-1.6-0.5c-0.2-0.1-0.6-0.2-1.1-0.5c-1.2-0.7-2-1.3-3-2.3c-2.5-2.5-6.4,1.4-3.9,3.9c4.2,4.1,9.7,6,15.4,4.6
					c2.7-0.6,5.4-1.9,7.6-3.7c1.1-0.9,1-2.9,0-3.9C160.3,105.3,158.7,105.5,157.6,106.5L157.6,106.5z"/>
			</g>
		</g>
	</g>
	<path class="st2" d="M370.6,261.4c-0.4,0.4,0,1.2-0.8,1.2c-0.7,0-0.7-0.9-0.9-1c-1-0.7-0.9-2.7-2.7-2.4c-0.3,0-0.8-0.2-1-0.5
		c-0.9-1.5-2.4-1.7-3.9-2c-3.9-0.7-7.8-1.4-11.7-2.1c-0.3-0.1-0.8-0.2-0.9,0c-1.3,1.4-2.8,0.7-4.3,0.4c-0.7-0.1-1.2-0.2-1.4,0.6
		c0,0.1-0.2,0.4-0.2,0.4c-1.4-0.3-2.6,0.1-3.8,0.8c-0.6,0.3-1.9-0.8-2.2,0.8c0,0.1-0.4,0.1-0.6,0.1c-1.8-0.3-3,0.7-3.9,2
		c-0.2,0.3-0.3,0.1-0.5,0.1c-1.9-0.5-3.3,0.1-4.2,1.9c-1.2-0.5-1.4,1.2-2.5,1.2c-0.7,0-0.8,1.5-2,1.2c0.1,1.4-1.9,0.8-2,2
		c-1.3-0.5-1.4,1.7-2.7,1.3c-0.3,1-1.5,1-2.1,1.7c-0.7,0.7-1.5,1.2-2.4,1.8c-1,0.6-1.9,1.6-2.5,2.6c-0.3,0.5-0.9,0.7-1.1,1
		c-0.7,1.1-2.5,0.9-2.7,2.8c-0.1,0.9-2,1.8-2.2,3.3c-1.6-0.4-1.3,0.9-1.5,1.7c-0.1,0.4-0.1,0.9-0.8,0.7c-0.5-0.2-1,0.1-0.9,0.8
		c0,0.2-0.1,0.5-0.3,0.4c-1.4-0.3-1.1,0.8-1.4,1.5c-0.4,0.8,0.3,2.5-1.7,2.3c-0.4-0.1-0.1,0.8-0.4,1.1c-0.4,0.6,0,1.7-1.4,1.4
		c-0.4-0.1-0.5,0.6-0.6,1c-0.4,1.1,0.5,2.9-1.7,2.9c-0.2,0-0.4,1.6-0.6,2.4c-0.2,0.7,0,1.7-1.3,1.3c-0.5-0.1-0.4,0.3-0.4,0.6
		c-0.1,1-0.3,1.9-0.5,2.8c-0.2,0.8,0.2,2-1.4,1.9c-0.5,0-0.5,0.9-0.7,1.5c-0.3,0.9,0.2,2.6-1.7,2.4c0,0-0.1,0.4-0.2,0.6
		c-0.2,0.9-0.2,2-1.6,2c-0.4,0-0.5,0.6-0.5,0.9c-0.1,0.8,0,1.8-1.3,1.4c0,0-0.1,0-0.2,0c0.2,1.9-2,2.3-2.3,3.9
		c-0.1,0.7-0.5,0.9-1.1,1.3c-0.9,0.5-2.4,0.6-2.5,2.2c-0.1,0.7-0.2,1.2-1.2,1.4c-0.6,0.1-1.1,1.1-2,1.4c-0.4,0.2-0.6,1.1-1.5,0.8
		c-0.1,0-0.4,0.2-0.3,0.2c0.3,1.6-1.1,2.2-2,3c-0.8,0.6-1.8,0.9-2.5,1.5c-0.7,0.6-1.6,1-2.2,1.6c-0.4,0.4-0.7,0.6-1.2,0.6
		c-0.8-0.1-1.9-0.8-2,0.9c-1.3-0.4-1.8,1.8-3.3,0.9c-0.4-0.3-1.2-0.4-1.3,0.6c0,0.1-0.2,0.4-0.2,0.4c-1.4-0.3-2.4,0.7-3.7,0.9
		c-0.8,0.1-2-0.8-2.2,0.9c0,0.1-0.2,0.2-0.3,0.2c-1.9-1.1-3.6,1.6-5.5,0.4c-0.6-0.4-1.5-0.5-1.7,0.7c-0.1,0.6-0.6,0.2-0.9,0.2
		c-1.8-0.3-3.6-0.7-5.3-1c-0.5-0.1-1.4-0.4-1.5-0.2c-1.6,2.5-3.5,0.2-5.3,0.4c-1.5,0.1-3.1-0.5-4.6-0.8c-0.8-0.2-1.7-0.7-2.2,0.6
		c-0.2,0.5-0.8,0.2-1.2,0.1c-3.4-0.6-6.8-1.2-10.2-1.9c-0.3-0.1-0.8,0-0.8-0.4c0.2-1.8-1.3-1.4-2.1-1.6c-2-0.5-4.1-0.8-6.1-1.2
		c-0.6-0.1-1.4-0.1-1.1-1.2c0.1-0.6-0.4-0.5-0.8-0.5c-1.3-0.3-2.7-0.4-4-0.8c-0.8-0.2-2.2,0.3-2-1.5c0.1-0.4-0.7-0.3-1.1-0.4
		c-2.7-0.6-5.5-1.1-8.2-1.6c-0.7-0.1-1.4-0.2-1.4-1.1c0-0.8-0.7-0.7-1.2-0.8c-2.4-0.5-4.8-0.9-7.1-1.3c-0.3-0.1-0.8-0.1-0.9-0.4
		c-0.2-1.9-1.7-1.4-2.8-1.7c-2-0.5-4-0.9-6-1.2c-0.3-0.1-0.8,0-0.8-0.4c0.2-1.5-1.1-1.3-1.9-1.6c-1-0.3-2.1-0.4-3.2-0.6
		c-0.8-0.1-1.7,0.2-1.6-1.3c0.1-0.7-1.2-0.4-1.8-0.7c-0.8-0.4-2.4,0.3-2.1-1.6c0.1-0.4-0.7-0.3-1.1-0.4c-1.1-0.4-2.7,0.1-3-1.8
		c-0.1-0.4-1-0.4-1.6-0.5c-0.9-0.1-1.8-0.1-2-1.4c-0.1-0.9-1.2-0.5-1.8-0.7c-0.9-0.3-2-0.2-2.2-1.4c-0.1-0.4-0.5-0.4-0.9-0.6
		c-0.6-0.2-1.8,0-1.5-1.3c0-0.1-0.3-0.4-0.6-0.5c-0.9-0.3-2.2,0-2.1-1.7c0-0.3-0.5-0.3-0.8-0.4c-0.7-0.2-1.7,0.1-1.5-1.3
		c0.1-0.5-0.9-0.6-1.5-0.6c-0.6,0-1.4,0-1.1-1.1c0.2-0.8-0.6-0.5-1-0.7c-0.7-0.3-1.9,0.1-1.7-1.4c0-0.3-0.5-0.5-0.9-0.6
		c-0.8-0.2-1.9-0.1-1.5-1.5c-1.3-0.2-0.9-2.4-2.7-2.1c-0.4,0.1-1.1-0.2-1-0.8c0.3-1-0.3-0.9-0.9-1c-1.9-0.1-2.1-1.7-2.6-2.9
		c-0.3-0.8-0.8-0.5-1.3-0.7c-0.6-0.2-0.9-0.6-1.4-1c-0.8-0.8-0.8-2.7-2.6-2.6c-1.3,0.1-0.9-1.7-2-1.9c0.4-1.3-1.8-1.3-1.3-2.6
		c-1.2-0.2-0.8-1.8-1.9-2.3c-0.6-0.2-1.4-1.5-1.4-1.9c0-1.2-1.8-1.3-1.4-2.6c-1.4,0.1-0.3-2.4-2.1-1.9c0-0.8-0.1-1.5-1-1.7
		c0.6-1.3-1.7-1.3-1.1-2.6c-1.2-0.3-0.9-1.7-1.8-2.2c-0.7-0.4-1-1.4-1.6-2.2c-1.2-1.6-1.6-3.5-2-5.3c-1.5,0.1-0.7-2.1-2.1-2.1
		c0.2-1.3-1.8-1.6-1.2-3.1c0.3-0.8-0.9-2.8-1.8-3.1c-0.6-0.2-0.3-0.6-0.3-0.9c0.1-0.9,0.6-1.6-0.6-2.5c-0.6-0.5-2.3-1.9-1.1-3.5
		c0.1-0.1-0.1-0.6-0.1-0.6c-1.7-0.2-0.7-1.3-0.7-2.1c-0.1-1.1-1.1-1.8-1.6-2.7c-0.1-0.2-0.4-0.2-0.6-0.3c1-1.7-1.1-2.9-0.8-4.5
		c0-0.3,0.4-0.8,0.1-0.9c-1.6-0.4-0.9-1.4-0.7-2.4c0-0.2,0-0.7-0.1-0.7c-1.5-0.5-0.5-2-0.9-2.5c-1-1.2-0.4-2.9-1-3.4
		c-1-0.9-0.7-1.5-0.6-2.4c0-0.2,0-0.6-0.1-0.6c-1.7-0.4-0.9-1.6-0.8-2.6c0.1-0.6-0.4-0.6-0.5-0.8c-0.6-1.3-2.5-2.1-1.5-4
		c0.1-0.2,0.2-0.5-0.1-0.6c-1.7-0.2-0.9-1.3-0.8-2.1c0-0.2,0-0.6-0.1-0.6c-1.6-0.6-0.8-1.7-0.7-2.7c0-0.2,0.1-0.6,0.1-0.6
		c-2.1-0.6-0.7-2-0.7-3.1c0-0.6,0.5-1.5-0.7-1.6c0.1-1.5-0.9-2.7-1.1-4.1c-0.1-0.6,0.3-1.3,0.4-2c0.1-0.5,0.5-1.1-0.6-1.2
		c-0.8-0.1-0.4-1.1-0.3-1.7c0.1-1,1.2-2.3-0.6-3c-0.2-0.1-0.1-0.8,0-1.2c0.2-1.1,1.2-2.3-0.6-3.2c-0.4-0.2,0.1-1.3,0.2-1.9
		c0.1-0.8,0.8-1.8-0.7-2.2c-0.5-0.1-0.2-0.6-0.2-1c0.2-0.9,0.4-1.9,0.6-2.9c0.1-0.7,0.6-1.6-0.7-1.9c-0.8-0.2-0.1-0.9-0.1-1.4
		c-0.1-1.1,1.2-2.4-0.7-3.1c-0.3-0.1,0.1-1.3,0.3-2c0.2-0.9,1-2-0.7-2.3c-0.3-0.1-0.3-0.4-0.2-0.7c0.2-1.4,1.1-2.8-0.4-4.2
		c-0.6-0.5,0.2-2.1,0.4-3.2c0.2-0.8,0.6-1.6-0.6-2.2c-0.9-0.5-0.1-1.4-0.1-2.1c0-0.9,0.6-1.7-0.6-2.5c-0.6-0.4-2.2-1.8-1.1-3.5
		c0.1-0.2,0.2-0.4,0-0.6c-1.1-0.8-1.8-1.9-2.3-3.1c-0.1-0.3-0.4-0.3-0.7-0.4c-0.8-0.3-2.1,0.2-1.8-1.5c0.1-0.5-0.9-0.4-1.4-0.5
		c-0.5-0.2-1.4,0-1.1-1.1c0.2-0.6-0.4-0.6-0.8-0.7c-3.5-0.7-7.1-1.4-10.6-2c-0.3-0.1-0.8-0.2-0.8,0.3c-0.2,1.2-1,0.9-1.7,0.7
		c-0.6-0.1-1.2-0.3-1.4,0.6c0,0.2-0.3,0.4-0.4,0.4c-1.5-0.7-2.8,0.4-3.6,1c-0.8,0.6-2.6,0.5-2.4,2.4c0.1,1-0.5,1.5-1.6,1.1
		c-0.3,0.4,0,1-0.5,1.3c-0.2,3.1-1,6.1-1.5,9.1c0,0.3,0,0.5,0,0.8c0.7,0,1.4,0,1,1.1c-0.2,0.6-0.2,1.2-0.3,1.8
		c-0.1,1.9-1.1,3.7-0.8,5.6c1-0.2,1.4,0.1,0.8,1.1c0,1.7-0.5,3.3-0.8,4.9c-0.1,0.4,0,0.7,0.1,1c1-0.1,1.3,0.3,0.7,1.2
		c0.4,1-0.4,1.8-0.3,2.8c0.1,0.8-0.6,1.5,0.7,2.1c0.7,0.3-0.3,1.7-0.2,2.7c0.1,0.6-0.6,1.2,0.5,1.7c0.8,0.4,0.1,1.5,0.1,2.3
		c0,0.6-0.4,1.2-0.2,1.9c1.2,0.2,1.3,0.3,0.8,1.2c0.4,1.2-0.3,2.2-0.4,3.3c1.3-0.2,1.8,0.2,0.9,1.4c0.3,0.5-0.2,1-0.1,1.6
		c0.1,0.5-0.6,1.3,0.7,1.4c0.4,0,0.4,0.4,0.3,0.9c-0.2,0.7-0.7,1.4-0.1,2.2c1.1-0.2,1.3,0.2,0.7,1.1c0.3,0.7-0.3,1.3-0.3,2
		c0,0.6-0.2,1.1,0.6,1.3c0.2,0,0.5,0.3,0.5,0.4c-1.1,1.9,1.5,3.3,0.6,5.2c-0.1,0.1,0.1,0.3,0.1,0.5c1.8-0.2,1.1,0.7,0.6,1.5
		c0.4,0.5-0.1,0.9-0.1,1.4c1,0,2,0,0.9,1.4c0.7,0.5-0.4,1.2,0.1,1.7c0.5-0.1,1-0.1,1.2,0.5c0.2,0.4-0.1,0.6-0.4,0.7
		c0.5,0.6-0.2,1.9,1.2,2.1c0.4,0.1-0.1,0.9,0,1.3c0.1,0.5-1,1.5,0.7,1.5c0.4,0,0.2,0.9,0.2,1.3c0.1,0.5-1.3,1.7,0.7,1.6
		c0.4,0,0.3,0.9,0.2,1.5c-0.1,0.7-0.4,1.5,0.8,1.7c0.7,0.1,0,0.9,0.2,1c1.5,0.7,1,1.8,0.8,2.9c0,0.1,0.2,0.4,0.2,0.4
		c1.4-0.1,0.7,1.1,1,1.6c0.8,0.2,1.3,0.5,0.9,1.4c0.1,0.7-0.6,1.8,0.8,2c0.1,0,0.2,0.2,0.2,0.3c-0.7,1.4,0.2,2.6,0.9,3.6
		c0.5,0.7,1,1.9,1.6,2.1c0.9,0.4,0.5,0.8,0.6,1.3c0.1,0.7-0.9,1.9,0.9,1.8c0.3,0,0.1,0.3,0.1,0.5c-0.1,0.6,0.3,0.9,0.5,1.3
		c0.5,1.1,2.3,1.6,1.6,3.3c-0.2,0.4-0.6,1.2,0.5,1.2c0.4,0,0.6,0.5,0.4,0.7c-0.3,0.6,0.1,0.8,0.5,1c0.4,0.2,0.9,0.3,0.5,1
		c-0.1,0.1,0,0.4,0.1,0.4c1.9,0.3,0.8,1.6,0.8,2.5c0,0.2,0.2,0.5,0.3,0.5c0.8,0.2,0.9,0.5,0.8,1.3c-0.1,0.8,1.8,0.6,1.1,1.9
		c1.2,0,1,1.2,1.5,1.9c0.7,0.9,1.6,1.6,2,2.9c0.2,0.6,1.2,1,1.2,2c1.5-0.2,0.2,2.4,2,2c-0.9,1.4,1.9,1.3,1.1,2.7c1.4,0,0.6,2,2,2
		c0.3,0,0.4,0.4,0.3,0.8c0,0.2,0,0.4-0.1,0.6c1.6-0.2,0.9,2.1,2.3,2.1c-0.6,1.2,1.2,1.3,1.1,2.4c0,0.8,1.7,0.9,1.3,2.1
		c1.7-0.4,0.4,2.5,2.2,2c-0.3,1.1,0.3,1.6,1.2,1.8c-1,1.3,1.7,1.4,0.9,2.7c0.6,0.2,1.1,0.6,1.7,0.7c0.5,0.1,1,0,0.8,0.9
		c-0.1,0.5,0.6,0.6,0.8,0.8c0.6,0.6,1,1.5,1.6,2.2c0.8,0.9,0.9,2.5,2.4,2.8c1.2,0,1.8,0.3,0.9,1.5c0.6,0.3,2-0.3,1.4,1.3
		c1.3,0.3,0.8,2.3,2.3,2.4c0.5-0.1,1.1-0.1,1.3,0.4c0.2,0.4,0.1,0.8-0.4,1.1c0.7,0.3,1.9-0.1,1.6,1.4c-0.1,0.7,1.1,0.2,1,0.6
		c-0.3,1.8,1.3,1.5,2.2,1.9c0.5,0.2,0.3,0.5,0.4,0.7c0,0.4-0.1,0.9,0.6,0.7c0.6-0.2,0.8,0.3,0.6,0.6c-0.4,1.1,0.4,1,1,1.2
		c1.1,0,1.7,0.3,1.3,1.5c0.4,0.5,1.9,0.1,1.1,1.5c0,0,0.2,0.3,0.3,0.3c2-0.3,2.2,1.9,3.6,2.4c1.6-0.5,1.3,0.4,1,1.3
		c0.6-0.3,1.2,0.3,1.2,0.5c-0.1,1.5,1.2,1.3,1.9,1.6c0.3,0.2,0.9,0.1,0.8,0.6c-0.5,1.2,0.7,0.8,1,1.2c1-0.1,1.7,0,1.2,1.3
		c0.5,0.5,2,0.2,1.3,1.6c0.3,0.1,0.5,0.2,0.8,0.3c0.8,0.2,1.9,0,1.7,1.5c0,0.5,0.8,0.4,1.4,0.5c0.4,0.1,1.2-0.1,1.1,0.3
		c-0.5,2,1.3,1.3,2,1.8c0.4,0.3,0.9,0.2,0.6,0.9c-0.1,0.1,0.1,0.4,0.1,0.4c1.6,0.1,2.2,1.5,3.4,2.2c0.6,0.4,1.9-0.1,1.6,1.4
		c-0.1,0.5,0.5,0.2,0.7,0.3c0.6,0.3,1.4,0.1,1.9,0.7c1.3-0.4,1,0.7,1.2,1.3c0.4,0.2,0.9,0.3,1.3,0.5c0.4,0.1,1-0.1,1.2,0.4
		c0.1,0.4-0.2,0.5-0.4,0.7c0.2,0.7,0.9,0.6,1.4,0.7c0.7,0.3,1.9-0.2,1.4,1.4c-0.1,0.4,0.4,0.3,0.7,0.4c0.6,0.3,1.3,0,1.8,0.5
		c1-0.1,1.7,0,1.2,1.3c0.4,0.5,1,0.3,1.5,0.4c0.6,0.2,1.3,0.1,1.3,1.2c0,0.7,0.8,0.7,1.3,0.8c0.6,0.1,1.3,0.1,1.9,0.3
		c0.2,0.1,0.6,0.1,0.6,0.1c0,2.7,2.3,1.5,3.5,2.2c0.2,0.1,0.5,0.1,0.4,0.3c-0.6,1.6,0.9,1.3,1.5,1.5c1,0.3,2.3-0.3,2.4,1.6
		c0,0.5,1.3,0.2,1.9,0.6c0.7,0.4,2.4-0.5,1.9,1.5c0,0,0.6,0.4,1,0.4c0.9-0.1,1.6,0.8,2.6,0.5c0.1,0,0.4,0.1,0.4,0.2
		c-0.2,2.6,2.2,1.3,3.2,2c0.5,0.4,1.5,0,2.1,0.6c1.5-0.5,1.4,0.3,1.2,1.3c2.4,0.5,4.7,1,7.1,1.6c1.1-0.1,1.5,0.3,1,1.4
		c2.2,0.5,4.4,0.9,6.7,1.4c1.1-0.1,1.7,0.4,1.4,1.6c3.6,1.2,7.4,1.1,11,2.3c1.2,0.1,2.8-0.4,2.8,1.7c8,1.6,16,3.1,24,4.7
		c0.3,0.1,0.5,0,0.8,0c0-0.4,0-0.8,0-1.3c1.3,0.4,2.8,0.2,4,0.8c3.1,0.2,6,1.1,9.1,1.5c0.2,0,0.5,0,0.8,0c-0.3-1.5,0.8-0.9,1.4-0.9
		c2,0.4,4.1,0.7,6.1,1.1c0.3,0.1,0.8,0.2,0.8-0.1c0.3-1.6,1.3-1,2.2-0.8c1.2,0.2,2.4,0.4,3.6,0.6c0-1.2,0.7-1.4,1.7-1
		c1,0.2,2,0.5,3.1,0.7c0.3,0,0.7,0.1,0.8-0.1c1.2-2,2.8-0.5,4.2-0.5c0.7,0,1.4,0.5,2.1-0.7c0.4-0.8,1.8,0.2,2.8,0.3
		c-0.1-0.5-0.1-1,0.4-1.3c0.4-0.2,0.8-0.1,1.1,0.4c1-0.6,2.1,0.5,3.2,0c-0.1-0.3-0.3-0.6,0-0.9c0.4-0.4,0.8-0.1,1.1,0.1
		c0.6-0.4,1.1,0.2,1.7,0.1c1.4-0.2,2.7-1.3,4.3-0.7c0.6-1.7,1.9-0.8,2.9-0.8c0.7,0,1.4,0.4,1.8-0.7c0.3-0.7,1.3,0,2-0.1
		c0.4-0.1,0.9,0.4,0.8-0.5c0-0.4,0.6-0.5,1.2-0.4c0.5,0.1,1.6,0.6,1.6,0.1c0.3-1.8,1.5-0.9,2.3-0.9c0.5,0,0.8,0.3,0.9-0.5
		c0.1-0.8,1.3-0.4,1.3-0.6c0.6-1.7,2.6-0.5,2.9-1c0.9-1.5,2.5-0.3,3.1-0.9c0.7-0.7,1.2-1.2,2.1-1.1c0.1-0.7-0.1-1.7,1.1-0.7
		c0.8-0.3,1.9,0.4,2.2-1.1c0-0.2,1,0.2,1.5-0.2c-0.3-1.8,0.8-1,1.5-0.7c1.3,0.1,2.1-1,2.9-1.7c0.5-0.5,0.8-0.5,1.3-0.5
		c0.7,0,1.9,1,1.8-0.8c1.3,0.4,1.3-1.7,2.7-1.2c0.3,0.1,0.7-0.1,0.6-0.5c-0.1-0.7,0.1-0.8,0.7-0.6c0.3,0.1,0.6,0.1,0.8-0.2
		c0.9-0.9,2-1.5,2.8-2.3c0.7-0.7,1.9-0.8,2.3-1.9c0.2-0.6,1.7,0.2,1.6-1.1c1.6-0.3,2.7-1.4,3.9-2.4c0.9-0.7,2.2-1.9,2.7-1.9
		c1.4,0,1.3-2.2,2.8-1.5c0.2,0.1,0.5-0.2,0.4-0.5c0-0.2,0-0.4,0-0.6c1.2,0.5,1.4-1.1,2.1-1c1.1,0.1,1-0.7,1.3-1.2c0-1,0-1.9,1.4-1.2
		c0.5-0.3,0-1.9,1.4-1.2c0.3-1.2,2.2-0.9,2.3-2.3c0.2-0.7-0.2-2.1,1.4-1.1c0.5-0.5,0.1-1.8,1.6-1.4c0.6,0.2,0.2-0.8,0.5-1.1
		c0.5-0.3-0.4-2.3,1.3-1.2c0.6-0.4,0.5-1.9,1.8-1.4c0.1,0,0.5-0.4,0.4-0.9c-0.1-0.5,0.3-1.4,0.4-1.4c1.9,0.3,1.2-1.8,1.9-2.2
		c1.3-0.6,1.7-1.5,1.7-2.7c0-0.1,0.1-0.2,0.2-0.2c2.2,0.2,1.2-1.8,1.9-2.7c0-1.2,0.3-1.8,1.6-1c0.2-0.9,0-1.9,0.5-2.7
		c0.1-0.7,0-1.7,1.3-1.2c1-1.2,0.6-2.7,1.2-4c0.2-0.6-0.1-1.6,1.2-1.3c0.4,0.1,0.4-0.5,0.5-0.9c0.4-2.3,0.9-4.6,1.3-6.9
		c0.1-0.6,0.4-1.1,0.6-1.6c-0.3-1-0.3-1.9,1.2-1.3c1-2,0.9-4.3,1.5-6.4c0.2-0.8,0.3-1.6,0.4-2.4c0-0.2,0.5-0.7-0.1-0.7
		c-1.4-0.1-0.9-1.1-0.8-1.8c0.3-1.7,0.7-3.4,1-5c0.1-0.8,0.7-1.8-0.7-2.1c-0.5-0.1-0.1-0.5-0.1-0.8c0.1-1.1,0.3-2.2,0.5-3.3
		c-1.4,0.3-1.2-0.5-0.9-1.4c0.2-1,0.3-2,0.5-3c-1.7,0.3-1.4-0.7-1.1-1.7c0.1-0.5,0.1-0.9,0.2-1.4
		C371.9,261.9,371.6,261.4,370.6,261.4z"/>
	<path class="st3" d="M111.7,316.7C32.7,248.1,14.2,140,70.4,75.3l2.2-2.5c26.2-30.1,72.3-32.9,103-6.2c8.7,7.6,15.6,17.1,20,27.8
		c4.5,10.9,6.3,22.9,5.3,34.6c-1.2,13.1-8,22.7-11.1,35.1c-4.1,16.3,4.5,33.1,16.7,43.7l0.8,0.7c12.1,10.6,30.1,16.7,45.6,10.4
		c11.8-4.8,20.4-12.9,33.2-15.8c11.5-2.7,23.6-2.5,35,0.4c11.2,2.9,21.6,8.4,30.3,16c30.7,26.7,34.3,72.7,8.1,102.8l-2.2,2.5
		c-56.2,64.6-165.8,61.4-244.8-7.3L111.7,316.7z"/>
	<path class="st4" d="M51.7,98c-13.9-24.5-5.3-55.6,19.2-69.4l0,0l7.1-4l0,0c24.5-13.9,55.6-5.3,69.4,19.2c0.6-0.4,8.4-5.2,13.2,4.6
		L48.9,111.7C42.9,102.5,51,98.3,51.7,98"/>
	<g>
		<g>
			<path class="st5" d="M305.9,174.5c15.1-12.6,21-32.2,16.8-50.1c-0.3-1.5-1.6-4-4.9-1.3c-3.2,2.7-29.7,24.7-29.7,24.7
				c-7.8,6.4-19.3,5.4-25.7-2.4c-3.2-3.9-4.6-8.7-4.1-13.4c0.4-4.7,2.6-9.1,6.5-12.4c0,0,26.6-22.2,29.8-24.8
				c3.1-2.6,0.4-4.6-1.2-5.3c-16.7-7.1-36.8-4.8-51.7,7.7c-16.4,13.6-21.9,35.4-15.5,54.5l-74.4,61.9c-7.8,6.5-8.8,18-2.4,25.7
				c6.5,7.8,18,8.8,25.7,2.4l74.4-61.9C267,189.5,289.5,188.1,305.9,174.5"/>
		</g>
		<g class="st6">
			<g>
				<defs>
					<rect id="SVGID_1_" x="145.1" y="87.3" width="178.8" height="157"/>
				</defs>
				<clipPath id="SVGID_00000149368340230876592650000003815775781533556881_">
					<use xlink:href="#SVGID_1_"  style="overflow:visible;"/>
				</clipPath>
				<path style="clip-path:url(#SVGID_00000149368340230876592650000003815775781533556881_);fill:#E1E3E2;" d="M258.1,133.6
					c-1.6-3.1-2.2-6.6-1.9-9.9c0.4-4.7,2.6-9.1,6.5-12.4c0,0,23.4-19.5,28.9-24.1c0.5,0.2,1,0.4,1.5,0.6c1.6,0.7,4.3,2.6,1.2,5.3
					c-3.1,2.6-29.8,24.8-29.8,24.8c-3.9,3.2-6.1,7.7-6.5,12.4C258,131.4,258,132.5,258.1,133.6 M322.6,122.6c-0.1-0.6-0.5-1.4-1-2
					c2.3,16.6-3.8,34-17.6,45.5c-16.4,13.6-38.8,15.1-56.4,5.3l-74.4,61.9c-7.8,6.5-19.3,5.4-25.7-2.4c-0.9-1.1-1.7-2.3-2.3-3.5
					c0.3,3.6,1.7,7.1,4.2,10c6.5,7.8,18,8.8,25.7,2.4l74.4-61.9c17.6,9.7,40,8.3,56.4-5.3C320.9,160.2,326.8,140.6,322.6,122.6"/>
			</g>
		</g>
	</g>
	<path class="st8" d="M125.6,213.7c0,0,30.9-9.2,32.2-1.3s-17.3,17.2-21.1,18.8"/>
</g>
</svg>
