<svg width="20" height="24" viewBox="0 0 20 24" fill="none" xmlns="http://www.w3.org/2000/svg">
<path d="M1.283 23.003C1.07873 22.925 0.907228 22.7796 0.79685 22.5908C0.686472 22.4021 0.64384 22.1813 0.676001 21.965C0.699001 21.098 0.682989 20.231 0.682989 19.365C0.655809 18.2692 0.877558 17.1815 1.33155 16.1838C1.78554 15.1861 2.45995 14.3044 3.30399 13.605C4.34835 12.6978 5.64199 12.1266 7.016 11.966C7.60643 11.9067 8.19962 11.879 8.793 11.883C9.78201 11.87 10.77 11.883 11.759 11.883C13.0228 11.8568 14.2732 12.1462 15.397 12.725C16.728 13.4178 17.813 14.5041 18.504 15.836C19.0768 16.939 19.3623 18.1685 19.334 19.411C19.326 20.263 19.316 21.116 19.339 21.968C19.3712 22.1843 19.3285 22.4051 19.2181 22.5938C19.1078 22.7826 18.9363 22.928 18.732 23.006L1.283 23.003Z" fill="#9A9C9A"/>
<path d="M10.02 0.994028C11.0397 0.99661 12.0358 1.30163 12.8821 1.8705C13.7284 2.43937 14.387 3.24651 14.7744 4.18979C15.1619 5.13306 15.2608 6.17007 15.0587 7.16959C14.8565 8.1691 14.3624 9.08619 13.6389 9.8048C12.9154 10.5234 11.995 11.0113 10.9941 11.2066C9.99326 11.4019 8.95696 11.2959 8.01634 10.9021C7.07572 10.5082 6.27308 9.84422 5.70998 8.99405C5.14687 8.14387 4.84863 7.14576 4.85298 6.12603C4.8596 4.76091 5.40721 3.45411 6.37578 2.4921C7.34435 1.53009 8.65484 0.991365 10.02 0.994028Z" fill="#9A9C9A"/>
</svg>
