<svg width="23" height="27" viewBox="0 0 23 27" fill="none" xmlns="http://www.w3.org/2000/svg">
<path d="M1.39396 26.135C1.15263 26.0428 0.949954 25.8711 0.819409 25.6482C0.688863 25.4253 0.638273 25.1645 0.675976 24.909C0.703976 23.885 0.683972 22.86 0.683972 21.836C0.652219 20.5409 0.914704 19.2556 1.45167 18.0767C1.98864 16.8977 2.7861 15.856 3.78398 15.03C5.01831 13.9581 6.5472 13.2834 8.17097 13.094C8.86869 13.0232 9.56969 12.9898 10.271 12.994C11.439 12.979 12.607 12.994 13.771 12.994C15.2648 12.9626 16.7428 13.3046 18.071 13.989C19.644 14.8074 20.9262 16.0911 21.743 17.665C22.4201 18.9684 22.7575 20.4216 22.724 21.89C22.715 22.897 22.703 23.905 22.73 24.912C22.7679 25.1674 22.7175 25.4282 22.5872 25.6511C22.4568 25.8741 22.2542 26.0458 22.013 26.138L1.39396 26.135Z" fill="#88A1D2"/>
<path d="M11.7169 0.12794C12.9219 0.130919 14.0989 0.491278 15.099 1.16341C16.099 1.83555 16.8772 2.78925 17.3351 3.90382C17.793 5.0184 17.9099 6.24374 17.6711 7.4248C17.4323 8.60586 16.8485 9.68953 15.9936 10.5387C15.1388 11.3878 14.0512 11.9643 12.8685 12.1951C11.6859 12.426 10.4613 12.3008 9.34988 11.8354C8.23842 11.37 7.28998 10.5854 6.6246 9.58085C5.95922 8.57627 5.60682 7.39688 5.61196 6.19194C5.6199 4.57901 6.26694 3.03501 7.41131 1.89833C8.55568 0.761647 10.104 0.125009 11.7169 0.12794Z" fill="#88A1D2"/>
</svg>
