<svg width="27" height="27" viewBox="0 0 27 27" fill="none" xmlns="http://www.w3.org/2000/svg">
<g filter="url(#filter0_d_2_266)">
<path d="M4.68201 3.89001C4.71401 3.74701 4.74098 3.60301 4.78198 3.46301C4.86615 3.10814 5.04202 2.7816 5.29199 2.51602C5.86299 1.93402 6.43398 1.34902 7.03198 0.796021C7.15452 0.667377 7.30191 0.564974 7.46521 0.494995C7.62851 0.425016 7.80427 0.388916 7.98193 0.388916C8.1596 0.388916 8.33548 0.425016 8.49878 0.494995C8.66208 0.564974 8.80947 0.667377 8.93201 0.796021C9.61001 1.42602 10.254 2.09603 10.906 2.75003C11.1812 3.00466 11.4323 3.28417 11.656 3.58502C11.8338 3.82844 11.9181 4.1276 11.8939 4.42804C11.8697 4.72848 11.7384 5.01022 11.5239 5.22202C11.0589 5.72202 10.565 6.20301 10.082 6.69101C9.76403 7.01101 9.766 7.01803 9.953 7.42603C10.4865 8.49306 11.1869 9.46801 12.028 10.314C12.8293 11.1979 13.7447 11.9714 14.75 12.614C15.099 12.833 15.475 13.014 15.84 13.204C16.007 13.294 16.1329 13.222 16.2529 13.104C16.7129 12.6374 17.1746 12.1744 17.6379 11.715C17.8699 11.4599 18.1741 11.2813 18.51 11.203C18.7036 11.1652 18.9032 11.172 19.0938 11.2227C19.2843 11.2735 19.4609 11.367 19.61 11.496C19.8126 11.6676 20.0061 11.8495 20.1899 12.041C20.8279 12.675 21.465 13.3107 22.101 13.948C22.3478 14.17 22.5284 14.4558 22.6229 14.774C22.6809 14.9785 22.6851 15.1944 22.6351 15.4009C22.5852 15.6074 22.4829 15.7976 22.338 15.953C21.756 16.586 21.1479 17.196 20.5289 17.794C20.1865 18.1061 19.7543 18.3021 19.2939 18.354C19.2646 18.363 19.2366 18.3761 19.2109 18.393H18.3159C18.2815 18.3785 18.2461 18.3664 18.21 18.357C17.674 18.243 17.124 18.175 16.61 18.01C15.0259 17.4767 13.5341 16.7008 12.188 15.71C9.74663 13.9846 7.71857 11.739 6.25 9.13501C5.68635 8.15981 5.24565 7.11858 4.93799 6.03503C4.82799 5.63503 4.76601 5.23002 4.68201 4.82602V3.89001Z" fill="#9A9C9A"/>
</g>
<defs>
<filter id="filter0_d_2_266" x="0.682007" y="0.388916" width="25.9877" height="26.0042" filterUnits="userSpaceOnUse" color-interpolation-filters="sRGB">
<feFlood flood-opacity="0" result="BackgroundImageFix"/>
<feColorMatrix in="SourceAlpha" type="matrix" values="0 0 0 0 0 0 0 0 0 0 0 0 0 0 0 0 0 0 127 0" result="hardAlpha"/>
<feOffset dy="4"/>
<feGaussianBlur stdDeviation="2"/>
<feComposite in2="hardAlpha" operator="out"/>
<feColorMatrix type="matrix" values="0 0 0 0 0 0 0 0 0 0 0 0 0 0 0 0 0 0 0.25 0"/>
<feBlend mode="normal" in2="BackgroundImageFix" result="effect1_dropShadow_2_266"/>
<feBlend mode="normal" in="SourceGraphic" in2="effect1_dropShadow_2_266" result="shape"/>
</filter>
</defs>
</svg>
