<svg width="25" height="31" viewBox="0 0 25 31" fill="none" xmlns="http://www.w3.org/2000/svg">
<path d="M12.2791 15.2731C12.4441 15.2731 12.6121 15.2731 12.7791 15.2581C13.9229 15.1962 15.0348 14.8595 16.0209 14.2767C17.007 13.6939 17.8382 12.8822 18.444 11.91C19.4128 10.4327 19.7871 8.64387 19.492 6.9021C19.2684 5.50601 18.6461 4.20421 17.7 3.15356C16.7538 2.10292 15.5242 1.34809 14.1591 0.97998C13.9261 0.92598 13.691 0.880073 13.401 0.825073L12.945 0.749023L11.5981 0.75708L11.281 0.812012C11.125 0.839012 10.969 0.866071 10.814 0.898071C9.23704 1.22473 7.81626 2.07336 6.78105 3.30701C5.89782 4.35768 5.32604 5.63446 5.13041 6.99304C4.93479 8.35162 5.12307 9.73782 5.67399 10.995C6.24746 12.2674 7.17546 13.3475 8.34685 14.1062C9.51823 14.8649 10.8835 15.2701 12.2791 15.2731ZM12.3261 3.51208C12.9173 3.50823 13.5034 3.62179 14.0503 3.84619C14.5973 4.0706 15.0942 4.40138 15.5124 4.81934C15.9305 5.23729 16.2615 5.73402 16.4861 6.28088C16.7108 6.82775 16.8247 7.41381 16.8211 8.005C16.8267 9.19928 16.3575 10.3469 15.517 11.1953C14.6765 12.0437 13.5333 12.5235 12.339 12.5291C11.1448 12.5346 9.99726 12.0655 9.14885 11.225C8.30043 10.3844 7.82055 9.24127 7.81499 8.047C7.80785 7.45519 7.91809 6.86784 8.1392 6.31885C8.36032 5.76986 8.68799 5.27016 9.10332 4.84851C9.51864 4.42686 10.0134 4.09169 10.559 3.8623C11.1046 3.63292 11.6902 3.51389 12.282 3.51208H12.3261Z" fill="#C7C7C7"/>
<path d="M24.5341 23.2471C24.4206 21.5961 23.9671 19.9864 23.2021 18.5191C22.7853 17.684 22.1708 16.9636 21.4119 16.4203C20.6531 15.8771 19.7729 15.5275 18.8481 15.4021C18.6495 15.372 18.449 15.3562 18.2481 15.355C17.6562 15.3421 17.0769 15.5281 16.6031 15.8831C16.3441 16.0741 16.0691 16.2431 15.7791 16.4201L15.6651 16.49C14.7317 17.1288 13.627 17.4706 12.496 17.4706C11.365 17.4706 10.2604 17.1288 9.32708 16.49C9.19308 16.407 9.06109 16.3211 8.86309 16.1901C8.60709 16.0231 8.35104 15.8561 8.08404 15.7101C7.7522 15.5073 7.3769 15.3862 6.98907 15.3571H6.8891C5.93597 15.3541 4.99754 15.5922 4.16107 16.0491C2.85992 16.789 1.87035 17.9746 1.37506 19.3871C0.50531 21.5997 0.171241 23.9867 0.400082 26.353C0.455869 27.0568 0.66949 27.739 1.02508 28.3489C1.38067 28.9588 1.86905 29.4809 2.45404 29.8761C3.46511 30.5594 4.66761 30.9027 5.88702 30.8561H18.95C19.301 30.8561 19.6501 30.8391 20.0031 30.8051C21.2721 30.7153 22.4591 30.1452 23.3224 29.2108C24.1858 28.2765 24.6606 27.0481 24.6501 25.776C24.6573 24.9315 24.6187 24.0874 24.5341 23.2471ZM12.4781 28.0901H12.1981H5.85406C5.28159 28.1184 4.71217 27.9912 4.20611 27.7221C3.86584 27.5371 3.58315 27.2618 3.3891 26.9267C3.19504 26.5915 3.09702 26.2093 3.10601 25.822C2.99537 24.0149 3.26342 22.2046 3.893 20.5071C4.15822 19.6782 4.70345 18.9673 5.43512 18.4961C5.83723 18.2631 6.2923 18.1369 6.75702 18.13C6.98302 18.267 7.20308 18.409 7.42608 18.553L7.82611 18.808C9.20673 19.7171 10.8201 20.2092 12.4731 20.2251C12.6861 20.2251 12.901 20.2181 13.116 20.2001C14.5021 20.0888 15.8404 19.6426 17.016 18.9C17.191 18.791 17.365 18.6791 17.538 18.5661C17.7759 18.4066 18.0227 18.2607 18.277 18.129C18.8165 18.1622 19.3365 18.3427 19.7806 18.6507C20.2247 18.9587 20.5759 19.3825 20.7961 19.8761C21.3494 20.9671 21.6824 22.1564 21.7761 23.3761C21.8489 24.0764 21.8863 24.7799 21.888 25.484C21.9291 25.8279 21.893 26.1767 21.7822 26.5048C21.6714 26.8329 21.4887 27.1322 21.2475 27.3808C21.0063 27.6293 20.7128 27.8208 20.3881 27.9414C20.0635 28.0621 19.716 28.1088 19.371 28.078C18.467 28.088 17.5634 28.0924 16.6601 28.0911L12.4781 28.0901Z" fill="#C7C7C7"/>
</svg>
