<svg width="33" height="32" viewBox="0 0 33 32" fill="none" xmlns="http://www.w3.org/2000/svg">
<path d="M23.4189 7.02599C23.4191 7.94869 23.2374 8.8624 22.8844 9.71489C22.5313 10.5674 22.0138 11.342 21.3614 11.9944C20.7089 12.6469 19.9343 13.1644 19.0818 13.5174C18.2293 13.8705 17.3156 14.0521 16.3929 14.052C14.5295 14.052 12.7424 13.3118 11.4248 11.9941C10.1072 10.6765 9.36694 8.8894 9.36694 7.02599C9.36694 6.10332 9.54867 5.1897 9.90176 4.33727C10.2549 3.48483 10.7724 2.71029 11.4248 2.05786C12.0772 1.40544 12.8518 0.88791 13.7042 0.534821C14.5566 0.181731 15.4703 0 16.3929 0C17.3156 0 18.2292 0.181731 19.0817 0.534821C19.9341 0.88791 20.7086 1.40544 21.3611 2.05786C22.0135 2.71029 22.531 3.48483 22.8841 4.33727C23.2372 5.1897 23.4189 6.10332 23.4189 7.02599Z" fill="#88A1D2"/>
<path d="M20.247 26.922C20.047 25.358 18.397 24.138 16.393 24.138C14.389 24.138 12.738 25.363 12.54 26.93V26.943C12.1893 28.3137 11.3924 29.5286 10.2749 30.3963C9.15733 31.2639 7.78278 31.7349 6.36797 31.735C5.5321 31.7351 4.70439 31.5706 3.9321 31.2509C3.15981 30.9311 2.45807 30.4624 1.86693 29.8714C1.27579 29.2805 0.806839 28.5789 0.486847 27.8067C0.166854 27.0345 0.00208444 26.2068 0.00195312 25.371V25.082C0.00195312 17.536 7.34196 11.42 16.395 11.42C25.448 11.42 32.789 17.536 32.789 25.082V25.371C32.7888 26.2068 32.6241 27.0345 32.3041 27.8067C31.9841 28.5789 31.5151 29.2805 30.924 29.8714C30.3328 30.4624 29.6311 30.9311 28.8588 31.2509C28.0865 31.5706 27.2588 31.7351 26.423 31.735C25.0069 31.735 23.6313 31.2631 22.5135 30.3938C21.3958 29.5245 20.5996 28.3074 20.251 26.935L20.247 26.922Z" fill="#88A1D2"/>
</svg>
