<svg width="16" height="17" viewBox="0 0 16 17" fill="none" xmlns="http://www.w3.org/2000/svg">
<path d="M0.459961 16.026C0.559961 16.002 0.613973 15.994 0.659973 15.977C1.65997 15.644 2.65997 15.312 3.65997 14.971C3.77584 14.9256 3.88027 14.8553 3.96594 14.765C7.62661 11.109 11.285 7.451 14.941 3.791C15.0317 3.70291 15.1162 3.6087 15.194 3.50901C15.3697 3.28271 15.4801 3.01264 15.5134 2.72807C15.5467 2.4435 15.5016 2.15523 15.3828 1.89448C15.2641 1.63373 15.0763 1.41041 14.8398 1.2487C14.6033 1.08699 14.327 0.993029 14.041 0.977002C13.788 0.967308 13.536 1.0149 13.304 1.11619C13.072 1.21749 12.8659 1.36987 12.701 1.56199C9.21232 5.05466 5.71932 8.54268 2.22198 12.026C1.77 12.4494 1.43867 12.9854 1.26196 13.579C1.03296 14.388 0.739961 15.179 0.459961 16.026Z" fill="#C7C7C7"/>
</svg>
