<svg width="212" height="78" viewBox="0 0 212 78" fill="none" xmlns="http://www.w3.org/2000/svg">
<path d="M105.659 33.336C120.695 33.336 132.883 23.365 132.883 11.064V10.593C132.857 7.8145 131.729 5.1599 129.746 3.21327C127.763 1.26665 125.089 0.187451 122.31 0.21303C120.647 0.212025 119.006 0.597133 117.517 1.33803C115.997 2.09876 114.682 3.21418 113.684 4.59004C112.584 6.11804 112.406 7.806 111.584 9.433C110.495 11.584 107.971 12.6001 105.66 12.6001H105.499C103.188 12.6001 100.664 11.583 99.575 9.433C98.751 7.806 98.575 6.11804 97.475 4.59004C96.4768 3.21418 95.1621 2.09876 93.642 1.33803C92.153 0.597133 90.5122 0.212025 88.849 0.21303C86.0707 0.187718 83.396 1.26704 81.4134 3.21364C79.4308 5.16024 78.3026 7.81467 78.277 10.593V11.064C78.277 23.364 90.466 33.336 105.501 33.336H105.659Z" fill="#88A1D2"/>
<path d="M17.509 65.2921C17.5254 65.3883 17.535 65.4855 17.538 65.5831C17.585 67.2431 16.29 68.6711 14.966 69.4941C13.5497 70.3292 11.9472 70.7974 10.304 70.8561C7.62903 70.9711 4.46903 70.297 2.54103 68.306C1.70576 67.4736 1.05116 66.4778 0.618084 65.3809C0.185009 64.2841 -0.0172197 63.1096 0.0240361 61.931C-0.0894342 59.6935 0.568551 57.4848 1.88803 55.6741C2.81925 54.579 3.98924 53.7121 5.30799 53.14C6.62675 52.5679 8.05916 52.3058 9.49504 52.374C10.6126 52.369 11.7232 52.5506 12.781 52.9111C13.6929 53.2158 14.5476 53.6703 15.31 54.2561C15.9391 54.7356 16.4738 55.3276 16.887 56.0021C17.2191 56.5167 17.405 57.1119 17.425 57.7241C17.4252 58.031 17.3407 58.332 17.1808 58.5939C17.0208 58.8559 16.7917 59.0686 16.5186 59.2086C16.2454 59.3487 15.939 59.4106 15.6329 59.3875C15.3269 59.3645 15.0331 59.2574 14.784 59.0781C14.0684 58.4565 13.3028 57.895 12.495 57.3991C11.727 57.0147 10.8695 56.8445 10.0128 56.9063C9.1562 56.968 8.33204 57.2595 7.62704 57.7501C6.93511 58.2592 6.39305 58.9453 6.05784 59.7362C5.72263 60.5272 5.60665 61.3938 5.72204 62.2451C5.83117 63.047 6.17968 63.7974 6.72204 64.3981C8.07504 65.8431 10.574 66.0391 12.366 65.4381C13.299 65.1241 14.11 64.5381 15.032 64.1961C15.3156 64.0624 15.6258 63.9947 15.9392 63.998C16.2527 64.0013 16.5613 64.0755 16.842 64.215C17.0215 64.3389 17.1733 64.4985 17.2881 64.6839C17.4029 64.8692 17.4781 65.0763 17.509 65.2921Z" fill="#595757"/>
<path d="M83.398 65.2921C83.4144 65.3883 83.4241 65.4855 83.4271 65.5831C83.4741 67.2431 82.179 68.6711 80.855 69.4941C79.4387 70.3292 77.8362 70.7974 76.193 70.8561C73.518 70.9711 70.358 70.297 68.43 68.306C67.5948 67.4736 66.9402 66.4778 66.5071 65.3809C66.074 64.2841 65.8718 63.1096 65.913 61.931C65.7996 59.6935 66.4576 57.4848 67.777 55.6741C68.7083 54.579 69.8783 53.7121 71.197 53.14C72.5158 52.5679 73.9482 52.3058 75.3841 52.374C76.5016 52.369 77.6122 52.5506 78.67 52.9111C79.5819 53.2158 80.4366 53.6703 81.1991 54.2561C81.8281 54.7356 82.3628 55.3276 82.7761 56.0021C83.1081 56.5167 83.294 57.1119 83.314 57.7241C83.3143 58.031 83.2297 58.332 83.0698 58.5939C82.9098 58.8559 82.6807 59.0686 82.4076 59.2086C82.1345 59.3487 81.828 59.4106 81.5219 59.3875C81.2159 59.3645 80.9221 59.2574 80.6731 59.0781C79.9574 58.4565 79.1918 57.895 78.3841 57.3991C77.616 57.0147 76.7585 56.8445 75.9019 56.9063C75.0452 56.968 74.221 57.2595 73.516 57.7501C72.8241 58.2592 72.2821 58.9453 71.9469 59.7362C71.6116 60.5272 71.4956 61.3938 71.611 62.2451C71.7202 63.047 72.0687 63.7974 72.611 64.3981C73.964 65.8431 76.4631 66.0391 78.2551 65.4381C79.1881 65.1241 79.9991 64.5381 80.9211 64.1961C81.2046 64.0624 81.5148 63.9947 81.8282 63.998C82.1417 64.0013 82.4503 64.0755 82.7311 64.215C82.9105 64.3389 83.0623 64.4985 83.1771 64.6839C83.2919 64.8692 83.3671 65.0763 83.398 65.2921Z" fill="#595757"/>
<path d="M190.063 65.292C190.08 65.3881 190.09 65.4854 190.092 65.583C190.14 67.243 188.844 68.671 187.52 69.494C186.103 70.3301 184.499 70.7986 182.855 70.857C180.181 70.972 177.02 70.298 175.093 68.307C174.258 67.4747 173.603 66.4789 173.17 65.382C172.737 64.2851 172.535 63.1106 172.576 61.932C172.462 59.6944 173.12 57.4855 174.44 55.675C175.371 54.5801 176.541 53.7132 177.86 53.1411C179.178 52.5691 180.61 52.307 182.046 52.375C183.164 52.37 184.275 52.5515 185.333 52.912C186.245 53.2167 187.1 53.6713 187.862 54.2571C188.491 54.7366 189.026 55.3286 189.439 56.003C189.77 56.5181 189.956 57.113 189.977 57.725C189.977 58.0318 189.892 58.3326 189.732 58.5943C189.572 58.8561 189.343 59.0686 189.07 59.2085C188.797 59.3485 188.491 59.4105 188.185 59.3876C187.879 59.3648 187.585 59.258 187.336 59.079C186.621 58.4575 185.855 57.8959 185.048 57.4C184.28 57.0157 183.422 56.8455 182.565 56.9073C181.709 56.969 180.884 57.2605 180.179 57.751C179.488 58.2607 178.947 58.947 178.613 59.7379C178.278 60.5289 178.163 61.3952 178.279 62.246C178.388 63.0478 178.737 63.7981 179.279 64.399C180.633 65.844 183.132 66.04 184.924 65.439C185.857 65.125 186.667 64.539 187.589 64.197C187.873 64.0633 188.183 63.9956 188.497 63.9989C188.81 64.0022 189.119 64.0764 189.4 64.216C189.579 64.3401 189.73 64.4997 189.844 64.6848C189.958 64.87 190.033 65.0767 190.063 65.292Z" fill="#595757"/>
<path d="M38.996 61.615C39.0095 62.8889 38.792 64.1547 38.354 65.3511C37.9503 66.4522 37.3158 67.4542 36.493 68.29C35.6688 69.1185 34.6769 69.7612 33.584 70.175C32.3692 70.6283 31.0805 70.8511 29.784 70.832C28.4956 70.8512 27.2153 70.6256 26.011 70.167C24.9228 69.7422 23.9351 69.0951 23.111 68.267C22.2889 67.4359 21.6535 66.4391 21.247 65.3431C20.8125 64.1488 20.5981 62.8857 20.614 61.615C20.5988 60.3302 20.8163 59.0533 21.256 57.846C21.6548 56.7519 22.2828 55.7557 23.098 54.9241C23.9229 54.1002 24.9149 53.4628 26.007 53.055C27.2136 52.6063 28.4928 52.3842 29.78 52.4C31.0769 52.3829 32.3656 52.6077 33.58 53.063C34.6795 53.4793 35.6779 54.1246 36.509 54.956C37.3283 55.7863 37.9599 56.7827 38.361 57.878C38.7957 59.0754 39.0108 60.3413 38.996 61.615ZM33.844 61.615C33.9274 60.2506 33.539 58.899 32.744 57.787C32.393 57.342 31.9419 56.9862 31.4273 56.7485C30.9128 56.5107 30.3494 56.3979 29.783 56.419C29.0329 56.4047 28.2959 56.6177 27.669 57.03C27.0297 57.4757 26.5386 58.1027 26.259 58.8301C25.9128 59.7162 25.7449 60.6619 25.765 61.613C25.7432 62.5534 25.907 63.4889 26.247 64.366C26.525 65.0898 27.0098 65.7158 27.641 66.1661C28.2711 66.5908 29.0174 66.8095 29.777 66.792C30.3441 66.8123 30.9079 66.6982 31.4225 66.459C31.9371 66.2199 32.3878 65.8625 32.738 65.4161C33.5322 64.3131 33.9237 62.971 33.847 61.6141L33.844 61.615Z" fill="#595757"/>
<path d="M92.432 48.509C92.432 50.08 92.371 52.0881 92.412 53.6561C92.6362 53.4918 92.8883 53.3695 93.156 53.2951C96.371 52.4141 101.22 53.1831 103.09 56.5341C103.423 57.0933 103.647 57.7105 103.75 58.353C103.871 59.1193 103.928 59.8943 103.921 60.6701V68.0761C103.976 68.8178 103.749 69.553 103.286 70.1351C103.073 70.3669 102.812 70.5497 102.522 70.6705C102.231 70.7914 101.918 70.8475 101.603 70.835C100.08 70.835 99.319 69.9164 99.321 68.0791V61.085C99.321 58.877 98.321 57.5681 95.794 57.5731C93.237 57.5781 92.432 59.6461 92.432 61.9091V68.1721C92.4829 68.9082 92.2631 69.6375 91.814 70.223C91.227 70.6799 90.4891 70.8981 89.748 70.8341C88.2267 70.8341 87.4654 69.9154 87.464 68.0781V48.4141C87.4083 47.675 87.6213 46.9406 88.064 46.3461C88.2759 46.1134 88.537 45.9308 88.8283 45.8116C89.1196 45.6924 89.4338 45.6396 89.748 45.6571C90.5109 45.6556 91.2472 45.9375 91.814 46.4481C92.2656 47.0361 92.4856 47.7695 92.432 48.509Z" fill="#595757"/>
<path d="M124.799 64.977C124.846 66.279 124.407 67.5519 123.567 68.5481C121.867 70.5871 119.016 71.039 116.502 71.039C115.013 71.0763 113.532 70.8166 112.144 70.2751C111.097 69.8859 110.172 69.2266 109.462 68.3641C108.943 67.7998 108.645 67.0667 108.623 66.3C108.641 66.014 108.717 65.7346 108.845 65.4785C108.974 65.2224 109.153 64.9951 109.372 64.81C109.591 64.625 109.845 64.4861 110.119 64.4017C110.393 64.3173 110.681 64.2893 110.966 64.3191C111.695 64.549 112.355 64.9577 112.885 65.508C113.538 66.0612 114.273 66.5095 115.063 66.8371C115.956 67.21 116.956 67.2417 117.871 66.9261C118.18 66.8227 118.46 66.6467 118.687 66.4128C118.915 66.179 119.083 65.8941 119.177 65.5821C119.233 65.2708 119.208 64.9503 119.104 64.6515C119.001 64.3526 118.822 64.0853 118.586 63.875C117.2 62.575 114.955 63.2411 113.257 62.9501C111.89 62.7591 110.651 62.0414 109.806 60.9501C109.17 60.0781 108.814 59.0331 108.787 57.9541C108.759 56.8751 109.061 55.8133 109.652 54.9101C110.285 54.0304 111.15 53.3453 112.152 52.9321C113.414 52.4089 114.773 52.1575 116.139 52.1941C117.248 52.1809 118.355 52.3059 119.433 52.5661C120.294 52.7672 121.116 53.1048 121.87 53.5661C122.457 53.9222 122.963 54.3961 123.357 54.9581C123.673 55.394 123.851 55.9148 123.868 56.4531C123.876 56.6973 123.831 56.9405 123.737 57.1661C123.643 57.3917 123.502 57.5945 123.323 57.761C122.892 58.1238 122.338 58.3062 121.776 58.2701C120.302 58.2701 119.351 57.027 118.124 56.412C117.388 56.0451 116.56 55.9026 115.743 56.0021C115.277 56.0211 114.828 56.1856 114.46 56.4726C114.093 56.7596 113.824 57.1545 113.692 57.602C113.66 57.9525 113.725 58.3051 113.882 58.6204C114.038 58.9358 114.279 59.2015 114.577 59.388C115.181 59.7534 115.871 59.9537 116.577 59.969C119.635 60.188 124.094 60.7171 124.74 64.4261C124.771 64.6083 124.791 64.7923 124.799 64.977Z" fill="#595757"/>
<path d="M168.879 61.615C168.879 61.585 168.873 61.559 168.873 61.53V61.362C168.873 61.278 168.845 61.219 168.84 61.139C168.815 60.0273 168.612 58.9268 168.24 57.879C167.841 56.7839 167.211 55.7872 166.394 54.956C165.564 54.1248 164.567 53.4795 163.468 53.063C162.254 52.6077 160.965 52.3828 159.668 52.4C158.381 52.3843 157.102 52.6064 155.896 53.055C154.804 53.4628 153.811 54.1001 152.986 54.9241C152.171 55.7557 151.543 56.7519 151.144 57.8461C150.704 59.0533 150.487 60.3303 150.502 61.615C150.486 62.8858 150.7 64.1489 151.135 65.3431C151.541 66.4383 152.175 67.4345 152.996 68.2651C153.82 69.0932 154.808 69.7402 155.896 70.165C157.1 70.6236 158.38 70.8493 159.668 70.8301C160.965 70.8491 162.253 70.6263 163.468 70.173C163.861 70.0088 164.242 69.8156 164.607 69.595C164.657 69.9635 164.768 70.3213 164.934 70.654C165.12 70.9314 165.38 71.1509 165.685 71.2875C165.989 71.4242 166.326 71.4726 166.657 71.427C168.136 71.427 168.875 70.4307 168.873 68.438V61.6971C168.879 61.6691 168.879 61.644 168.879 61.615ZM163.003 65.2211C162.578 65.6758 162.059 66.0329 161.482 66.2677C160.905 66.5025 160.284 66.6094 159.662 66.581C158.817 66.6017 157.983 66.3874 157.252 65.962C156.561 65.5401 156.013 64.9194 155.68 64.181C155.297 63.3269 155.109 62.398 155.13 61.462C155.109 60.5157 155.299 59.5766 155.687 58.7131C156.022 57.9705 156.578 57.3488 157.278 56.9321C158.005 56.5209 158.829 56.3136 159.663 56.332C160.284 56.3034 160.905 56.4095 161.481 56.6428C162.058 56.8762 162.577 57.2314 163.004 57.6841C163.886 58.7395 164.33 60.0923 164.246 61.465C164.326 62.8297 163.882 64.1734 163.005 65.222L163.003 65.2211Z" fill="#595757"/>
<path d="M146.133 57.88C145.732 56.7848 145.101 55.7883 144.282 54.958C143.452 54.1269 142.454 53.4816 141.356 53.065C140.14 52.609 138.849 52.3842 137.55 52.402C136.263 52.3863 134.984 52.6083 133.778 53.057C133.479 53.187 133.187 53.3339 132.904 53.497C132.813 53.2185 132.665 52.962 132.469 52.744C132.264 52.5273 132.016 52.3568 131.74 52.2437C131.464 52.1306 131.167 52.0775 130.869 52.088C130.576 52.0729 130.284 52.1223 130.012 52.2327C129.741 52.3431 129.497 52.5119 129.298 52.727C128.873 53.2781 128.668 53.9672 128.721 54.661V60.552C128.698 61.28 128.696 62.057 128.721 62.779V74.222C128.678 74.9953 128.823 75.7676 129.145 76.472C129.331 76.7494 129.591 76.9688 129.896 77.1055C130.2 77.2422 130.537 77.2905 130.868 77.245C132.347 77.245 133.086 76.2487 133.084 74.256V69.81C133.317 69.927 133.529 70.07 133.777 70.168C134.981 70.6264 136.261 70.8521 137.549 70.833C138.848 70.8527 140.138 70.6299 141.355 70.176C142.448 69.762 143.44 69.1193 144.264 68.291C145.087 67.4552 145.721 66.4532 146.125 65.352C146.563 64.1557 146.78 62.8899 146.767 61.616C146.782 60.3427 146.568 59.077 146.133 57.88ZM140.892 65.223C140.467 65.6778 139.948 66.0349 139.371 66.2697C138.794 66.5045 138.173 66.6114 137.551 66.583C136.706 66.6035 135.872 66.3893 135.141 65.964C134.45 65.5417 133.902 64.9211 133.569 64.183C133.293 63.5467 133.13 62.8672 133.087 62.175V60.753C133.13 60.0501 133.296 59.3601 133.576 58.714C133.912 57.9718 134.467 57.3502 135.167 56.933C135.894 56.5221 136.718 56.3147 137.552 56.333C138.173 56.3043 138.794 56.4103 139.37 56.6437C139.947 56.877 140.466 57.2322 140.893 57.685C141.775 58.7401 142.22 60.0931 142.136 61.466C142.215 62.8308 141.77 64.1743 140.892 65.222V65.223Z" fill="#595757"/>
<path d="M207.331 62.728H199.431C199.184 62.728 198.937 62.728 198.69 62.728C198.574 62.728 198.572 62.7071 198.532 62.8131C198.49 63.0433 198.497 63.2797 198.553 63.507C198.588 63.7472 198.652 63.9823 198.744 64.207C199.084 64.8994 199.577 65.5054 200.185 65.9796C200.794 66.4537 201.502 66.7835 202.256 66.944C203.058 67.1207 203.891 67.0922 204.679 66.8611C205.466 66.63 206.183 66.2038 206.762 65.622C207.09 65.311 207.377 64.957 207.71 64.652C208.046 64.2826 208.513 64.0593 209.012 64.03C209.511 64.0006 210.001 64.1676 210.378 64.4951C210.659 64.919 210.803 65.4194 210.789 65.928C210.776 66.4367 210.606 66.9287 210.302 67.337C209.294 68.792 207.834 69.8738 206.149 70.415C203.671 71.2764 200.955 71.1427 198.574 70.0421C197.458 69.544 196.467 68.8049 195.67 67.878C194.874 66.9511 194.293 65.8593 193.969 64.681C193.702 63.6696 193.573 62.627 193.583 61.5811C193.571 60.3123 193.777 59.051 194.192 57.8521C194.568 56.7547 195.174 55.75 195.969 54.905C196.772 54.0683 197.755 53.4239 198.842 53.02C200.054 52.5699 201.339 52.3475 202.632 52.364C204.252 52.3185 205.854 52.7055 207.275 53.4851C208.495 54.1602 209.5 55.1652 210.175 56.385C210.797 57.4911 211.129 58.7363 211.14 60.005C211.203 60.4315 211.143 60.8673 210.966 61.2604C210.788 61.6535 210.502 61.9873 210.14 62.2221C209.254 62.6026 208.294 62.7756 207.331 62.728ZM198.849 59.8961H201.622H206.099C206.174 59.9032 206.249 59.8937 206.32 59.8681C206.357 59.8482 206.386 59.8169 206.402 59.7789C206.419 59.7409 206.423 59.6984 206.413 59.658C206.373 58.5391 205.956 57.4667 205.229 56.6151C204.872 56.251 204.443 55.9659 203.969 55.7783C203.495 55.5907 202.987 55.5047 202.478 55.526C201.98 55.5093 201.484 55.5987 201.024 55.7884C200.563 55.9781 200.148 56.2636 199.806 56.626C199.138 57.3975 198.72 58.3531 198.606 59.367C198.577 59.476 198.558 59.5875 198.55 59.7C198.554 59.85 198.659 59.8971 198.849 59.8961ZM198.689 59.89C198.742 59.8994 198.796 59.9015 198.849 59.8961L198.689 59.89Z" fill="#595757"/>
<path d="M52.451 70.85C50.21 70.85 46.519 70.059 44.851 67.818C43.7632 66.1782 43.1556 64.267 43.097 62.3001C42.9708 60.7518 42.9374 59.1973 42.997 57.645C43.03 56.39 42.856 54.775 43.774 53.768C43.9884 53.5356 44.2508 53.3526 44.543 53.2318C44.8352 53.1109 45.1501 53.055 45.466 53.068C46.9994 53.068 47.766 53.9924 47.766 55.841C47.766 57.248 47.641 58.6571 47.597 60.0661C47.5171 61.1825 47.6679 62.3034 48.04 63.359C48.4145 64.2068 49.0355 64.9222 49.8223 65.4119C50.609 65.9017 51.5251 66.1433 52.451 66.1051H52.583C53.5101 66.1444 54.4275 65.9033 55.2155 65.4133C56.0035 64.9232 56.6254 64.207 57 63.358C57.3722 62.3024 57.523 61.1815 57.443 60.065C57.399 58.656 57.274 57.247 57.274 55.84C57.274 53.99 58.037 53.067 59.574 53.067C59.8901 53.0541 60.2052 53.11 60.4975 53.2308C60.7898 53.3517 61.0524 53.5347 61.267 53.767C62.185 54.774 62.01 56.3891 62.044 57.6441C62.1036 59.1963 62.0702 60.7507 61.944 62.299C61.8854 64.2659 61.2779 66.1773 60.19 67.817C58.52 70.058 54.829 70.849 52.59 70.849L52.451 70.85Z" fill="#595757"/>
</svg>
