<svg width="34" height="31" viewBox="0 0 34 31" fill="none" xmlns="http://www.w3.org/2000/svg">
<path d="M22.727 5.33597C22.7271 6.03661 22.5892 6.73042 22.3211 7.37775C22.0531 8.02508 21.6601 8.61325 21.1647 9.10867C20.6692 9.6041 20.0811 9.99707 19.4337 10.2651C18.7864 10.5332 18.0926 10.6711 17.392 10.671C16.6914 10.671 15.9977 10.533 15.3505 10.2648C14.7033 9.99673 14.1152 9.60374 13.6199 9.10832C13.1246 8.61291 12.7317 8.02478 12.4637 7.37752C12.1957 6.73025 12.0579 6.03652 12.058 5.33597C12.0579 4.63541 12.1957 3.9417 12.4637 3.29443C12.7317 2.64717 13.1246 2.05903 13.6199 1.56361C14.1152 1.0682 14.7033 0.67521 15.3505 0.407089C15.9977 0.138968 16.6914 0.000976644 17.392 0.000976656C18.0926 0.000845291 18.7864 0.138737 19.4337 0.406799C20.0811 0.674862 20.6692 1.06784 21.1647 1.56326C21.6601 2.05869 22.0531 2.64687 22.3211 3.2942C22.5892 3.94154 22.7271 4.63533 22.727 5.33597Z" fill="#F7F8F8"/>
<path d="M13.5389 14.803C13.7389 16.367 15.3899 17.587 17.3929 17.587C19.3959 17.587 21.0479 16.363 21.2459 14.795V14.783C21.596 13.4121 22.3927 12.1969 23.5101 11.329C24.6275 10.4611 26.0021 9.98997 27.4169 9.98999C29.1051 9.98999 30.7242 10.6605 31.918 11.8542C33.1119 13.0478 33.7827 14.6668 33.7829 16.355V16.644C33.7829 24.188 26.444 30.304 17.39 30.304C8.33595 30.304 0.996948 24.188 0.996948 16.644V16.355C0.996948 14.6669 1.66754 13.0479 2.86121 11.8542C4.05488 10.6606 5.67384 9.98999 7.36194 9.98999C8.77791 9.99015 10.1534 10.4621 11.2712 11.3314C12.3889 12.2007 13.1851 13.4177 13.5339 14.79L13.5389 14.803Z" fill="#F7F8F8"/>
</svg>
