<svg width="33" height="17" viewBox="0 0 33 17" fill="none" xmlns="http://www.w3.org/2000/svg">
<path d="M10.159 9.758C10.159 10.819 10.172 11.846 10.159 12.873C10.1622 13.1311 10.1026 13.3862 9.98523 13.6162C9.86787 13.8461 9.69631 14.044 9.48536 14.1929C9.27441 14.3417 9.03041 14.437 8.77442 14.4704C8.51843 14.5039 8.25814 14.4746 8.01602 14.385C7.71061 14.2766 7.44659 14.0758 7.26072 13.8103C7.07485 13.5448 6.97638 13.228 6.97902 12.904C6.97902 11.865 6.97902 10.826 6.97902 9.76H3.81702C3.81702 10.27 3.81702 10.76 3.81702 11.252C3.81702 11.859 3.83402 12.467 3.78902 13.071C3.7618 13.4333 3.60556 13.7738 3.34867 14.0307C3.09178 14.2875 2.75129 14.4438 2.38902 14.471C2.0296 14.5168 1.66556 14.4345 1.36073 14.2387C1.05591 14.0428 0.829781 13.7459 0.722015 13.4C0.65583 13.1621 0.624834 12.9158 0.630016 12.669C0.622017 11.245 0.624016 9.821 0.630016 8.397C0.592451 8.14623 0.613983 7.89016 0.692892 7.64918C0.771801 7.40821 0.905909 7.189 1.08452 7.00902C1.26314 6.82904 1.48133 6.69328 1.7217 6.61254C1.96206 6.53181 2.21797 6.50834 2.46902 6.544C7.05101 6.544 11.6327 6.544 16.214 6.544C16.514 6.544 16.652 6.484 16.736 6.153C17.221 4.281 18.373 2.6506 19.9756 1.5683C21.5781 0.485986 23.5208 0.0263035 25.4384 0.27566C27.3561 0.525016 29.1166 1.46624 30.3891 2.92239C31.6616 4.37855 32.3583 6.24934 32.3484 8.18311C32.3385 10.1169 31.6226 11.9804 30.3352 13.4235C29.0479 14.8665 27.2778 15.7896 25.3577 16.0193C23.4376 16.249 21.4997 15.7694 19.9084 14.6707C18.317 13.572 17.1817 11.9299 16.716 10.053C16.667 9.859 16.627 9.724 16.37 9.725C14.377 9.736 12.383 9.732 10.39 9.732C10.327 9.734 10.267 9.747 10.159 9.758ZM19.671 8.123C19.6708 9.06079 19.9487 9.97759 20.4695 10.7575C20.9903 11.5374 21.7307 12.1453 22.5969 12.5045C23.4632 12.8636 24.4166 12.9578 25.3364 12.7752C26.2563 12.5926 27.1013 12.1414 27.7647 11.4785C28.4281 10.8157 28.8801 9.97101 29.0635 9.05132C29.2469 8.13163 29.1534 7.17822 28.795 6.31162C28.4366 5.44502 27.8293 4.70416 27.0498 4.1827C26.2704 3.66123 25.3538 3.38259 24.416 3.382C23.1594 3.38569 21.9552 3.88624 21.0663 4.77444C20.1773 5.66264 19.6758 6.86638 19.671 8.123Z" fill="#C7C7C7"/>
</svg>
